<mxfile host="app.diagrams.net" modified="2024-01-29T13:43:19.972Z" agent="Mozilla/5.0 (Windows NT 10.0; Win64; x64) AppleWebKit/537.36 (KHTML, like Gecko) Chrome/121.0.0.0 Safari/537.36 Edg/121.0.0.0" etag="Z0oaeyOubAT4WZ0fiWqo" version="22.1.18" type="github">
  <diagram name="第 1 页" id="uVz_v1RqzXghl_LNaq7V">
    <mxGraphModel dx="837" dy="631" grid="1" gridSize="10" guides="1" tooltips="1" connect="1" arrows="1" fold="1" page="1" pageScale="1" pageWidth="827" pageHeight="1169" math="1" shadow="0">
      <root>
        <mxCell id="0" />
        <mxCell id="1" parent="0" />
        <mxCell id="4WSRFMHS42A8IH6o-YUB-1" value="" style="shape=image;verticalLabelPosition=bottom;labelBackgroundColor=default;verticalAlign=top;aspect=fixed;imageAspect=0;image=data:image/png,iVBORw0KGgoAAAANSUhEUgAAApYAAAFqCAIAAAAvKI2iAAAACXBIWXMAAA7EAAAOxAGVKw4bAAAF8WlUWHRYTUw6Y29tLmFkb2JlLnhtcAAAAAAAPD94cGFja2V0IGJlZ2luPSLvu78iIGlkPSJXNU0wTXBDZWhpSHpyZVN6TlRjemtjOWQiPz4gPHg6eG1wbWV0YSB4bWxuczp4PSJhZG9iZTpuczptZXRhLyIgeDp4bXB0az0iQWRvYmUgWE1QIENvcmUgNi4wLWMwMDIgNzkuMTY0MzUyLCAyMDIwLzAxLzMwLTE1OjUwOjM4ICAgICAgICAiPiA8cmRmOlJERiB4bWxuczpyZGY9Imh0dHA6Ly93d3cudzMub3JnLzE5OTkvMDIvMjItcmRmLXN5bnRheC1ucyMiPiA8cmRmOkRlc2NyaXB0aW9uIHJkZjphYm91dD0iIiB4bWxuczp4bXA9Imh0dHA6Ly9ucy5hZG9iZS5jb20veGFwLzEuMC8iIHhtbG5zOnhtcE1NPSJodHRwOi8vbnMuYWRvYmUuY29tL3hhcC8xLjAvbW0vIiB4bWxuczpzdEV2dD0iaHR0cDovL25zLmFkb2JlLmNvbS94YXAvMS4wL3NUeXBlL1Jlc291cmNlRXZlbnQjIiB4bWxuczpkYz0iaHR0cDovL3B1cmwub3JnL2RjL2VsZW1lbnRzLzEuMS8iIHhtbG5zOnBob3Rvc2hvcD0iaHR0cDovL25zLmFkb2JlLmNvbS9waG90b3Nob3AvMS4wLyIgeG1wOkNyZWF0b3JUb29sPSJBZG9iZSBQaG90b3Nob3AgMjEuMSAoV2luZG93cykiIHhtcDpDcmVhdGVEYXRlPSIyMDI0LTAxLTI5VDIxOjI3OjMzKzA4OjAwIiB4bXA6TWV0YWRhdGFEYXRlPSIyMDI0LTAxLTI5VDIxOjI3OjMzKzA4OjAwIiB4bXA6TW9kaWZ5RGF0ZT0iMjAyNC0wMS0yOVQyMToyNzozMyswODowMCIgeG1wTU06SW5zdGFuY2VJRD0ieG1wLmlpZDplNmM1MDg4ZS0xMWRiLTZjNGQtOTIwOC00M2E0ZDcxNDI5MDMiIHhtcE1NOkRvY3VtZW50SUQ9ImFkb2JlOmRvY2lkOnBob3Rvc2hvcDpmMWQ5Mzg4Mi1jMGY4LTQ5NDctOGMyOC04OThkZTYzM2M3ZTEiIHhtcE1NOk9yaWdpbmFsRG9jdW1lbnRJRD0ieG1wLmRpZDo4MmY2ZDhlNC1hMGI4LWY5NDctYjc5MS1iNGNlZGJlNDAzY2UiIGRjOmZvcm1hdD0iaW1hZ2UvcG5nIiBwaG90b3Nob3A6Q29sb3JNb2RlPSIzIiBwaG90b3Nob3A6SUNDUHJvZmlsZT0ic1JHQiBJRUM2MTk2Ni0yLjEiPiA8eG1wTU06SGlzdG9yeT4gPHJkZjpTZXE+IDxyZGY6bGkgc3RFdnQ6YWN0aW9uPSJjcmVhdGVkIiBzdEV2dDppbnN0YW5jZUlEPSJ4bXAuaWlkOjgyZjZkOGU0LWEwYjgtZjk0Ny1iNzkxLWI0Y2VkYmU0MDNjZSIgc3RFdnQ6d2hlbj0iMjAyNC0wMS0yOVQyMToyNzozMyswODowMCIgc3RFdnQ6c29mdHdhcmVBZ2VudD0iQWRvYmUgUGhvdG9zaG9wIDIxLjEgKFdpbmRvd3MpIi8+IDxyZGY6bGkgc3RFdnQ6YWN0aW9uPSJzYXZlZCIgc3RFdnQ6aW5zdGFuY2VJRD0ieG1wLmlpZDplNmM1MDg4ZS0xMWRiLTZjNGQtOTIwOC00M2E0ZDcxNDI5MDMiIHN0RXZ0OndoZW49IjIwMjQtMDEtMjlUMjE6Mjc6MzMrMDg6MDAiIHN0RXZ0OnNvZnR3YXJlQWdlbnQ9IkFkb2JlIFBob3Rvc2hvcCAyMS4xIChXaW5kb3dzKSIgc3RFdnQ6Y2hhbmdlZD0iLyIvPiA8L3JkZjpTZXE+IDwveG1wTU06SGlzdG9yeT4gPC9yZGY6RGVzY3JpcHRpb24+IDwvcmRmOlJERj4gPC94OnhtcG1ldGE+IDw/eHBhY2tldCBlbmQ9InIiPz421IzbAAEunElEQVR4nOydd5gcxdHG36qemQ2Xk3JOSEgCASJnTDAmR5toHACTjDEO2PCBDdjGGJuMAYNNMiaYnHOUCAIEKCeUpZNOl8PuznRXfX/MnSQwQYBQgPk9++g57e3N9MzOTHVVV71FqoqEhISEhISEjQ1e3wNISEhISEhI+CIkJjwhISEhIWGjJDHhCQkJCQkJGyWJCU9ISEhISNgoSUx4QkJCQkLCRkliwhMSEhISEjZKEhOekJCQkJCwUZKY8ISEhISEhI2SxIQnJCQkJCRslCQmPCEhISEhYaMkMeEJCQkJCQkbJYkJT0hISEhI2ChJTHhCQkJCQsJGSWLCExISEhISNkoSE56QkJCQkLBRkpjwhISEhISEjZLEhCckJCQkJGyUJCY8ISEhISFhoyQx4QkJCQkJCRsliQlPSEhISEjYKElMeEJCQkJCwkZJYsITElYhgEAVooBCw5YP2v6zWy63XGEh63twCQkJCR/GW98DSEjYgGBAVQgACVRdw1xv6Us++6oMAq3v4SUkJCSsTmLCExJWR4iMBRyEwIWFz3LvQxCUeCADm9wvCQkJGxRJID0h4UMowK49t3R8uOglfv+SXMWAXO0rtnmeUHKzJCQkbFgkT6WEhFUoIKqQnDYvldo3aSqK+mzpty1HvsOpWihUFc7BWQhgFVA46Poed0JCwjcSUk0ePwkJK1EHMi4Ssu0zH8a4C0tOmAjD6jxnIkXoFTxrWwQIAt9xmTFQOAYns+GEhIR1T/LcSUhYhYIMHNiPOGOWTODqTSwFkbJAPefD5Zc8c0q4bJKre3vmk3/2dCmURLwouY8SEhLWB8mjJ2Fdo6rSxYYWBIpzzpVgtOCWTXR9d2VSkGNjQa514nUVww7yBm1nBuzRf+zeDS9fI1TwKCSE63ncCQkJ30gSE56wrlHVhoYGY0x9ff36HsvH4MAKcK4uWvq8128XRptRcg4hWr03z0/32MKoFzifyofRxD9JvkHAnib3UUJCwnogefQkrGuI6JZbbqmpqampqVnfY/koAkAL7LSpdoJX0T9VuZlIcfOSp8Ilc6J8k2kD2HhklMSRVuTQkW9TCDQpNktISFgPJCY8YV2jqtddd93xxx+/vgfyMbCAwTBtumwGV+6rrFwIm2e9muk1mMM2BqDOwTA7T1gZJGrUc8ltlJCQsD5IvIeEdcesWbMeeuihQqEwd+7cxsbGP/3pT9ttt93uu+++8gPx0jjRepNBE1aSAC4oGrrXgvk/qF7wRMv8d/ts80vLBqiMGClyUCiIQR0GDIKKA5v1NeKEhIRvMIkJT1h31NTU7LnnnrNmzQJw5JFH9ujRo3v37v/7MVVdX1ZcocwCsqZqq0H7PtKeW95/659F6WIf7ZQpbsmiRC1gHXlw7XmD0nSxGJPcRQkJCeuFJAKYsO4oLS0dM2bMihUrstns7rvvPnr06NVNeD6fnzFjBtarF25UIazEBiHKepd039yls4Elp8WUymRHndVWt0gpr5CobVEw7IcmU+KgnHRASUhIWB8kJjxh3RHb5ttvv/0HP/hBEATMTEQi8uabb55yyimZTGb33Xdfz2VmZMBE8JkCDx5T4MHAg0cgUPG257dMuCE3/0WZ9/SC128t2usPCuOBwHZ9jjkhIeGbSqLOlrDuUNX6+vqampqpU6eOGDEiflNE2trarLVPPfXU7373u+nTp69HL/xTcABpIS8izUsto6ykwqLCmDiVTQB/fQ8wISHhG0eyipewTnn33XcBDBkyRESamprS6XQ2my0tLVVVa21ZWdmGab8Rx9gRZAmuYiAjJE15bEk8cGgRJDdSQkLCuicJpCesU956663evXv7vs/MN9544wZrsD8GElU4hpJaBCAHeGALDQhufQ8uISHhm0hiwhPWHSJSW1s7cOBAAHPmzCkrK8tkMut7UB9GFQpAAFEIXGihFgoBRMAUgTzLHhRkCAA8EAySmrKEhIT1QGLCE9YdRPTzn/+8pKTkzDPPfPvtt0866aQNLxUjjgqwKgHkjG8QAu0RQZkImtIQntONJ3aQkJDwNSZZwvsGsd6FU4iob9++jz322Opvrm7FW1pa1mNROACQAqrKAEHVwCLSsHUR+R4X9SE2JIEYy0hseEJCwvonMeHfFFT1t7/9bUtLy7XXXru+xvCxtllVwzBsb2+vr6+fMWNGfX19UVHR+gqwK5QAIqg6wLY3Tux48FvZFR0tPrL9Dy7e+082u4kHQmLCExISNgCSorJvCtZa3/fvvvvuI488cn2P5UOo6vTp0x988MGioiLP89ra2nbccccdd9xx/QwGCiiBgShfaOaralwGGbc1vAlYgQWD9ul17P2ephyzSax4QkLC+ibxwr/+xLO06dOnA9h1113Xezj9IxDRiBEjVpaJ/y8KIUCVKLaapJ1vg6AU/9S1Le36BbRrvTrOT4sPl+LffHjWSl1dwkFwCg9UIA1g7PSHi1sQFY1QzCbtJdVRv1lPdSyfvaylprJfpRcEpOCuQQhBVIkEII6ddAI0Ho8hIigpxUP9yHg3oO8iISFh4yIx4V9/nn322ebm5gkTJgB47rnnfN8/8MADU6nU+h7XmkLKnUabVnrJIBAUjrQzqB3bRlGKI0tW1BVIBU5IFKJwTlVFFSq60mrHW2UDZhgmz7DH8EoCYy0MdyzryCCj9aRk4Xdk06VldZNfnn/zkS8WeqQHDsuU9Sgq7Zuu6F1W2b2svGeqtCZVVlNWVlVKnoWSwihBIASNk+Hi4Ws8eFKogOJ80njWwUl8PiEh4XORmPCvP+Xl5b7vv/322yNHjuzVqxcR+b4vIviw/6eqzBtihYIARBDttH4AK8Cq6pSlAFFETqLIFiKWvIYWTgjKwgBIlQQAlGNjv9ID5i5vmCyLcSBlMKlvH3tzcqY82Hm3/aX7qOI2oKZ5qQ6rsvnSjlmwWF6b0u4l5bWFBWjXye2s5AdLOWDkyMFGXABrj226Dxha0nNoSb/B3Su6laayJijyUiVekPGZmGMvXVhgiJxq7MyDEmc8ISHhc5KshX/9iXO8R4wYcfrpp5922mkiQkSxwRaRKIpSqdSGFl1fHVUlFSghijQqRIW8FkJbCFmRihyDIJ3GGJ4DG4gAFHqf4tLqSn9XgSByIIOS0vbW1sOPP+7JN97OZKh2/BvFo0c1PnO6/8INpWUAkMvD7n9N8eYnhaRRaJdMrps9ee7i95vnTVxa93pbVNXDE6thIQjUCMJ6MaXspdnlnUWVS+ejVLtf6YZu0XvoyMp+m1VsutmQbLUP58OHSoE8BbxkSp2QkPC5SEz41x9VnTt37uDBg+vq6qqqqmL7XSgUTjzxxGOOOQbAtddeu8UWW5x//vmet5ZNiOuKDisgUKOdK9LxsCwRA2wFxGo6Y8wKIRCpkrgol9cw9No7VATOiTgSNSurzggOxAwVcOc2WSAUu+n4uPZhAhBgfbBT4wiAKEpKbCG64K+X3XD7bfUtLQC23XyzZ268KTtsWFjm8dxn2j940frZsuH7+N12AHkMVWUi7fTqFVFo21vb8+0u32rbmvPLZq9YPHvJsrmFhZPq2hcX2BSzgU/GGI4aOjhNziOb06AiHVRzcaWfLjdVvVLd+1fXDMj2HFTVa2BNqsRjivPjiYihncvq4Hh1PV5q5/g0gkUBAQHUddTcuVSgXZObzj8C6cqFhw1xupaQkPC5SEz4N4Lrr7/+sssumz179sqq6yeffPKNN944//zziWju3LmDBg165513tthii7W845UXF0Fis6qrssck1kIjiMJTlTCi0Eoh1LDAYahhxCosooZXbqQrL+1LjcnBYziIUBAgk338iScuuuLy1ydNAjCgV89zTj395GOPi8KI+/cwxo/YCEUkvlE2nyXCpgooHEcQYvVY0d6Sb1y+vHFZrmFpvmF5e+uyfGNdc8PcjoZZLeEyp5UgF5B6FDJ5Tj0rgA1t5eCyyv5F5d39mj7Flb2Ky3uUlnRLVXWvKK0sMr5SrPVqyMERyFO/81RrvMiw0kiLg9dlu+PzvvLsSSLrlJDwNSAx4V9/ROTggw9m5vvvv5+Zm5uby8rK7rvvvsMPPzyfz/u+39LSUlFR8dRTT+29995rfecAoKRE6PKBCUJApJJbNMsPKjhTZlqX24IjUWOtJxADAEKOoUowEqyexf3lvcc4xR1l1fNnz/rdXy695aEH4/eP3X//Ky++uLJnDZa3Rz0r/YqKhe2NNcVVaRE1lgTg4LM33inRGju8QoRIPUOAWibrwIBHjlnRuKxl0azFtfNbaj9oXTqnMd+ktsN1LM3lZuVMiqN04EL4xZ4CynAuhHGMaMCYvlUjpc+gXv2G9iyuyWRKOVUSZEpSXgDAkaZAHMc8KLbyK0+ZcleifOJ/JyR8TUjW3r7+MPPChQtPOOGEePH7+uuv/8UvfnHIIYeISDyBW758OYC+ffuu9V0rWAAiYaiKGPIgIvl82NbmNzS/tummKWD7Fx72+oz0ChFAMOoCYmtIieF35ZyFa83qMEOEUhmA/nnbLT/61S/jtwf17PbyQ4/07t4b+Q6tb24oL6oqq2iisN+/ju9WUj35qEtKuNqwtyb9RImoq5yNVFkVPkUAAx7EMxQBAgbA5b1Ki3qbETCAz87EExcSIMLi+YtnT5i94P3G2RPrl73kUpT2CmQD46qDme+syL5I73ATZWYATiSkUFymUDwyPXLLQX22yG46Zljvgd1MYMkrWFcEJiVyqikQCeLauThCv3ZOaUJCwvojMeFff1T13Xff3XrrrQGcdNJJ55133uqPb2vtJptscvfddw8bNmyt75oEhgCRqKNdcjnN5Yy1xtoUoWnZnLJ+QIBUr02sFsj3YnMPdWCniBPJGdC1KaJChOLiV8e9+rMLfv/2tGkABfCv+9OFRx+4fybtR4XmyKOMZsp69YLyb176D1oeXy5jcvlUlc9qCkD6s3YQL0V3Zr53LpXDB6DkQFBlBROBVQjqa4qgCgeGUY7/BgF6D+3Vd0h3HAUijgq2vT2Xa40K7S5XX1g6b9mC6UuXfVCY92adXc7GM1JCHhXnZ9FrLyzIlNODbppmtKhXKlPpZ8u84hqv97DqngOKeozo1ndQLz/tIYm7JSR8XUhM+DeCiy666D//+c8bb7zxk5/8ZMCAAejSNwnDcM8993zwwQcPOuiguMxsTdCubKguqZLOpVclVQURSATWunxeCznJFUyhYMQZUlYI+0wRiipXzJ3iR6BqgD1V50G68s/ia1K71p2/oP3+cL4WOXamtHzp3AUXX3PtdXfcBUQBcNzhh5535pkDho9EQ5NGkQ9WIvTtxuTNzi+//v2HAZy++c/6lleqwKzR4jFjpa7LhwdPMFh9JZ9Wfep/j9AAoM57008H5emgvAoAVHX4zn2hIAAOzQ2t9XWNzUvtiiWNTbUdK5Y0NS/C0tn1rbM7sIhzi6RBCyJuiqkjH1pgda5iZGl1/0xVr/Ju/VNVvcrKe2bKexZV9aw0gRd/mwQoONaKX3UoBKhTKBAASitnKitX2rGG5ychIWFtkqyFf/1R1ZXfMlFn+bGIWGsPOeSQK6+8csiQIar63nvvjRkzZg032Zk83mlKiABWgXNiQ+3Iu7Y2tOd8gTPKooy40AvwyBEU8IrLZlz5y/Z7/02DsPk/Z7uOyF+7YV2FYzCgcdDasLV6z5OPnXH++Q3t7QBGDRn81/Mv2HvPvdCaA9phPSg6fEr16UWZEkdy2H0XPzL/pqB6vxXHX1HiUpGBv8FkcTs46kxPY1W15FgNg0hBbOG40BLNnb1o0QfLl82Jli9sKDS43HLbsizXWttBzJ4asRalZaqRuIid9SD9xlb3GFnUY2RVv6G9SyvSmWKTKUsHxRnDTLGiXaeQXBzrj1XnSMHU9fxIIvMJCeuexAv/+rPSbK9OFEXpdPqCCy64+eabU6nUo48++s9//nMNNyggR4DCgAgwzkkhn29o0PY8q6ScNYZBCl89JXgKURiG+EDeCFkvg7AjP/cdDaGVwzRgzglgsBYjvASjDBHyDDLp1ob6bQ88aNqCBfEvrz7/3NN/dCIc0NikvqPIQU2H8TJ9e6sfsGBGfvkji55By8LLdjmgSDwlGJVVSqzrG6MGq+TcNRAGBCwgVUmBkSo3w8cOGT52oOusSBNSwBnJydzpS6a+/cH0d5bPfb42akLgiri93Fa1znqvdvZ4L8XLmWfYMLCmEKbynIlG7Npv+DZlm2+/ab8R3ZFSUF7EgLzYU2dYgEFMQsn6ekLCuicx4d9Q3nrrrWOOOWbhwoXxf4cNG9a7d+81/FtS9SAII9vc6trb/SgUZ1OqpARRcLymTSLMsBI7bKoGeRUG55VScK0dbdMMo2LINkYdHCmvaRh/dVZVPf/PL5RDLq9sbWw8+7xz77j33hwA4Ih9vv3nX/964CbD0djoGEwQy8b5ubSX7ttbUimCaZVo01vORcWCUeVnnzBmTyiricXM43nGBgAp0Jk1p6SO4iRzZjCxBUxXRNwYzYEMYADjPNViDBjbfdDYngeQUaGOtnx7W6HQbtuW55fOXT5v8sLaqbnFbywtBJUEZEyarFnw6JIF9y95IpgKRlHPrNczmy3mHoOKBo+o6DO8uv8m/dNlRsgJhYYy67lRbELCN48kkP4N5SNybKvFSVf7DFSBOELr4rVcJy6fk452tLVqvuCpYyElJY5VQhWAMHea406VEXT+R2A9z3eFgpdJUf61H2zmzUHFRX8csscJLr+C9YvMJrsqzFffkQJKQRpB6va77rr4qqtmLloIYIvBQ8476xeHHngA8q0airAokycKq1GQRb9uvp+NDBPw4KzxR9y1I/zM4997de+BWxoHGAhWJputf7RTc5a60hJiaGUHGADx2dcuzZu4sG/VB1dTfOmqZqe4DYu1tmlpQ8Oy1obFUf3S9uXzm+rmNy+d0dA+N/RTRcZ1WGaynvoQUmmPSoeluw8vqelTXjWwqFvPqup+6e59q4rLsmRiKRkBkSj0Q2v/rlN8pjMeH8fk419p1/srR5iQkPCJJF74N5SPeEtd/3VdT02Oc6aUICoqYnL5qKPdtrSaMPRixXEmJS/OOlu5HgpglTv9ofQmBoMFUDawcMQroB7K+w1ClGamLxZEFwYJhMGxXYvNQ1n1lInv/vKPf3hi/DgAxUFw4pFH/fG8c9NFxWhuBmk8FoI4EKUC07enZvw4Ut5aaD/ipevhD91++DG79x9t0Ol484ZkTGjVmf1okfdq/+EP//fDqwCrp9mh04uPN+YHXk3/bjX9ayBx21VVFVLTUZ+bM/ODpTPDD6YvaVySb10cdqyQjnyhY25+/rxoSaHBlfuqNrRhpIXyfiUDt+s2cGR1/017llZliiu9kpLiIBMQx3MFA1KQgETArHEhngAqMApVknjuyEmKXELCp5J44Qmrs8pxdhBWpUIhXN7ArR0GeSLuUiMH+PNP/hTKTGqVPLJt4/YdqxF2emEcMFC4jp3/ua2kohAgsCARkEKBsixyetHVV1109VWRITjddvSoJ++4o7ysUgrN7AjKUIS+DSIDoXw6kxrY0xrfUyowpZ2e/+bdF711FGTbBT98uE+2ij5Tj+1rizgVIhIlA+7KQhdLapRIDSzAZCM3+/2F0ycsmvbmijlPNRqGJ8IF53kIo0i8QExKxdd2Df2Wblvy2H36jtpuyLCt+3mZtFIspSsMJoXGnrgpAAxVKIEY9I09/wkJa0TihSeswoJZlVVcoeAaGzWX10IhUAFIOVBV8RnKJGBEnzvK2Rm29Yi50FBrHFADpLJod+x9IS+XkArjCADD85FNPfXMs7/4/YWT58+DR6VO//33G/ffZVewaw+bi1xX+JgQFFgIUWlJqnf30DMpYUcglRWu7aJ370Urjh1zVM+iaqff2NtDAGZihXBndRmcMsAeLIiUVAIoxHjYZJt+w7cdeJBKJFGhvZBrdrkmu2T+snlvLVj4XsfsF5YHUFuSyvqpllny1MQFzxUv4Lyf6cHZHlJck+o/utugzboN23xgZe8SoTBCymgcF1DuasWakJDwSSReeEInqiodHbajndtaKdfODsSd3TKsgRdfJtIZLP9iuwiZfGcoa2rffnHhT39k+mPL/0xFWxrc/kUyxZTUj0h9lFfNnjr1ossuu+3xRwEUpTNnHH3sb0/+SUmf7mFrva9MztPOjGkFVKxzVRWmRw8YwxIvzBLUHvbElQ9MuRRV32r9/k0pkzVq+QsEG74OuJVfh+rKEnAB4qTzzmV41S4BHiWKVWviJixxwIUYal1BV9Q21S/qqFvUvHxew/LZLcvmtNS91IZuHpSM54tlkI0KHSV9gt7Dy7oPLa3pW9F7k4oeg0tq+tTAxMX0G9AqRkLCBsU38wn1DWOVZLcqhJSVSHVVNhRFBWlvcw2NqY6CAYEIHMCsmtt5K5e3v9yzNLAKrwPSvbV5kQpQDLgAgGNj1jghPR6WhRqyrCW5sO2Om/7xqz/+samjHcCOo0dfccH5Y7fdGu0FNLUECLqOHWKcQqlgwt6905UVnZleDHISgZZ0NDww63G45X/e5KDAS3mq8s21HKumU7TKEzb48OI6EXVO5uLENfofW0s+Z9BzYLeeAzvfiFPW21a0zZu2eNGklnnTlrYszTcu0qZ5Jr+U5tR2zH2xBdlFkbMudKlK3nTnPgPGVA0Y3bO8p19aWVZaXgwWJQiIIUQghSp37ZZApNDVkvU2mELAT0UlcmQ8YWUHitvOQjXSzqMJPKgl54lZlZ641vatICfWCEdMPn9zr/mNlcSEf/3p6g1GUCKw62xZJaQO7fnCinruKHgaBWCJXSwA+kVKvNZgIEYAw5BIoCADJSjUIWTx9TOfHgplCMO36oORLV6wZOluBx44t3EFgLKUf81Ffzz28CPgHFraRVaG7kEKa9TPqWMjA3umi0tXPthVVRikOvCBi6Bv9+h56kk7HRpYowyTPM7WNnGj23R18SY7bzJ4R9md2ahlyxTR/GlLJ02YNfnF5XMmzE8jg9Dn5f60h2unPfQBc8q1lYbFy5BJbX/oJpvv2WPzbYdR1sCQ+iTc2XaNAIYjiCMfQGfiA7Dh57VHIXOoKI1UmdXEKfms5NoYABUBZKlThWFtQw5q2HMTHp0+cuvBxd2LksrAjYvEhH/9iafyQqSkiJ2pQmgbmtDWiiiXFiExIHZfudHqKmsiyuc6mKBUSjBK0ik/85lZ6QR1MA4or2hva/7pr87+530PxL/5/oEH/emXZ/ccNBSN9fEDz/twArYfIZ/2gj69TUkWK9uLqxIRib5aOwUrnkS++W/bH1UuPrjz8Z+sxa51iMhTAdQj7VyY8Qm+9t+qR/+tuu93MtuCy7fmO9rCFQsbp7w+Z+aExg9ebfCLohSVcKQTLp/zzh2zYF9J9yrKdkf1kOKR2/QesWOP3gP6kEfC4lhYOjvRi4DNhm6NVPXBq198/FfzT7x3y+0P2xQwgAU8KN/0h0cKNjzjsiOgq5chdP7Vmhjaj9SOfgxilBUuuuaUCcdcVPj2CVuvXmi6hrtITP56JDHh3wBi2Wt1sE7a2qKWVmrL+zaEKgwpPDUqncVgX4XzvYrOB5FIeXnZcgCFFriQlTxViHy8OhutDCMoFJTOwPNuufOOP1x95ezFSwCMGb7JxWf9fL9vfxutOTSsgEJYORaZWYmTQlGR36enZNJxNxVV5c41XTRLeOSz/4CdvVnPsw8auq2SdJVZJRb8K8HF0jRxvzYldGq+i0KZXJCmIJUpqS7uPqBs5M4DSciFsnTh4uXz3NJ5DYtnLF84qXnhOw1Rnc0t8+vGN099dKlrSxf1NN03S/ceXtF/WO8+IzP9h/X1shB2BG/Dj6WzDcr7FF91xMubLuxf1itgcgpPWQPNhHkSqMGHlgc+PYFpdZv62caVLcEDpf749N41vas+ZVOfRGK/1y/rzoRrZ0iT4oXJ+K6luDcVxboT8fKsQI0wWDVe2SIhMBw0DvIqwBuKWPVnsM7np6vd2BoLdSgDokBYkJZWWdHg50OjaZQSvAxKAmnoIBFZ+V18ZLlzbcMi6hhhobLvgFoCtUDFkTjLJsCHhGUEymBA4Mj6aqwSMSoqp7038dzL/vLAiy8CqMiWnHTkkX/89a84RWhsLPhBIAQluDi26gk7VkAhRemgXx/yfY0vPyWKswEUCjw47bW6+Vchu+k13zk5TUYIprODy8ZwkW2EmFUtbFQ4lg9iUiaga5UHgCMlBcM4TnPvof16DrNbaF+AIFxoy8+aNHvexIbZE+vrlvgds/IddS2Lns4tG9f2TrQgIrZe28Adq0du33fQln2rehVV9ihOF6e16wrTlZJAXUst6BK86bL32tUIYF1M40KDfvsGwdt8y3mvn3HDrkj5EFUWYzrlehRMUIU2LGtbNrfZFTRb4Q0Y3oMDUjCr6spxK8TK3Bl1fYdUdDTnl37Q4mxU1bO0x6BKMLGQkNTOaSiuCoqLi+dNWt7eFg3arDxTWiyaKlhKicbPWQll8bzljbXWY6nuV1bTL0MISAmQ2g+aUxWmtKRo4bRlbU1R/1GVJZUl6+AsJXws68iEq6JTdMkh8shAGE7JhSwBAoKA/AhEqhEJE6eAkDTQ0JEnTIHCOMTNK8ioGktYk97N6xlrLTObdVNbrCtNoAKqRICSOM0VwuX12t6estYz5FJiwEtmPDfvimsqd9lu+MGnwUsZcVD9qu03AGEoAmPbinsM0QAdtZD2NpN1QVgBXq1KTYSZIbBsyHeeREiVqMhfr77yN5f+2QIAdhy12T033dirR0+0t6NdYLyUs86ISuCJAYfWg1dgB1coL8n27g3PX3l48eMQAAgdkF9O+C/KUFPx7e2rB8fFyF/pSUhYXViGP/zmareK6TKnncs7Bl7nHxqkyjKjdho9ekdAAAeorZ274rWnpr311OLlH+S8FvYLxYuf7qh7cuZTmflhq8tnOwZ/q3Sn/QaN3XtUSVmKPWHyYFjFggzBxOK5BAAWnWvrnc/GdTCVC5xZ8MHSPz3646N7XbndAb22OWRzBgixByAeyIJhw5kvLP2/vf9bBc6MiJqnlXqjW6558UxTmWIlFxddkKpyvi13weg7f3rLvr894eG+KCKYetSddO0++/xkDMNTzd3yy2d3OGLAY/fMmvvQzGbk/j37nHR5yVXHP7zfb7ba4+AtHAvlcflp9078Z2PFpqGd29acq/jRtVvtduLWzGCSO/7w1Kbb9Hz7jdq3bqkP0fqPmUclJnw9sq68cHKwRow43/niOyZRZhgv7o4Adiyesghl4FlDcBoIh74fOFaKhAH2QS7ywpR6ig1+gQvI5XLbbrvtv/71r6222mod7G5lLphq7MZYV98kDY0UFtIincVgZARk0iU8Y1F64qT6Zyd17H1ctqyH2Ih5rXYZ+XiIyKoaVUd+JqiCa8SCt5/u9+3jTEc7UrTKHeLOGm4DRz6Dqt6d8t7RP/vptHnzAJQYc+f113xnh53Z+tLWCifMJt68Ew3EgQjisytEQtS3R7qqWuWjibwaz3OM/vnVexuWXIeK77xz5P8ZoY3hykroRMkpOzAJedWb9DhwWM2Bp9uwUMg1aePS9qmvzXvnxcXzX1riF5WUeWVNr+Qefu65++SddI/uqZ7oOxpb7zdgyx0291OsXhyqjmNmHuC0q3gOEFoH6yksPatLUz3lkAs2v/HwV8c0jjClCMRY54ySA4SwfFbdOXvfffYt+2x99EjjU642f17Pe6457b8///f3QB7BdK6CKYi5e7W57dLx9847sbxnuUV+/C0z/3Xy6yN37jVgdB9ERaUB3XXM5AOv3fbCWw4yJutnRYGUZD0KQErgey57Ys4/my+b/d3qwZWiHTOfX3jeno8P2KrH4G17i5qMn3nmlAU7/aX3Lxq+7WcdTMVXfn4SPpl1Fkh31vCKD95vXTaHkLGspSWVZVW9Uj16Rsq+8wyRkESGVkx/O1do7LfZnpFx0tY6/b2XU2qEUtmyouJuNcVVfSMwcweQXVcj/9zE8fPa2tpJkyb16tVr3exUAFIhVYrCfHOLqW8yhXygCqMFT1iMp6wu8i0h01K38F1bA65EtqRSoxyRrnmz8C8MgZyJWFgIhtO2Z2m2rqXt+buw11E2ZY2TlWt91gAOPhEVV9UtnH/utRf+4+574o2cetTR5552aq9+vdDQKCzkBISVg/eJoU6VBKTOo8E9TXE5wYQmri1bdbIcw1c0Irxo2pNIBccM2rePX6pEjpL0kI2AeEEY4M4u7CogJWIgSGe8dIYrehUP3rLbAaej0GKXzK9dPLv5g4kNs9+vXv7K0lxDXdjoTZ6YmnL7tFv893ptke43trL/iB4DtijrN7A/fKPERAKNlLBuLgeCkmRDeEefvcekBxqvPefBX1y/n4gPWFUCYNS99dS8kVv32vW4MQIltake3q/f3/esze5f+Pv6fsMqjfhY2e8d2rai6ruXjarol1VSA7PTCaOeuWXC07dOPfEvRTCVznPFY9PfOWl0aCKPlOCJgLzIByk7iXj8PSsO/scWPQYXk4ai2dF7DNnjx4Nu/P2Tf37sR0RExM192vc7aUevJPAgkkx61yvr6nmlxBTNv+WKzMW3uhFwxWhvwNQ5KDlq+JCf/bl0m++oeEbhyC24+W8tU16oenxpkXN1S+fO2+mgmj5oHwB/HtoWoeio4Zv+/p7s4JEbuLOkqnfdddeIESN69OixbvZonEghb5ubpL4+7RypqDGWmQSe9ZmgcMTkoMZZO/ORoBl68D5IBejI6bqpnlWKPJuKAvGt8ctKd/1+++Sr3duTTUsrOE4Nj/tnshcppQIYvvfRB87+/e8XrlgBYIuhm/z13HN232M3tLbahlbDAeBWe2yBQAoitqomNOwPHOilskIANFBZXapTGLEE2EXj7sHSW1C6+x93OS7PnBZHiaLnRkP8rccdV11n+qEyKSsJlBVEol6J6T+q/4CR2OkgAFFrczRz4rzZE1YsmbJi+az2hhn5ZRNp2Vt1b/grbBQG1eGY7/QcvesmvQZXVvctzxQF66g1ncJ6eU99U6QnXDX2rN0ePviYur479/Y9L8d5Aghh7bx89SCjDuQXSAMHU96vrAZB88IchsVdAlf1r1G0deufUQSkYPE1QL/tuy+b3kDkMzkxRTWbdyiJiUvqlZngQjhigCnScFKux+AKC89XdRCQGbVdz9d+vCRql6BYQLbbmIpUcSRxQiI0SYtej6yjU0/kqzpK8fJh+NZUVY0IFC5dNP7cH03a9qBed/xx6HfPCb3QEw+sHvslgLCv5FUAI9/7IF3RC/Ca5r03bdBW7/1nsx2am1Faum5G/rkQESJqampi5ttuu+2www5raWkxxmSzWea1EY5TgOJUL4WSJRKoJ0KFUGoXSGuH7wBmgMAeyUpJFocuK23IICzkpsNLoXrbfaBp0g767IrstYJm8lmwsvXRVj/8gO++8vers4SX//zjXS7+T5jToN0jIzbb5GUzSxYsP/wnp782ZXL8lxedesp5Z5wBP+2aWo2oR4A4AkLjBVFnHoCyBUewLiwuTg8YTL7BqpzyDz2J2VnH3oLm5ZeP+ynS/X627Ul9U9m4A4uRJA99I2GlnMvqtQMUZ0ivTJfrmpF1fjgoqQi22mPkVnsgzgBrXtY67pF3X7n/g5Y5NtVRcPXpt29sfe+uV8IWqykM3bPHbscNH7H9oHQWXjqwIBUYKDhyYIIhMMeJPrSq1doXQNn6PhuyBH/TnQcfd+Gws3d56va6YwrLnCMiBRGEI+NlSGFhDJgQGvUyiFxkBQB1STF1qjb5cCkFgTqIsySS8n22olIMJnLao08NDHOcVAxRYg28CEoC8jiFfOD5hLwiSxyR5UwRK1gcABVCv34ljjNGSBlY+3IzCZ+DdTt7UjVliKA+IDC2V78db7p/5pBfNBz7W/u9kzxbqZ79SIKLAiJQGHKcHrjlFgsnv9p31KL3nh+488HrdORrRpx/PmHChIaGhunTpw8aNGjcuHH9+vUbOXLkWtm+IxgFC6khRzDqqK29sHy5nytAIobpVLjoHA3+9yekUo3zJ1EIJgwYNgJhx7oVsOpUKYdaBIN7n/6z5ouvSL3w1pJnH+p1yPewZCEqAq9Q/qdLrvjbrTevyOcA7L/99tf8/uL+wwagpVkip50b6axOCCKIb1VJ2ELghxRWd0/16u78T7+yGYS/vP8k/DKE/c7e4jtQJmisC5o8j74JEJGqK+2e3ffH2+974vYdra35FTxv2tLXHp311v2tfpHvs5v3/LJ/Plfr+2+k+0m/rSq33X/ImN2Hu3ToS4rEI1ZwCPWJZGUl9xdUX9FV962y7nfqHi+ff/PjV75aNTwTzskLgTVVWuHNmxnCg6cR1JGmQW3LkE5XpllXVfrECFxHR4EQEbJAznG6sbYl1bOIuJ5QDXGABQCysXQugRmSUgU5a7yoZ2VjY5vR/oScJwD5C+e2pgZ2+EUMMCvFFagE1q+4DDXhM1nnAZAIDFI1hjQrTCgbeur/jT/vphlX/W7kmVfL/xgTBVRUicmoqM30GFgJpFry63rYa0YsPrX33nuPGzcOwP77719dXU1ERBQ76M3NzcxcUlKCL1RPaQBHECOegFrbw/rlXnN7hgQUAWmQfrYxTqWbZ78bKFwZkCqDRF/kONcChPYl/Q855b1X/5t9fdHCX/8iaq3rf9CJr42b+ItLLhz/3iQAvcoq/vLbc44+aH84Iy3NDuKpeMKrT/rVEKkqxI+gFq53D6+mm/WMUfepp4LfXTHvmpevRGrBX799dW+/JK5C81WFNg5JzoS1AHU2SINSurgiWyyVA4q3/PaQ6NJo6QcrFk5tmvbWwmnPLm+b35Ffkm6Z0jD9v+NvS7/af+eefTav3nzXmiFj+sNPGSooUtAUoKDQIPUFh7LShANlFZlfjzv04h0fGLZvv7IBHuAczJa7Dr33/Hvq5jSVDi0GvBTZRy97C6jvN6Ka4Cvr6r3iS4vdC3dP2vbbg2EEnF3yzvK3b11yxiP7OJR7DhKSOOnsD0Rd89YQpAoYjzFsv+xrd87c/sARITKOnNS1P/LbqftfOtJ4LKrqIOq6ijqSFhvrmXVtwjWCJyLEIQmTNWAq717y/V1nP3nNqNOv5P8JyVCnBoQo4JEuff6hBqDH4P7reNhrTmzF33rrLQDl5eUr4+eLFi26/vrra2pq5s+fP3fu3H/84x81NTWf24qrsFrkcoXl9dzUmlJSWCXPse85p10uKn+yRAtbG81+jwLYMnC6XKOCKq2H+5DAkW8KdZuf/9irv9q8YhFm3P7nKx595YoXxgPIAN874MDrLrgoXV4eddQaTUVsGEROICK0ypkvGJdyzoBC4/s9e5huVY7IQPlT1zAjxuXvPgR/DnS/Y4fu5OKMKCg0ccG/QcSVD9BYUygCGQWE2BSneo/u3nd09Y7fHUIuM3fqwqnPLp49Y+HCtztaZsncJ1sXPdvw0p9ncvXzWx3Ud/M9hvceWN59ULkYqH7+hrkAAEEkZLtMInsqfXbotsNZA1+9fMGYk6tFmMgN367v4eeNPnHY5Wf/5/CKqsyU8QtvvfjNK144Ml3sQ8mRrP4ol6y01Mp5x91/4NFjHXVcfeDjmx82fNvvDBNBRE5TAg8gkDBIQGQFBRc6E4HYQE74vz1O63/jlUWP7HnkqHxebjz40dH7d//u6XuJKLM4ikj9xP/eQFjXJpxKAY5Yg8AxwNYog1zPyqJpKLD6CD/6eUBam/JK1GanPXpT45mX9vndD6uHbruOh/25UNXHH3/8hz/8oe/7K9VdTj755P79+//xj38EQESbbrrpH/7wh89nwlVDm7MLl2UaWtIUaqDi0uqnXCS+pBQF65Mogo9ROYu1SxUgqOQXz4ECxQClIHkwrTMNk1UxfkVTab68fqCpXrTr32feefIhvxo3Y3FhMhD0RHjvbbftuNtu0rbCdtQZeGz9FCmIha0z6kkcrlQFUuLIUeSxGdgvLC4NQEYdIC5eCf84FFjUvOLfb96MoPmm7/yyMl0OqOdgDZQp0XP5JmEBUTICAxiGA0xXc59ASRV5mHDgqD4DRvUFbwVrlsxe9txdb73534Xc5mtDesINy966bVloxe9nDzx1s90OHitFHKQ+Ysg/+5oaMLR3UVAKxIpCpBymbeYHv9s78J+vGVTuKQmsBHTU7781cu+Bz/3jvWUzmgbu2OvuRT8t6mkcsdGI4K8+b1+23F36162WzGi754JniqpSR12507dP3jIi+JFng8KI7QZlu7EiIjKAgpyAtj100+qelVCn4KJ+xf9sOOPhf71+6++fNz4d9K9d9j1+tGXnOU+d3WSLwUZ9juNf0K4y+oT1w7prNirq3rr4x+2P3LLb6xZsSAFRVcDoG6ft3zT7id2ech5h4jnHdUx+ZddHF4hq7Zwpy7YbvbweClig8uBhg35+VfEOe2SJNuQukLlcLpvNvvvuu5tttlkcQgcwefJkAKNHj1ZVY8wVV1xxxhlnfHaOm0KgSsL5QmHxMmpvMpH1jAeQKPGaTISJ4KwaEg1AzqSCiT8fW5iay+6502a/vk06GljXQUV4Jw4AoARPCSqoKmlb3nL8z3/2wKuvAkgBxw8oO7pKiri17IAThhzxK6YsCIhWaBhSR7a5wstENhB1xrJjUh+2qT1bkRk8mFIp0Opttf5312KULZRU97n/T88tuQHle4fH/N0jj5J0nIQ1RlVdJB31+Q/eX/LCfye995/lQbHvETnr2GrRJukB21buddywTcYMEgbUoFMtKAQ8hVBn5jyt4ar5xyo8fvybcAQITK6+46fV/zj7lQOH79SXnScm4i8qhLVSYv0je0x00Tcc1o8hJIiQqAEBEubti0+UHrJ32rJ40eo9sgiF1np8a/57UtOPg0DZ80QUsOwFn7L19U0cRR81ahSAJ554onfv3qNGjRo1ahQzt7W13X333Xvuuefxxx//ifeAdsp7AiASyufdshWusTnlImUi03U3rrnHaBhgELEIRKgxpwZ+/2EwzPA7RW7XCQoYKAmQDpAObrvz3t9dc93cJYsA7LLlVhef/MPu7z3cdu9TyKD1+lvevvuWYKux1Tsc0XPsHlTWDSXpskITQgefIVAoubCtundxr16aSqHTLf9ESCl+iC4Mm56rexmLFl6/65GR8SHOX0eVQwlfB4iEfVvcPTN67yGj9hkYXhp9MKV2xusL33l8fu37OZ4fTZ9VO+n2heXD3xy0S+XY3QeN2WkwZyFkSGOVmLiLCa/hTfexT4n/takAFBoniBPIg6dqHAADUu8zd/VJE4WVA/jIbxP7veGwjk04kUGBKSVMQkqioPkP3JSahv6P/l4YQu5DGemaSgEu7XvpYogjGGcCT1ygBdAXSxtZF8yaNWvLLbc0xkRRNHHixH333ReAqtbW1t5yyy2zZ88eO3bsp/jfQnGrDkHkbGOTrV2WDh2gNlDPMRTC4M8XuorLUhx5Hqy19WBBdsCm0AgO69J+eU7hpdCtcvb77557xWX3PPMcwOWZol+efOI5PzqJiwi7HNKw/4tLH7m2efy44lpg3FsLX3lrHlC8xw69d9y7ZOAO/uCxrnGu3+E7T3I9q4p79wHFkvmfsY7Nscy02M0e+APyT28y8qwTNt/bV8g6EcFO+PqghsAgy8QQj8pp5E59Ru7Y69Cf7rzkgyWvPzFz9usNC8e3Nc1rnjrPvv+vpVr2/DbfGzh2zzEDNisvLk+Jhg6+96Vt4Md54V0ajcZFCEk9Tw1BVzY/+Fxb+6Q3EzY01rEJVzikEYJSoUeSb2p485W53zur7NwfVQzaPOqaRa6EVQuAmhLjjCNjHDkPBVZGakNWSN9ll11+9KMfLV269IADDrj//vtXvt+9e/dzzjkn/sBPfvKTf//73x97kzAAJ66t1S5c7Ld3pNnk02xg/MjARFaJ4tWnNV2BUogPo+wUWoAx+TwyiuruA/OoS3PRWjroNRmIIpuykT5w/71HnvlTAD6w7YhNHr/jjpKycrQuzuWKg4Kr7Ltl5Vk34XSZ+ex/l955QcliFDKQx8YveGH8sg+w6Y2/77/78R223u/TL11dHdttBrrqgz955wQPeLNpcUvts2jG6Xt+x1ewE6ZPT31LSPgQSk7ggIABcGjgKYzCUICeQ3sdOqw3fhrZ9ujF+yc//o+psqyg7d7r1y4Zf/2SvMvv8oOBB568XXmfAKmU0pe34x8h1oN18N3Wv+2Z7R7PbFVpA9fBSvhSrKu1cFHLbuJFZ/jnX2++v3PBdza/3L0xu2MWqv50xmY/u4RSaSIVZ9/79VG5yc+MeaIpS9GKWZMXDtt6eP3bfsUWhvKMDAHrpO/Al6WhoaGjo6OysjKbzYpIGIa77LLLDTfcsPnmmzPzTTfddOKJJ4pzwnEvJOpsK0ZwJNzRES1e5De3MhmwB8hqbQa/ECwqHpB3qT5cO/HNE/aPCDvc9YIp7ik295U4ody5vG6JPAEQKgIqK1q6ePl3TzvllUnvAygG/vW3yw/91h6sDohEilgLIO6UAyBFaRnaW6OmhoZpr8+79yqdWuuasOOrzxekwmwymIqKjX4O+eoQzrM09tHzJk6/A0X71p92TRl5oLgp3ldxChK+Uax8isYSg0QKp9rRlJ/z9qKHrnlz8UutpkxNc1rIen1o5IHdDv/JLpW9yogJakEmlhoE4GDQaXXjTLE1nWBq552jiH2hzgWyJEPza8666lTGAqWq7XeXy0wBLsteKqjMHj6UNx9T3WeQctaoAkLkl33r0NSmY4vFOKZ0RS//z2el/F6eI/GCrgtxI7ggKysrKysr45+JKIqiCRMmxAtOqvr888/vvMuuxGxU42bYShBSzhekdjkamgIXEUOIoXHFctfU5QugEDgVj9jBSGtrIwPEMKk0Qv2qFsJdZ5YqIwcXoKiC1P31iqv/fMstda0tAH58wEG/PfXUgSNHY/lyKECGKYydhs7jVEFTI4j9sm7dv3VEt50Pb10yKVzckMvUpHv316IiobhD7ZoO3gi/Ujt14qSbUJz673dOLCePFKTkEic8YS2wuo5Sp94vCxWXB5vvOXDM7gNq59fNmtAw/pEZU+9cUVQWTP576/s339t7t+Ix+wzZ8cARZVUpUQMlIrBGBEA9EAnMmk8vadXe4yHwR0eW8HVkHXnhAiElgbCCLMSDY3gKEjg27CCek7gCXIXJsXoREasSIoYnIMXGGg9SVVW94YYbPM/r06fPihUr/vznP997/30jhg5TkBCgys66xsbC4sVFYQRrkFYL9SQNuC/fHV0pEkkZzqG49+LXHl583mlaim3/PUFsijvlmdYu0tmmXD1CB2p6Tnzz7XMu/+vTr40HMLhHzwtOP+O47x6OXB5RBAGYLRtPVo5EO61/py3nfKop3VyJwEYlgQzu63vZrqfk5+gi5USPeOYvD8y4CnazttPuz/gpQFnJGtpwaxsSNmZULciIUqf6Gll1Ur+o/eX/zpz8wsKFb9Wlo4wECFsK253Wb8eDhw8Z2934AdTrSutI2u4kfDbrKpCuCkiBYGEYGoDYgRghqQ+nUAfjCwMQcuy4w7MZZQJZYg9iIZ54G3XAc2V6p8TNsDVOW1NSh0KuY+7C4uZ2gFxGhAygnnhkCVAYiy+nYa6sKik27fB6LHnroUXn/kzKsd2/31KXIsp/yY3/L5bEiwjsoyRdyOVvuPuuMy+5JP7V4bvvcfuf/5IuKrVRkxI854E0Agjkf5IJJ0WuWP3m9qrSbL/B1vN8rJSSFKxxMtr7zUs2v35vtK244/sPHzNo6wJToHF5eeKnJHwldC1/KRABkUpWGArLCoYum9167xWvzXxmsTYEakxOTD5oPuWKHcfuNSxVZgShoQAaJBdnwqezrgLpUCUNFClxyhbiKZMQBQrAI4AFkXEQMFlEgfG82GcXBRwTfU0WLOMa8VhsVQAjrrBgob+iqVjyLiUMYwopYywiD6yhHxLIcx9SP/7cKAQqqhw5TYnnGwKcA5TEgdc4Ke5T9xAvBnSaViKCxyguXjDvg/1+9IPJixYDKAMeveM/O20xIpSOQlSfKqQUCiMABRLBkfhEq5YKXFxDHrehak8tTtUMLOrZLzIIJFJiJYpLD9c8Bn7pK3chMwXdTz5i0FgQAoAs8j4CUd5IwzsJGzakAopjPb7AZ4LREFBBShTdBledcvV+hda2OZNq7/rdi4V322tcxR1nvn1nyYS+2xad8qcDynr6+jV57CV8haw7aZdPQhHH18GkusYK1apw5DxlBUgVq9VoRep8NUoqpKyxM6dKcV+89YeIEq+ydhDX0hIuXZxtbQNUu6q9daXrudY6gBI4pMhXP0N+vmNZ3Tsn7uvlsd2Dz4dFxs+VguyX2bqScuirbx1bIwEJUOohp+dfe+3f/n1Hey4C7ClHfvfck0/q3bs32triZiK6WnO0+EA/NEshwIGYCyReFNqBQ1LVFZY9A1rz5BwBGBqB/EiXUXuPf/wIdfdctM8D5259EDgRQk/YgHCFcMGMhrefnv3CjRNtR2Aiiep06FH9djmq3zZ7jyBmNaRwDK/rwpU4g2R9Dzxh/bMhmHAIVCEGn8cbEjiKJ7pKwIeC7BbWE8B5cQtdhWNRsBdLyawnNG5BoiqkVhyWLKPFy/0Imgkd+95X/S0oCREbgi28eej2jjD86tvLho3kFvu5zvrHbjpv/JRYchaeh/Kat15/7Yw///n1994FMGpAvz+cefaB+xyAjqac7zLhmhlgYWvEk7y4rAzuz5XlHNtu6krZWcORqThiDt1xL1x752tnYuAPW75/XbELNtasioSvKRHUoEBWC238+pOTX7539vwnc9nSDgmD1KY49IwtttprE6+8SEkCJSBuaSKUJGImbAjatmKVI2JnKFK3xlnXwhYEE4KFvI4PHYX1oHCeGBUvT5xnA/U9EYVbn7MVhSV15NDW7ibPDJYs9o1qRpW9r9x+k0LAQhYOJh1UgxnLp73FXvHnyXj9xK1zVKDIISgtOHPjTTduffRRsf0+bs+9Jj344IEHfFsLKwDJRNGaiUqqGPI6IMjoqKFUXeXYKDHpZwmwfWQrqkQg6MKo4c6pj6C48jfD9y7RgCJK+jMkbFB4StAUvHSqPLXz97Y4794DL3x9r8oty12x1Rl89xnTT+p3w2t3T4waQqtk47I1Wf+P7oQNgfXvhVvk1TlWES/w1VvD6JBF6LnAmnZ2+YiLU6uLtSngImd8gfVyy2BKxC81JCDo+utOL6rsXL52iamt83MWac8SyBcTdqomf3U65ULMFmCn7JMJ3v3NHnb6MrfV4G0veEzCFl5ZTUr8aSZyZarZ6uUz8aAZKCqbNfeD755y6uQP5jpD5b7/6HU3br/NWORzThwbVoDjbueftIfVMss0igrpovQmQ206TVAjBO4KtOuadmS2UKMqRH+f9vwZj+2Jwi4LznqkT6YYABJV9IQNiwI6H31OlZQYTtWitb7j4evGPfO3GWVV2cg6r9Tb5YQ+h53+Lc46MnFGR8I3nc+eygnCuPdVDk41XoWGAk6tAHCACCCKropeqIXGHS3ithZQVY0/qVDEW4s7l0DFiD/j+j++eOAAdiRquv407mXX+aODWu38QQGoeuJFBiven/TigGqvozneswAOiEiVPUeSb6x7uahPy+SJymKJBOzQ1c5HYWNbH78hKmvDhOpH/yMrT5jmCoWZc/2FTb6DZtsVbJQ4RwqoiIp+ZYiKKluFQix8zvQfrQpeMAeFNkhKLav1rfqw4SeNQlQQQixUIRawLJZgI1gB+/CKLr366u0POXziBx9Q4J1yyGFTHn1i+513QEeHhRo1sCBLSu6TDlNUUDAOgtChwxbKq1Ijhrl0xijMhxtCfB49KxWl1jB/xov/RIif7vz9bpkiIsoTfZnswISEtY+mulwXQ2BWYeM4JWW9Mkdf+K3Lpn7vW2cONtk8NUUvX7Hkl/vc+vCNr4dtGqkAEcTGzzGFCFSw5qHMhK8Dn23CSQIWJXEZJxawlEO8EqOG1IUcFVgVROoAEkAhnmjBFESFVAQ2XsR0RixbIUuipEpa8DRvhR0R59oyyxqYjJAThCzWKilHUBZASYwqwQpZUgisxmmeUEQ5XQR1KmRFHDlhcb4SlDxVVTKA2IgAT4kFnkbCzkGEnKcR1LFa7fTs1oJj9hEfU5VJNYTVFfVu2sRU6xJTApRlKdurc/LgEUAwnXoMX82LmAREIAIpmCp3PtRFkAY0zXmLi4qJ8iTtxOQoQ6SftBEYIiKh+F+F50A+arpNn79w/5+c9Ourr67vaBvao+e/L/7TNX/6U4/KatQ3QmCgagRGYeIxfPwgiUgCCY0ij0LPbv7g/vBTndEYWimV8fm+IaMwoKfmTkTjnQg2P37UHl7cDjpJZUvY0KAP/0wMeARDYEPcfUDlQT/b5Y8v/HCXnw+X8g43i54+f9Yv9rz19f9OL7TBUtwQrYOUWYlhNFkp+ibx2SZcOVfgJgVZQ75TRjbHVIATKMh65AdKThF1KWQ4GEecUhBZViLr5aACUYhnfbZeyBbkLAXQtHKOSEnQkQZABKvEyuzBherHzSMd2IEZRBAiMdaLQICJBd0sQBywGGVWIjhWcrFqFyssABIWjtM/lDxVZnUEAnxHhpQA+1Fx9i8KdaasqarGmWviIp63kGZMpygjxX0Xv/nU4mfuzs2eRKkUqZBYUktW19kLLc01m+3mbYKSDrz/t58gXx+ZtBjPRK2q+KS/YqsWVmAhlsSxFDgCgtSd9/53xMEHPDbuVQAH77LLxIcePHz/A3RZnXW5yESgcM0H5pDPNGpb/27eoP6G10KEUEEKXDP1ORT1Q/lWo0v6Khmoep0Ro4SEjQAiFcAZV9TPP+xX213zzslbfL/KL4JbYP57xps/3fpf8ybWig3VZYSiOFNdkynqN4nPrgtveH9yyaDNKeAFEx5dvvjdrQ48PaMV6jG4be6z4+uWvz1kqz3LhmxpjfgwLAYKto1Lp0xZtmBKRd8BfcfspGoYKZApMAIOZcXSqeOe6eBwyLAdedgmRXBiYq3wXNOk2bXzJ1b1695t5J6W4ccNpsSw5lqXzFo45X0v4/XdcmcqqSJJA6x+IAA8dS0rZrzxFPnB0F0PMJErmKwPJQUDrESkeYJRIbWNM9+dM+W16prBA3fYU9UPjed3ppr5a+XK1y4VVQUQFnTyLMq1GV+MlEA6lj19Q3T3nKZ9MPLS90W0s1/ZOg3sEoz0Ofj/Fl96UXYhlr76cM99T2xv6SiS5Z7kwJ+YiMAEFsTKFF5Ft3xDy8E//P7z77wT//bZ6//xrbHbwHW0hnUlFBiIwANsl3jKZ6LcZvIj+hX36AGJ/W3VL9mTmPDastmvTroNqZq3jv0/4xsHBatRTh5xCRsLCmYFw8SdyFwRjvnLgUeek7/rj8+Pv3xBiU+X7/F05Z7euf860i/yHYVMKf4cusMJGz2f7Xwu+u3RS6fe9/qOtPA3B8kNFxgf8GnJlOfHDSxb8ud93esT3hu+3Vs/3j6VcwBF7Bo/ePeBdNWis3Zpe+7RJcfs+8KwElq4GPFCdr7hzV8d92zNgMLNl+Df548fPoYXzgV8dqakDS8ct/eM48e0PPvAlM2/89bYID/zfVa2pKTtz568z8T+mzfff1PbbVe+XtZn3q3XCxeUAHVlwKR//e35im6t915dd953x3vZSY8/lRYLEoW6TudbDSy3tL5x8q5Th28XPn1rx+kHPr95tnHKKwQhxwKz1jTKuqxOR1tbNGmaC9s8X+CCQtBkxXqtK7zeyA07FAzAAhaIutbn1w3q8u09dvhe+2aQIsy88uKWNx8sqqyEMWIyHza3q50RUo58iA8v5ZVVPfboo6MO+s5T77wTAYfutsfshx7+1t47qmlSUHF7cT7jKEoZGwDep9rvrl+pIF9wmw5Jde8eL5A4XgsnhJ297L1HkF2B7ptuVtSXgUA7czkSEjYWSAEIyCk5hbKqD5epxPGX7vl/k/bvsXO1hW0c13r2oNvuu/TZqEXjJidfYXJswgbGZ5twD+HsM46uOv3KHV/K7/C0EmVB4cyT9q74/jHbPZPf7sr7tl44u/2Wtyddc6469RyV9d9k7DsvbP1cuNOVj46dtCzdB29e8t2cMonWPnVP4S/3bPPua1s8OHnsf5btlWvP9u5vlJzpyL6P8m8dsN3rTVtece+uDUvb52DhPX+zSkYdjDf8Z1fumG/Y/oYXx/zzxeq/nt189VmwIiSwvtcNLY/cvlt709Y3vbbTONftH7+tO/jw1voFLBwyG4BFRJWFJl3/M/rHG1uuWLTT398e8a5Ujhg97TeHsWsTI5771GTsT6Ezya6zqRDEQdQ5CWuXpia9m47yARsggMepdngU2eXNEqCoVw+YNHNs5Px1XNpnQnVpu8NZj+U7UJ3Hu385s+WN+1E9mqNW67EoIBSShoggAFjAsCZKWRSjtdD+iz9cvP9ZZ82pXVaeyV71y1/dd80Vg/v3R10bFTIEIi+fDhmmAC58zL4dLCNkKKtqoABslBdjR47yq6sQS64QGTARfTEX3CIWp0Yr8QO1k9DUdMEmB1CKCQAxESf9wRM2JjqXxg3BUHwBk2FO+17Qb9Ne59xx2Pdv265s01IRvHTVwgsPfnDKy7PVqlir4kTjx1K0vo8h4StkDUy49dJFGHjciQLfkRJ5S6e95U/AsJ9faQq+UOT3GtTrkh/n7r1CLYWG4Kd7brZr5ImSg9+t4rDzg9fe8VjYUd0Vp+CkMd1Gb+UosDAmyAhnFI40aBqETY84lfyylPpc0aPkrENk5kKhKKIALtV99Bbkl4PzDqnqXQ/JvQMSYogatcvR79eXhdkyck6Vqw/9cRoI358I5gBaANRTUmprbWg959ZNXrqnqKo3E/tEw/74L32isX7GLLYAq3yhHBAlxKVSpGCFEgtZmTc3NW2+BmkYA+qKkweMMGxZAVhUdu8HAKRdr68ul+1/XqD2FExL3hs4ZLMrr2x1KG/E1O+dsuyZK1Fa5kWpQgDA+eICMgCBlCmMUuKnSufMXjr28O/+9bZbAQzt23fiffed8YMfuXwOhXzn8ceJb4yu7Ln/2bsHTxAoKGLxO1RtwfjBiGG2qvwL2+wPfx/wFELkqT424zXM+xf6HHTKNt/5sptNSNjwEBYhbL//sN89/N0df93XIt82rfWqXcfdcPYDrflWEJM4QFT99T3ShK+Qz14Lz/uuaqcfGs0wKZNV681+/YFsDzy2d3XNXOS37+tWLNQZKBuIllS+LDKR57fPfmHBf+92771lF07MLYYthq/qqK3+ZVT/9Pg4uRlQBimJgJg9vxxRJhOQA5gVaT8btbzhOcAUCp7RpoWT77pZxj0rc97sqAOXx9JE7MhZoNtm22UdLAuLVJf1eRtYNvf9UhxmICZO8GC2dUvKgSmnHxk5uACpPChEFbCifm6lt5nnjCHzhZxhNVAQRwDBeaEUZs5M1a9AMfs2BXSpkRHgUa6p0WeIQ1lVH+QLsOsj2EVa1AKXcW55oXzzQ0b8JT3x1yf7m2P5OefP2fL8Lc95JN2rD7xiamp3KatsPWvBvp8u/vsdt/z88svzlgLgrBN+cNFPzvDTBbQsNy6Nz9nuTAD2yNRrvjwIRg7nbEnqs/9ojVACOVgWlfCol/6O8p4HDNi+Oxdp0ssk4WuHpwZklQKvSI/+5c4HnbDLH4+4S6Jo6oMtZ915xwVPHtlvqxorjhERJVb8a8tnm3BWaevVn8gCnqXIsBY1evki7HzJP3NEpJwqGOepS1eURFlimnz2Ue2X39X3jquzux0WpIoW3v+3+qceAJEWQg8IiioQu2SqgDJUlSJY41CkjDiZXAxbT1iJDKz3wUPX1B3x04oLj+/1o19li7uvmPPO4h+eqZ5CmEkdYCIXGsfwiCjv8gQ4zRlwRDBdBebqXAcw7Ly/orKbQEBsBFaRHrGNgVM2RPp5umasRqewu5q2jsKs2anGDqTToRGj0aoFdiKQyTU2cQQyMKlyqFs/RoUIbFVSAXJYast2HLPlzY/PuuSghnxU+QEmn3JA0RZjexzx04pNRhjOomBR6i1dWnfKz89++M3xgdXB3btd//vf77nz7miudznjvFQAC1mZILZyUrLy2P53mkKAs4WCrS4Jhg7RbBHii+HLu+CABXwGKWZ01CO3EOHSnwzaTQHoWujmkpCwYSEEA4KDGiCTrnYXPn3k6w/P+seRr1T3Lb/4Ow/vevqgY3+9pybdSr/WfPbXG1jPSioka2A88RQmGDOwdg4yW+xTWdkLAmGQWiXhCEs+eKXu8rvGvvFA1RYHW7/VSlB4qBzLARVkS1Nj0fzOm7rPcRbsKTkCCYiEJHIOJLBsPIUliM8e93ImiqJo0RE/HXjJyYN+cZWaiC0talpmOqBEEJCFAermz+nWrZ8qqSO0NTFQ02cIC6xRBTxlUZiyigigHoMqdznYC6EBHCwLOVIIo7MByZoSVyVRrBVGgCpamsPps1MdbWFxxjg/6LBhOjJRlyq7KIr9jrZ6j0EpkBfA2fWTWCUapinIq5rIZkJaUl7aI7XVla/Pu/eKD568PVuP3MS3Zr1wPO28Sd/tD60ctf1TM2ed9rsLFzY2Azhwr72uO+e86uoabaolZhMZ47wwIMMd5AwT4LjTUnIkRoQULu2JAqJEYsCRIQ654HLlpenhQ5HKsMYdZtdamrgCrLjj/RfQ9Ar6/GC3wVtqZ4+bhISvFWoKpCkAIEcgH8YGRTsePmbYjL5///XTbeNzb/x1wYxxd5x5/X7V/SqUVRF3PktCUl8rPvvZ1hY49QqGAiYVJjW86Y5H1ACLbjo/QkjkHMICELVZIqK2fAikuw1v8TtMWFJoXBFe/K98NwCqlC4//BQ99+/h8mWs7cLtKlZRAIly0FFdGhrxSKDkCGB0oM5zKeOEAa/PoMj4XqGozcvKXdfnq+C7CCwKMUDL3VflnfW1PecXWt96pQdQPHpHp+q7uLcfeyTF3foW9sfMfQ+JWpaSlxfkWDzJWT8idKqerOllHevLkRKUCBAV29zcNnVGKmzXdCZwyiioJ0FklFZK1hHYaVs9W8ADeYwuibp1/SIEIamJAOOHHplWtORszhtw7G/2uPKx0v32zGfgilE2YcacO/900k9+eOCZFy5szFWRf/UZp93z9+uru3VD1BymuD6V7khH4jcG4TKTq2RX5CQVGsr5zlGgmuJckddcwQ4QE58wqFWJNLS5yoqiESNMqojBsabO2uqpaAAQWiV/6Rv3ohR/2vKQlPGJhBIXPOFrByHVleBiAAaRR2BC92FVv7v7qL1/ObwQBM3zm84eePPkV+epzXU+7dda7U3CBsFne+HFIeUKYiTuCOkV2KZSFcV3Xz7vu2ctG/eM2e+7qfao+cX/VO3w7SG/vqFmkx2qhmDCwBGZh67zZ09vPvuq6gsPKNz/SEgmCDHk5J8/eM7fx/fonb761wzP3faHYY+8Xd1tS9/mM3UtpCwKJqSscktUUlDLYVRUWnz6gQuP/fXy5iVBpr/e9HPscTDqIapMzhBngdq5b7QfnML3r+Lpc1r/78r0H0/P9B4OY0WkCiAIREDe9rfPfLJi2MSyXuaSE/3sgPysx1ueHLfP5HalDKtTWtOOHxKLhiJO9lLb3GynTSqPBKZYOxt3Ej58pyiBrEpzC6cQGSh7XZ9aDyitGiGD4BU81ba2inTQb9Mf3qjH17a/9fgTjz184avT57bUw0tvSrh4s6DfuGsnzn2watfv9hu7V6qkW0o8mGKYDEwANx5aarRYJcuSNrIQnh9mYY1mOzJirDIZpybnC3V01PTMDh2shukr8AYEUNUJS2dA58FtsV/fURDtTLtYu3tKSNggiQUpxKNDfr7NlnsN/O2YRwb26XXFoU/udfaw7/5qD3DigX/d+GwTnj7+9OIRY5UIAFGUcr414fDDTuvx/vZ1z9y9fOJEzWQGHvnr6p33y6ov2dTo52YteOCGlof+ZgfvtPmUl4orhuUHXho4FHzxSwYf0LB4xZO3Ln3tLes11px+QWVmmIOU7XaQ6TFYDBt1QqrGFO93WLT1tp76Bjr2r/cs2Om6Za8+1u59MOTC62p2+tHMIX+FlORRKO7ep+SRf4/+1t7LH7h19gv3mvKemz5xd/G3v+1FvmXxi8qKbvqDDBwEYTAF5UO+VTu/9al750x8jmVeee/NR9x7Qd7zDTSlRLqmq6UGcQNTAE5WrChMnV0MwKAtJcU5+YQ1XYVj27ZCACYYYxA5kvVeu6mW0wYgVyh2jeCCoJHLq55qKT7z9WVLWxAY//StN/lO9G6v2jDMQCctrp32t4X2b0F3cI9Kr9uo0qFblAzetLrXVjAEnz0j8DqcG6425+XzgQtBObaeU3WeqkTSu3dq8AAy/le0Ou0BDu6x+e8BC5HaZ3BlHxAJkQOSfJ6EbwJxWYeBVcr036zPjUuOveKsB1OP+E/9efaiD5rPuvoApBB3KV0LBSAJGwCf3aksdCGT8WCU1cF5YhxbOCMMgfPFOHYgeEIET7gDNlUwEliAjWVJCYka51kSGDGOLYNCOCNMbIxCWUGqyg4UqDoSVs9SyMKGNSLjWSkYmIg8YpiCQ2BUHaunEKG8J2kLsFEn8BRKYI+1oJpilXajabFCKV+tZYJaEnIImDtY0iAiETIkXWria3LKBMpCQurqltHkWZ6vjgMDo1qgT2mzVlQy+ebf5J94lEuw5d9fh8RWbL2w0v0lqFijRnyyKZTnw9bogutvuuTftwLoVVP9pzNPP36//Qu1tStmvNgxc3Lr/El25mKbh0nBK8AYWAcLOA9FA6A9x5b0GVZc3SdVVW0qexZV9TTZYjUBWSCfz7vIdK80Q4bDEMWdQ7+CB4hVgVr/9jMw88Y/HPLQL8ceyKLEqp8iO5eQ8LVDFUShCEF9UXfPX1548Q/zUr4p2bLw05uPqOlbbkxyQ3xNWP/NRjcC4jZoJAw4gC1HnnrLGjBlSr4c2Y5gDRRSFUXlM646qe3lce3V2OWq12HXlwlXOB9GLAsQeS4F5xAU0K370inzjrzg3FfffRfAjsOG3XP55b36D0ZTI4IUUhlYUuRJ2utnvb/i3fHtU14ptM6jFqAFXggGyMD5sAKx8AQFIOiFoP+oQUf/qqxyUK5HhT9khPdVN/mM8ODSSYfcvhm67d907F2l6SwRdSbFJy5HwjcVEfvKfybe9tP3UuWcy0UXP7Nfz02rBBmDUCjgWLqCkGS6bYwkBQefTbyqzcIADBB54IamcNb0tEllWxTBmnTNIKiFE2CtFE99KcSA4TwhaOD8UAL20z0mvPj2Lj8+Lg8A+Pn3vveXs37J7KOpHiCEeYQFIEeUDqNU1Yg9qkZsB/0pQoso0ny0fMGLtdNn5qa80TJjXsYhEKiPjAVWwHtzMh3c3DZqYNHgbqACkP5KDy3n68PTXwWAVJ9sKh2L1a+y4gkJ30hUzY7HjB44esCFm9/Tq3v2vFGP/W7yQX1HsopPBIKgMwC5vp9NCZ+fxIR/NhqnQxEsgVXR2KwTJ6cDsSn2ohRQ+OxLnwBRKwUA7AHGQ/T55FDWHiTGsiMFyLDxUoYy5//lLxfd8S8AFdnif/7hooP33BMtTbAePF5p/CJO+YKAVfP1Vj3f+WA432lR1L3mJ923akbUjqi90Nba3pbntrp8/ZLGRR80zZqAkVsU9e9hifyvfoqfUn1uxXQQzh2wo8erLfglj6aEbzDMUE31Gy0XTznyokMeKfXSf9nqyTOe2XnQzgN9VYUSJcIJGyuJCf9s4gowJSictrbqlMkBM0hFImvgueizPWsFNCWRhcDPlIIZUlhP/riyNXCsRqkoXbeo7rS//PreF1/0gbGjNr3+N+dvttXWWDpfAt95ke+6jJ+qoTQQAhHlxTcdoW9853GYknwflenwPOv7lrOmsqyySqADYLRHrj2q+SMN6EkMD4B6X7Upre1oXFA3CcE2x4/+Fq02Y0jigwnfZAhEENGgapP0b5/Y/4ofPOgK3p92eeIXz+8/aucBYF63zRIT1ibJzOuz6ayoVnAu76bODgodhbRa+EEEL8oj1hL/7Je6yEKQzlRACbQuhdG7XkIAMyko4sqK6dNmbv/j4+598UUA39ll5xdvvHmzTQdr7WL4aRb4IqsGScxRhxLyvgmDEqXSoOCRClGb8Ws1FcCwF+Uz+fagpU7bW9CSz9W71upBfr9+8AIwC76S/DVd7QcBbn/vJTS80Kf3NgPKu3/o1wkJ32jEEQsb30ivAeX/d+dxhb5cPMi/Yo9H3n99JiQ24MndslGSmPBPQFeqsoCEHIHVhVNmBrlWpItSDh4cPAMvWKNLnwhQ0kKkCDLlkLWjJ7pGEKAQg7gJSRiojSwqqp946pktjz96ztKlBrj+N7998KqrgqiA9gJ5BHUAPhqh8XwSpK0G0kHIwwNggACSYvFIPGIfno9UhixDIupdUTK4DwKKtxKLrqx1BJ2nX6Eicv3UF5DCzjXDVzVZ6ToHCQnfXIgN4IEAz5Ff1NNc9uTRtR80lA6s/svOj8ydVAux4hIbvlGSmPBPhGLDABWCsbZ16qRMfaMlVhGNEVn186cjncnnDIg66Jr+3ZdHVFAwbCUkC4qCCF5F1a/+fMmhv/qFC+2Amqrnb7755KNOQENbawZworLan374ELp+gipU4g+IiloKRUNYhXUI1bmOQq8+/tAh7quPzpnOBQ4wqDXfPi9cCMYuPTZJbHZCwsdilIg4VeNuX/pzV5MrKe92+f7/bV7S7hjrR/I54cuRmPBPRUEKqMsvWVK8dEWhDGy+mEaIAkaFiGALHbH3uG4ghQZqYVIiKK5qztmDzjz1L/++PW+jnbfa6qUbb95l221s0zKwLWkj+QKmjwAQC4EANtaFYY8+/tCBhs260I7obGKjoro0aoPWQcfs0HOEcV/5nhMSNkaIheApBenudP49hxUPtVxfedb2/2ld3JhUbmyMJCb8E+hKZCaF1tfLrFnEKU8MObdS+XzNXwRSVuMHygjz7RAB0VcnhB6jBCUF4Jg9KMp7TJkzc4ujj3z4pVdTwDH77PXsdX/v17MfGhqIyXqkKaUvtDujcdqbdticqyxPDx9BxgiBv8iM4At9TQoHenfpXHSMH9J964FVPTqFbhMSEj4KE6lRJngV/YpPvenb7f2X1nT0uuS4e9oaCut7bAmfm8SEfzwWqooQGhVaaNKMImPgw0RMDBawfr4XlMg5k8mSAVqXQfQLbORz7E7gPHConAuUybPNKK94/o1xo444fG5dK4DLf3bWHX+6FPkcCq1QMlY8yxQxfZHdKUWZXCpCW5TOdndjNiPPUCx091ULuQAqYAgIBvqvBa+hFVt0H5ERRioJpSckfBJxZydmMn1HdTv/vqOWN8zLTTW3/OYZLSCUPMSJJoGsjYPEhH88rAQggGDqfGHbKdD5ZewCEQXF7GBjadWv0sQQwSugvYjypSEXgOp+1/zjHwedcgoAoPDUldec8uOT0dLkGKtFG77w0THQlslpvqZUtxialXUrRk5xOQxFkGdnvosybN1/BK9/+ZyEhI0DIttneK+fPrR3IaL37l9x19+eDZiUDFFiwjcOEhP+8RDgYMMP5nmN9R5/cfu2+hZTZT0VcBbOhfgUNfW1AlNRDmnrobzkV5f84Yyrr2yzdkSfvpPvumvvPffCiqVi2AhB1kq6tlhOm1HD2E/JOr6gGCA4YFl7I9rmwx89qqxHck0nJKwhpMYZt+WBw3c5rU+qjV+6cv6UVxdrkte28ZBIu3w8oorWZm/OQpsR3xoh+XJ1k8zkUlV9SIAQGhaQ8kW+qqQ2AoWeTYVBu9hTLz73zmeeBvCtLbZ4+Iqrs34q17Q4wxARFohonHn/BXdEBAlFS7D1CD8oUSJel/VygHQlpS9srIOphy0blK1K2oMnJKwpZDwSq+7Y87+9aMZdC99bcsnOz1y7+Kji7iVftZeRsFZInnUfj0RR9O5MY9Rv93Npw13LR1/wpYBHKK82DihAohDsERGDCUT0Jbbc9WJQrCbKxCBKUTZfTHv/5Ee3Pf2kOD5u/wOevenmbM61oCOTN+jIeMKFQJiZ9IvulIw4S1bd1sNNpjRvmFQtr9NEsnjuIUB9RyNoLjRVnS61SRg9IWHNELJkmcVYwqlX79M80+vfjy877T5BtL6HlrBGJCZ8NQQS/6saLZ6fCQvw1JZQpiBqFF/iRUaiHHUfOCQvkALC5iXwAdUw3UEM0i+1cRgl1o6U44jIC3IIqTSzpK1hu6OOHj9rNkQuOfXEW//vfLQ2oUiLI1JftCivRlOW1Mjn352QYWUiNGvBhSNHBiXlRJQGQOSt28bcBoAQgDm5RkQ5lPYuyxQH0CQhPSFhTTDw4REb9jyUdCs/54UD6pbS8vH55257WzW0AGChUCRL4xsoiQnvRAFhZYc8O21ooLnzYawloVBVxcmXwokgCr3SCnRHxmDp5FfBHmk66AicRiHpl9u8WLhsW7q9KIxcY6a8z9RJs3c67vj35s0vIu+6n//8lyeeSq3tEBs6ZSdOVJyKxP98ASAuzPl5tHh2+CDTs/t6/uYIBCxoXA6LXboPBRMU/KVWPRISvokQdJOdum/9i34ZFzx40eQls1pYncKAIkISVd9ASUz46hBIjYvCufMz1kJZYQwJCXlKRr7ES+FZgZdNjxzrRWh69XZE7SEpwEbhCb7UxoU8IeUoG5JfNWDc+Je2+fExc+tWVBQV//3C35/y/RPQvEw9GxrDBBTIw5fbnYIFRfWubUif1IABZr1eQiQAEavObq4DY1hRD1WCEieaqgkJnx/2Mj/43Z7BIDV578ZfPcmiUAIMEi98QyUx4Z3EOiiOoYvq0ivq4Kcjz/eFAYjX+Ykv/mJQXjQo7jZiGxAKsxHW12raAR6cz/zFNwtWECCGihyV1jz5/HM7nXpyuxMfePyKvx138AFRQ0vIIBsEwkJAIJ1+6xfeowLOtVSUZIYN0w3h3iaQ6gLXDMLQ4h4aJ9PputO/S0j4eqDEBmJ8/sHVu+daWupezo97cDYQr0olXvgGSmLCOxEoFBLlvTmzbbpI4TwXxYFj+pJhdBERUd9QlEv3H4UCEKB9/iTfKxa4MNWgjr7QFgWRIPRzpOJ1oKLiwSceO/JX53hAkaEJt92y3XbbobbW0yiIWDhSkSASIfliqwIqKBChQO1eWAiC4q3GGvYIUFqfl5AlhSiY6vItYAyo7GZUhfR/L2yHTml3BziNYK2NNXAUse67iMB2Sd92qdxFXW9IV0uVzgC9rnxfFegswpHONUMX/3W8EdH4w25l55yutlAf2iBW7lcVGo82AuAUolYBqxCEsZasjeAUAhcfmHRu1UE6x7Py/KBzcKsKKlYbAAAHjVbOwqRzPKIqTts1H+Kjutmu64Odp6rr6PR/T452vuOgeRWEWoi35VY1p1l1IgSQrgyGzmGoAg6IumxIwlcNxVqL5IZvOWib0wb7Kbr15PFtDR2iApesTG2gJCZ8JaSkdtFSlpDFgVZlan/hlO1VLzA4klyusveQxm4oYyx+7SnWiDX0C1Wg6HNvkIkcrE8tmVwmEq7od+/djxx97m9aCx39+vZ6/9Z7Nh8zSutWgDyFCDmAlEji5qFfYPwMEs+jCF4UtBradDj5gRKBvpoeop/nSwNIoK1RCH9wWbbYfELrY4obohAcwOJZY/JR/v55b9wy6YlrJz/x2AevL3Etjq1jVSAumHcCX8ACCFhAipWKsRq7+nGejyJSQGEZjmAAowDgCEJwDEdgwCiEYAmOYoMFVbhYllpVAQs4gtPOaREpDAAmx2REHZMj9QShyPnj75nUutiRskIJlqEAKViZPlzS5ykU1GkiBSLQLo2D+DQZge9AVjvLCzuPS15YOqP46hNa8h1dc5VOjChEWeEpSOJDVgVUOk+aojPKY6GOIFBSvL1k9h8mPeY7R4qCQWyfbTwPIAhDGUrw4nMSB6UktifwHbzEgqxDFKRedMTpO0fpyEu5+69+i2E0MRQbKkldeCesyOXb/FkLOwLJqoWsXXVQhmkWLUOmqvdhx+ZuvqP1xTfbjphZXNmXct3EzGZX9DmrsxVkLHGpbUW3wfc+/OCRF5wPwqDevV6+4rreg/tiWbPG1pWI10ao23liOpywYsSmfk03KJwqr4tOJp8GIbbK2hbmYcpLiopVtTPa/5FPEgRgRaAKpgdnjD/iyctQlIFfBjhEEeZPrz3nse7ZMiVI19REeKUzCSgYRKrxbmOH2SgxwRGUYLrc7M5zokogFlUm7fxzYOUPFIvSaKwkT4AnCiLLUCg5EgMWKJCXaOLSuTv0HEagiHRZruXi9x/sli4fPbY3gJA1EIWSMnV+4wpSBVOnS09kFPH3tbKrW/w7R3AMQOPVGEudKzNQFURomxx3BFj9K1Za+TFVipdxKD4A7VpmUQUpPJAAUGLGo1PHP7Zw0s+22rsIXRrAXROdeGIUTyxIoVAWWCYmQOA4nsiQaBLJXQfEFzeDUNm76NhLd/rPWW+88vt5uxy6oO9m/RNTsWGSTK66UEXtMi/Me8h2WoAvs/j90ZfCBQBrPhy6/eFNRSjJYsETNyPrtekypmJAPt8GQWocW0HF0HsffODI8871YMpLit64+sbevfq2tdQiViknsFsb4wcXuADiXHU3HdibHIGI17MD3gkRrCqsBXHAhvCJ/Zbi70FVb5j8xBGX7fi9kbvlTrxFj7lWjr2u+cQbn/7xP2rS5UpMRJ6DcWKgZMVE4jny4sp7kUjVQlTVOLGslp2Qi0icKkRJREkdgQADgqoyQVWglhQEEmGoQh0hDzUKqIakAo0YjuBZQDTHKlBlkOq4hVNOfOkWNojd3b6Zcnv6naeO3ccSKcMTtQwhVyBHTiMVu5rfHJFGcZUkqWEyDsZ2BiQckwEFjgJLnouTIpVFQWDmAhH8osjjWGl41Tm0xKrshFxsjMmpKLQQXwwOTiVUgYiwkggLciq/2/OYCT+4JKsGEA9aYI3PGCkgwgCJMkgIJEpCRjSW6zeRxgkY61a29xtKHASBAgiUvbH7DW1c3FTcv/2J66cZm4RBNlCSqVUn1obe3MX54ta0K48MfFq7+VAKyjCcUIdJDykaO8COn2efej63/4ri7g6NvWFaAQUx4njmJ28GHC9CEkiCqqr7Hnno2D/+DkD3mrK3rr+1ul9N2FZf3F4u2TxAnfb7y0CdKanZqL7Nr8oOH07CoZEgdi15NadzfcAr13bjQRB90oBIoYBlNJBc8tZD3z3iin/vdlpBWdhZY0oU3+o9TIwQ2IByrOPmTR9fN7uIgwNHbj80U6YOgFrS12dOGdinX1W66N9TX6+PWjYp7f7tIWNSSg54ce7UipLyzWp6KQNKAm104biZk8cOGtYzKDbgD/JN/579Cod2z/5jxtT0TwsLqyN5adr7Y4cMt8BjUyfMj5q3quq/z8DR7Chv1Gnu4vcenN4646FZ76qVLfsO7JEte3La+1v1HdazqMRCPcAKJiyePX7ZLAa+N2T77uVVohrn5L/zwYyaqm7VZRWPT35jVn7FiNKeew0ZU0YeVJlIFe1GXpoz+d36BVVB0V5DNu9XXOEBopQWwDpfVOhDyQ6RkSlLF2U807dbr5dmvz++ad6QdM0hw7cuZS9kBIRlrc2LVizfatCw2c0r7pz1xoBsxbEjdpi9omFZS8NuAzcB4EgCccvD/IPTXl8sbWNK+u41dKsiAgmUUZtve6d27j6DNqttb75lyqu9MyVHjd4pI0Y48Ta+chSGoBSvu8Eh7f9h4pGX7DR+wn2zdz968PAdh6zvoFvCx/CNvi9UVVVFAacyf65zHWmphray2C9bqf0/QCxFohFglm9xwk1RMZjx/nUHotAdaCt4LOSjEOZ84BO3IO0BIU+hR5HnqKLm6Ree/f7//SYsuM0HDJh40009BnRDfWsQGg1yFClFX3y0KhKRQIDQc0SgVlso88eMpGyGiAIwqLMR2Xq/pwnwiXoHWUjB5vJiQAL3PzOwOCDsKT057+15s2/49ZYHkWdSpGq8AERE7PseGVaa31q3w32/3eu+X41b9O6D894Ydul2v3/9bhEbGkCx6wuX/O79/xbdfPq/pj7y6ryphz70i23v+GVzFBnQJe/ed/rLfy8QGVAcUH/qgwkH3Tk2chExXTXpycF/2+Sp6eOeWDRpu78N+uWz/+hQS5A2Z/f+7ylXz36s203fv3LqE48smHjADZtv/+D57bDk5Ixn//PKtFvQ/uxt05++csZTi1rqQnEH3Xv8tKZ5LEqC+rBjlwcv3OWWwx+b/+5D8yf0O6/m9+PvtIAooNGP3/znT9+5YbN//uzSqfePWzDtu4/+dtBtZywJW0QhTmrzrSV/P+lHr980bsn71016csjVuz027w1nhRWWAVP4XwV9IrpmxpM7vXD9ofde+JO3/vVe7ewTXryq7LYfvt+0yMCFROPqZmx38/DbZ40bcdmWD33w6tyFMwPonTOfO/K1qxwphFn0n1PH9bjukNtmvvj20tmHvXz1yFtOn9G8VIWcyNSG+Qf8c8xjs9/sd+meDyx89YWZbxqoJI2s1wncmcZgACb4hqXPpj0qdwgzVPrIVe9AXKSASNLEbIPiG+2FEwhQSyCJtLbBFw8qMF2xw7VqnVThPDBShfYwVV5R8+3vt9xyq3kPc5+9YeAhp6VW5BAVbBG8Qlap9WOnVkIoarFtpUhb8iq7j3vppcPPOqvD0Ih+fZ+4/OqaPt2jplafSAFnyFjolxi/Ap5ASdWzRoCc5If1Ky4rUxDiReUvvu2vhJJMFg3vL2ltQE2nK/4RBDCAkD4/+030PnpQVU8i2I+5AeQXr9317pLpc864vX+qrCDRi9sftN/ft9imx1t79dscbFKc+uezJ/73+HcOGDDKiDc1PGaz64645e2nfrbNgSdtue/hd566rOPsfkWVILJqL3370f22uKBXccUby2adeee+/z3xjUOGjGWlx7c6YL8btzx0s1237zbUOKCk5IJ7zhh32vgdKgdC8faeJ4y9bN/7Rux19CY73fjtH/lBNGXF4v/s//NAjQCNEiFVBZAQAD3nzXsnTLl90lkvblrcV52+tMdx37py2KYVA763yY4MTll94rFzb/3Ja8cOHuPgzS+cMPTG7107/uE/7Hw0FN1Sxe9++5fDBw72lR30+Ee6H/LU9eHJW3el7X3cBaTwYVc8f/GuP37wga33Szksp3zPu3516pPXv3zUhb6C4VAz+of3nDPt1xMHZcrzxsCRR1RhUkqkwMKo7cfPXHDeTif9apvvZcRrJ7f7Ixdv+t/z8j+6KWWZiFE+4pA7fjzh7Cc3L+1mhFhNxJ3L5wnrElZRPzj2/O3+esiLH7zctuKDpvIhFcqUBEQ2KL7RX0b8WCBovq4u1dxufI6XflniLOy1+XIeGQGJpIzv2tsGH/Yzs2NNKoMlf7q1/vnHUFbd4ZV6IflRC5H5+I0o5YqkSMTjssnvvbfTT09vZZN2+vQll/fs1R2NrX5X0jW7Lz1+Agk5qBiHQiFfWZkdOsSZIE5Y3qCcIhUwUJEpRivmtjZSvIT8CfMvR1hYv3x4WU2WPdU46P6hY1lRaPnv2/+5e69fDAwqWNlwsHfVKPQ/4b7pr0UMDaWgHXuOveTQ/mM89ZVppFezU9/d32r5IDL0nYFbVvbf9u8THiZ1IpixfMF785669qAz/Qj/mf4KNj/psAFbOWLLtGe/kag68L53X0wpmAmhHLvj/21fOcAxlLB5Wc+BQ/eY17S4QOw5GAH7xpEBICzGRTBWVZWoOey4edw//37ozaOyfVkghvbIDtliyC/vmf4yMUDGedh9l98dOXTbkH1lb0Cqev/+e0+tmx0ZCMOBBgwcymI4Yp/M0VvujvqFYRR9SrzUc4gQYfODztj6O0Y9MV43Kr5+s4PGdSxoJyBCgQUtk5476eZhxdWB8UodqaplbWchJRjcOOFRZAecu8WRaRhDWuLMDVsdgZY3luXqI48UisK0J3/wr9FlvRk+jAcmX2GSOv91DiFQssN3GDJs7x6BlF528p3GqgMlogsbFN9wLxxC5FkXzl0IE8HFQdivYl5DSpasASmcUQ8otG964t9fOfPwdF/MPv/3Hb9e2vfbP8TC4taqlpI8AAcCiKHUmRBNgCh8Q6G/qL32gJ//DADEvX3L7X369M21N2ciwINV+AQ4wHy5zmqE2Nf2QpdTzwwbSsSsUFKK/1nvAfQYARSsKPOzUMxsWERETsD/47WtzAb3fb+uvcOBPIA7AwqrDmZK4xKov/WQkXE03gBe4B3We/jjDbNvdBSlGF56m+LeABXgMhFHvp/irJBV2IyYU4bs9IcZz12069GGzf3z3kb30f24Im9kVnMdltxIt7nemeJATAss3MN14Y7tTA4OcLt2H+IMGXWw7LHfYlSV0kBoEDB7qinESe+kcaY8ESkWt9QBTdsOHB4Cys4DdaR45z5D713ybgFRRv1WjcamK9MWUKixBfZKKD0FK7wIbKAqs5bPvnHi0/9YOnOY589cPAWZTMhU9Mnnu8NHmoLhxf0DZd8qGYLDoPJeKDQrQAa+ErodtGN5f3YKptCoQH2iVhWjBOD52mmjqvsH5IeAR9Z5fnFpBdr0tRULv9u3mh1QstfIPsN9B5AQsUJA7Mw3+1G1XqA4cEW7HzvwhqdfzU0ta17cUd6/VJMl8Q2Jb7QXLqQQSJhPtbRHKU9jy7kW2ob97wu+i+dLBOM8sjZPXln/XS75TxRAe2PJ1TdO/scfwp6FEpOG5p1JISpFPoTk4ARGUIhcKszkjHi838/PmFe/oqK46PXrrh8xenQYNmbyDJ8cyNBqeeSff5yOSOIXIF7KKwiiDh7cjyuq43VvAjaA5e8PQyCYgaU94eP9hnlxbv//xl1jORFL2K3npvWLJy5vrwfiD7o4mdxBIS7lgDTSxI5AJLHDkfVTGXV5Q0YUcKlUIIBPqr6SasrBd8TgkHDE4O2w9MWFuXao3DLztRM32YUUHqBRhLJDHtjpB5dvediF2x56/dbf/c9Br5y65YFFjjwyYClJZ+OCcPGhqhlncqy+i4sPqMmGViQkOCUihhXjVBmiAirL+oZIfWWjyFhkQAULhsmzlpmUn8oUGOorwIFIpFKuKfaYgN++fufWf9ykvLzqnl2/d80ux/7p0LMRFeLqM5DCtbN89MsOFCSa+X/2zjtOrqr8/5/nnHPL9Nm+m2w22fRCCElIgYQO0pt0FFBBESl2sKBg/SkqIvoFBVQQBERAFJDea0JCSYP0ukm27/S55Zzz++Mma4CgBDabdt+veW1mNzNz79y5cz/n6UJoKN/QkMoViCgOLyjRB1OiMVJbNkzJSRFMRZZmWutqKTTTBGiiakaeUEyTC2F4Os1t+FL5EhpSKAhUSL75fNMKIGixE/l99hi01hCAt+8hI6sm2hb4g7e8okjqjxOiC+lr9mgJJ4AIpQ0buOcQCdquXQSJb8onZwRwQRlku9XACQdec7uRhhcHHnlw0RcP6X57AeLVXJvFSKdn2z1GvGwbcIxCPMZLVR7Xh3/5S/NWrOIMN3ztm9NmzFDtG02HQXjQxHs/zo/6NviWvnSlpOWWrJQxdDD/T5H85sXBzgERC0IGw9L1iODV9UscrRjw/nVGUNvNgdMnHIR44t6ls0hpaKYUJyLJSAIg3pSuQ3bVa+sWewxQLHA3P7hh+cBYTVQyTQwaYKRJCxBppkgrkwoGACLC2Nrm0YM/ecXzf3uja8WqNbMvn3KKYhAK8XSiMdp49Ihpx4/e/8wR004ZMfXUEdNnDBgeNGwBZw6H4YNJCpqlRBm3pAYD0yhDln3f9MmSpEEKBBM5k7iP+mQVVPmF1UsML1iQMk9gabZ1aCRtaGZLvVC7BhFjIE2kmc+UFpwRacIyL/fLF268/tMP/mTqmacN2v/wponJnIT0hAvF4EGDJT2O9/hMmYZP9EZmnaM10+RzxjRaSl0ViWqPmGbKY2wdZW0FHpSYM4CgOJUEk1opwtSK5jmdG6GUAVg++QJr8h0QS0dX1fvEmNIwRZlcxYOIPPHeLKuQfoY0gtNa8JMvnAbyn75uYff6Hq3D9dROxJ4t4Rqe9sWK9Toq+Mevv9qWDWtfwPDK3UWZnjD5V0/HJ48qSLSZWPPNS9782Zl++R3bqjTsWFq5dtaFysV0N6rd79z0h2fmzQfwq0u+fObJJ3kbNhAJcObyPv9SMVBeOYztNY647e+sOagq6DGmMCLdAGMEyh0bC92kg9Ze74IAzcAVmiOpyQOmfv3BT7/Us4pL7TNGSpJS5PoA6uKVB+71uTMf/wOkQ5wJzlbIrp7sa+cNn+ExME9BeiRJSGhwaJhSo+yR6wsFARhK/3TGGffdf9EP5tx30NhPDDdSHkFLnNK077qFv52bXWtI4kqQEpCMNOfQXGvkyJbaE8Ev0ICtqCQQ1HMPiCQZ1z2m0lyDaa0VCsJQWhOq7dSJY0/7/D+vyaLgcYDgObn7W2cfO2ySBiSjfSRBSUMBRIrBVNpyJZQmreK+RiE3sKrOI0itsr5z8cu3wIq7puASpuZwi7ai9/gzfAKRxrJ7nlr1JpdaaBDzr136eDfMSlf7pGMe4Dri3cofc3WH63GpoPHFaSfk1z/2z+Wv+aQcAQn/gaWzUHHSoGil0OCaUJIE4lqLsCXbDkYC8DXTDOMOasx2ealow4Jn1qKPC25DPhZ7dIBJAzqbsUoFJyrMIOrcXxt2mGlLleAbkOO+WbPPJTfnDn7utau/51VDLV7xxsWfVSOTIz75ncpR04oDIkoacRW/8c5bfvn3vwH49mc/9+UzzkHHOoNFAQXSpjL/R0H5tiM9yVINqK8nCUE7aWssBpKkOWhErBZeJSi7vNAxOFbz/uVYUCfNiQDzsZMv3/ted+b1QzH0SxfUjclyd3FHW09bbvll1wHsliMuGPmb/evu/PqXRx/UWsrcNPuuaY2HnDViKod0OIHxsiDJwDUUg6NRFjwtImCklQTYjNoRGDXzoce/dePnnlJElkLJoOOG7nvZ4X+ccd3QA0dfOX7w4PXd7f9oWzz72CunVA/1CEj4BU5MgbS2GHNI5whOUPKo6ahhU66+81PnR6qm1o36xKC9RtYNQbS8ORMTvzvi/H8uuT9151d+OPqIgu/+/I1/ViZHfX3ckZzgA8q2M5wB0FA+GCfqEvxZ6ZCPmlj8gCmnnPKHqd856U6/5F6z+JmvzTzp2n//npSvhekCMC2fwScttjiYArrMJQ7+4ifv+eaJex17YMPoPy1/YeGLv3zqm/MKJotq5TGCFVGcbXnGdNs0LhIrCIoDo6NVl3/ip2f8fMaZn/7tdHvAv9ctfPyt7//rc3MqRFxDOYzBcBkgQYpT2NFlh0IABDGQildFDr+yae5vup+/Y9FBZ0zYs3Vj54JfffXVO3ofdhgSoHWt1L3BYESaQyto3T83oX2JCPMVwAgF5Wqzed8hRx3tR1l21XwoxNucNS882fbGbXrlKlOr2SuWXXDNzxzfP3zyxNu+fDmUk9eGqXwAUBoq6IS9eX6F3mKiRq/XS+vNbxCbZ2FsWferN3VnIg2fQJK53Js4TkSimvlEfdtutu9QcEkzIBWN/nj+syg+PqX+mMkNIzZ1MN2CIEFAEyTBZPaFIw+a2HxsMxkb/HJEsfF1zRdPOGx4xUDSVGElPzvpvBij5R3rHam+PvmTPzngnIgR5VIroiomZtSNakpUMwYAXGlObN/UoJE1A4mgwCLcqLKrDhpx6tljDogYFsHnihkkDhw8bt/Bx+bKpbZSocZMfmnUofvXjzaEwUBxpA5vGJuKpzlpl8jyEYWeWTO8sbLOUFQTTU4bddyKfNeqfNcBjeMqrFSSVR00cK8KI6Y4ksK8eJ8zBxixtzpaevzil8Z/4qaDzosaUQbNNWMSMyubG6saDF8TMdLa1vTJyiFD64cwzU5o3CtWt9/qjeulSVdPOfmzQ2bGowMOahgdeK4HRAZMGzQ+CsIWzV20xlPL3pyd7Xrn9F+sKHTNb1uzV3Xzb0/4f/sPGMMVaQZDoclMTKsfy7coTDN9Gh6pmlw3VID5UAcNHH/QhJNXdLcuzXSMqRr0q6P/38EDxmlFiklDscpo3SF1Y30hTImd9rzbE9AggiQQaQZQ84jUU7fMb1/rjD+yprIhvaP3LmQTtEcHNrQsv/Ka3ZOFz72INPTHTOPe5s1vujhu6rqtYNiwo8h2rnzsto55dxZXo8JH3kQhgc+8mVgvcyPT1XN/8yNeVxWhOiQYlA2nDKXBPJQsQCnhlJjPObd9zxNEvvANbpckCODc1aYrYFJBKMEkQAZ0UWkG0gwmtHY5M/OyoyFbvR75oSPj48dpUsR2dA+2D8bRsKR2BSD1xU/88ZZZXzho7x88etKVptaM/W/PwZYn/3vSbHv/q2/Tb4OX/Qiv+T+f+NFeeVufpbS8+Nmb32hf/8LpPzT0pgyDj3aIPvKhCOl/NLQsqyuOvKu0VE//QsOnrz6MKYD5GmJzd/yQHcMe7RBRJdfPZBFM8yKlJel+lXC8d9i2U6Kyp6IdjWd8q/mkS/3Vs+Y9cJvY8Ma350fWy6IF/oMhxXVXXLQ+jkg1olMPaxh+YPWgoTCTnhGleM4UBvMiMR6Bb4E5RrkM5Yi8l6nUhtKGLpqybPpllIeB+YCEKmtDgAdzUCQ0laM5qVPpUkprZTbWg+mdvIBEEMCIoDnRKfsedMvrE55b+mhn/rL6ROrDPP2/vLnt9L4/8sv+zyd+tFfe1mcpYoKhpEpC+h4XxsdY2e3cZ1bIe9DM4IefNejBK1cvebEFCpr5BGOnahGxZ7JHS7jf3R31XGkYHMQU6U0VWTsSzTyeHc1z6yEz/qjDJ1152M1/vGnurN8CuGzvIXX+KsdAgiBaUX74qTXeUysEKAZYYAI6Oig5ZCQb2JSsa4jWNiZTVdK0FTdTrgkyICphmr4WIpqHFmAERsQ4pAciqTWAZFbANFAsFRtjdlVsJ9dvYNPIr8DVOylWj8RgyH/9Y8WrF487cs8+tbcbGp6SnYavCErrnac2IWS7QoDiOOysSf/8f293v2asWtgyeHwNaTBoHUY7dih79HWOMllIBSjFBZOqf73oHwRpa7krEqJYaxe6Zi2cf9lNv4UyPvOJQ6+54ht+Z2dX2yq3fWnP0jf4qtfzGwAFIwsOSAvUsTa/cq0mZD0A8DR4FEYMiIFiMK2BZKWsSMK3qkw7YlgR04qoWErbMS2EHYmZhqnsWCRiibLg06eStntreTR2nmYu70IDRBCAIl1pxw9Ij3th47/uXjX7wvFHGOF0yu0AA05smrJ39SgFZpDarmWYITsTTEMaKWvUkQ1L7u66/7evfO3GE8AASIUPEbIK2W7scbHwTVFdDU0oz54TaVnvJwwuBSmA+rOw7AN3UKkI464WJcmTh1926XPzl9SmxNs331FZk4BQ8FPQGsLRPsgrdbUsK29c6baudjYsKhc6vHw78vCK8B0wDaEhFBxzUxdSboI8aA0toBU0gbtgCpJBApJgeSjGoJZgwsaFVVVjwClIatlZQ+GQ0HzTlEsw4Ok1Cw7/+3HQzQsu/NvYRC0F84837f3O+Q52MbTWpDdZ35oU7aylCiF9jIYmqTR7/JY3H/jB61ZKXzP7U0bU5uRKCB6u5HYce5YVvmkwpQ5WLqRKRXDBqAzEsBN40QEADGYPSgmKpq/585+fm78gQvTojX+sbGzQuSyVCKwHABwiAMyoHDYJwyZByaIZMVVZKB9eCcqDkqXOtkymPdvZWbFhse5pL3S15Do3QEIQlA8tQQqwICXIA1MQgLIQdcAASUKKQB13avXjm3ctuIQcOGhMxYDju1feeOULd9x/9NckgWko0ltt9hLyESCi3iA2hRfuPQcCacaBCQc33Hu5EkXkW52KobbWgpEMnTE7kD1LwmmzTaYI5LqiUAAEK0tPKKGYfm8rqh0Dc2KIFos9+NnddwA45cCDJ9Y1o7sTYArvToBTEnmXiDR4NL8CsMCjvhBEUSgZqR8TaRhRTwTYkD60BOSmCjQtlSuVVj5KBKk9VxBzPZepLCQvDh0WTw/iina9PFPilzTP+NHy3z2w9uUueVElj5CGR2TuHJ9sSMiuDIH8hiE1DfvGut5yXnnsreO+eACIoM1webwD2eUu0v8NpdTs2bNd11VKbTVAoCGxyZeuy5mM6UkIH8zgSoMk7QQwQolpjcix374iV/JHNNRfe/k3kXV8g0Ft/SkAmHZdY7TLGqVKkrLhKDBDep7vkecCxYJ2XCiplYYUJQHHMHTcpETESlcb6TqzerBID4jWNmPQRD54auXMY4Uw/V3we8mUvmzScag5HRte/eLjt0jpe6RNH96O3rGQkF0ekhqkuZ52whACnrhtMXz9/ll/If3MbiXhGzdunDZtWnt7e6+2vYdgaoPW0Fq7mQwpv2gQpMGUGUzQ3CE3gDRo85ByFonaz7/11rMLFzPgu2d/qiaZ9GMOtCLQB+4kCUYbTXQxo8hkgTGHqTKponDzhlN0rC7P7HJVj6dLDs9G3ILl5bhb5G6O8j7LS1bwlK+0p+0NHTppSQkGd5cb0ayhGVBtxH86+QwkN947/7dvdC4HQbNNrdlCQkI+KhrwteZgGDZxIHE/9w7rbu2CZiB3R+/bHs1uIuFaa6XUK6+8kkgkBg4c+EEP4wCgFGkQRbIFrZXtap+VPSpDaqbUjrhpjzymy6ykfa2g4ZYyl/zq1wDtO3L4eUceh0y3cLXwGJhkcusvQkoKz4Q2yCPSgpQgRUwJMAHOrFLKLCdNGTd9w/JMaBvKhrKgImA+mAfmMemRdHyLy7oGyaFVZJeTPQJpRgq4aPwn4B+DiHP+C38p+a6WioUTjkNCPhYEGJo80rxuWLxQdCxTt7xT1iShrB29b3s0u4mEA2CMzZo1q6mp6b8/CsGkLQ1VdogRIxJgBhjbLjNGP8xNm8oATNgwiGBG/v7sS0vXrweXv7noUlgcYMG40v81PxRbuW160wpMgVRg7b/rtuVkUkAxEUmnOXbJ3C8NMAUFxIX9wKd+gmJh/sKf3jnvqZKhSYXpNiEhHxNGYICuqquqGR/l3Fu+cC201OHUkx3K7iDhPT09n/vc5y677LK//OUv7e3t559//g033PCeWLjezCZ10lo7LtjO8fYVU2AuAF9De7+57z6H08FjxkwfM1o52f6TUyUpEoXJA7nb5UScAE2aCAL8iIZxE0d+AdbIi166vj3T4e4cn3NIyC4Nbe4UMfO0YdLTS15uZYo0+Tt6v/ZodpO6cK214ziRSGT27NlTpkx5f/vlTX/RBIIkMM/zn33JKGYhNg9D0kA/t0gPIMBlylJMuojV3PHIA+dc84uIEPP+9OfhA+uQdWFx9M9n5HnldIVx4P5cc0275IxmHQxu0SBQ1iul/vQZlJ5pqjvn7TN+FuXh1KuQkI9D0A9AA1i/uPNHUx/wTOd3S863KsxdsHZl92E3OfRKqaeeegrAlClT3p+O7vv+D37wAyLStHlyl1akNLSC2nSTTCmllO7vm1QKzIdS8BlKhT89/G8AUwY3D6+v01nft0yl/P7ZEygJIeTmdc8uqN+AD19rj7SGTrLIrYdcgs72Nauv/eZzt3tK6t1juRoSsgPQGiro9KRByfqYGY8b3Foybzn0biIiuyi7ydHnnN9zzz1HHXWUUooxxhjrNcGllD/96U9/8IMfaK1VEPAFFNekFYj1xpK5IqZ3wI0HWebSAqGLeXMXLwNw2XmfhjBJCaEcpln/7AkUNCNTQzIQ1C6ndgSQYAYxE4yIQDhz1P7fOOo2lHHDU+ffvexVqSTwnzKAkJCQDw0FnXyC3BnLFnxggcFfs6iowlj4DmU3kXAAb7755oEHHvj+WrLXX389Eok0Nzdv+V+Bk1jvELv7PTetIVVPxIOI/fKO27O+M7yh4fgp+yGXKdkSnla6n/ZkF1Tt/4bLPVPSVVNPHzvhKtSnzr1r5uPrF5IEALXLeRhCQnYmhCEqmyu1og2renYfCdk12U2Ov1Jq3rx5++23HxH5vr9hw4Ygea1UKt10002nnnrqypUrt3SjKq200vT+DO0dcFMgM6Edzyn/8Z8PMsaOmjbN1AyaSUGQrF93ZrN9uhu4nIUmcBYV9jPHfQ3qWFTj2HsufrVrpVKKdv13FxKyA9Gk95pRr3x0LOsh+b8fH7L92E0kfM2aNQAmT54M4K677iqVSgCUUmeeeeZ1113nee9tz0VEGoDymfKY0kyBaY8puSNuPgCjxNfku3KOz5Q+fPzeED402SUC85ny+2dPIP3dSdmYFgoAVJWIr/vSLZAnw168351fWON27YKJeiEhOxU0dlo9SHWtKIax8B3LbnL0E4lE8PPNN9/M5/OB2/zJJ5+8+eabY7EYY2zo0KFExDQAprRmGkQK0NKqhulptl7KKpDeAXXhYAouYtaKjray60UYHbDXGPgK0hesKDk214Vv/xtjcD0VtBPXu1pvtvfDwIEgMWKgiLzxqd+iqwaxluYbPrkk264UXK2hlAy7voSEbCNENHxCE1lm95JisTMfzI6CBsJhBP3ObiLhFRUVd9xxx+9+97u2traLLroIwJo1a4466qjf//73P/nJT26++eYVK1Zce+21XV2dAEAEzRVx2BW83FHs6SaawI2NO+xoaILCC3PmgmjK+L0rU2lZciEImvVrYjgjcn3o3W1RHTTF2aui/unP3YOWVSiXR936qVfbl5oSILbLNaELCdnhKK2ZyapHJEVSLJizmLBlq6iQfmU3mVRGRGeffXZwP4iC19fXt7S0KKXS6fTTTz8N4Oyzz04mk0G1OBFJLvIb31p265ezXTjwF/+CUwkq7ph9F4CvX1m0kICJzUMB4raAKwM7sv/gXLhlpnY7DQcAME2HDNzrxS+8OfNv58J9YsZfT3rqzPsPqR3pCTJ39L6FhOxaKO0zYpXDrY55eskrXVOP0SAFsN3GJtyF2E2O+HvnfTFmmuaAAQMaGxt7enp6enoAFIvFoCQcGppzbRiF9tbiHMQLWH3v75Dg8DR81d83T2nluY7z2sJFWuvxzc1gTHreJh+v1497okiVylop0kCQK7Ab4XOmNfavG/7O5x9A9HBIOuzm0c91vkMy7C0VErJtCBIgStdHdUwue7MDxLRmup9aUIW8i91Ewv8L0Wj0yCOP3LBhQzweZ4wBCGaCiVisbuyBdRedYZax6LHHu+Y+g5p6QIMECP0XC2fELCubzed8n0CNVZXQxBVJg7gksH6MyjPiyivkctB693OHGRI+KVK6OVq34oK7ERmFJA65fez1bz6mVBjACwnZBkiSAtUMqpRMFTpJOkq/aypDSP+x+0t4ZWVlXV1dfX19bW0tcQoEXEEWk1Fkcs0HneU2oyKKhb//kfPOizLeANleZFEoqfoL+Ch4jqG1JhURAloprZinlO63XVBKKaWlKBO1t2tGkoHvXpkpxGGAQXCTqNGoXPqZG1F9GYBv3H3cmY/8tscruFpLpZTU0NBaQYd5biEhW0dzzUG1TaZdtpyS4ytHgUgrhbDCrL/Z/SV8SzbNKQMIZCaTLvOYxSddepujIDzMu+0bvLxORhoibl6zfsoDJyIYrOw6mkhrbRkmoEGk+834/s+NgaTq6cHufloQ1NBIZdsZPz1s1DUw8fcFX6m454pVHWsVSDKSBA2moSjs4hYSsjU0EbSuGZh2lSvzWpYo+LJQaIj3O7v3tfp96E3nGIHZFWlBtpfzUTtq8jd+aDhwN+L1G0/jRhSeTUGx+Pa/kQI0+b4PDUZkCAHZH9vdyk0CJolCGdonBb37fhsFAZxXGrEnj/n6ZUffhvIAlOaM+r9xj657iylFUilojxiFDvaQkK2hoQHUD6n1tCsLvl9UBBVEH3f0ru1x7FkSTiDVG7GxLDcRMyRhQ0t89IyGM073emC8hTdu+wYN5NAmSAAaxLZvaBwEaFMYjKC09pXsd+O798ZBnpEvklKbvqO7LdyHZloWSV83/dxHLnwKK9Zh0KATbj7uM0/dmOVSeNoE6Z1kFm1IyE6GAqB1JGmmmuPCp9a1nbRpzR9KeH+zh12kNq8SAwc24hEUs9oGNnQNPOmyppMOLFmQj7y2/v5bUZGE3JAzE/CzkoztmBpOPqRvcKYBBua5Pkj2e1q8r+Br7UnbYLmSV8hAq93YCtcEUxMYRYgRx1HVI5dcMbc6cQKo5Y5XLpl057de6VmptFTQCgpKAWFcPORDEVS0/s8HvIdtev0tt/L+527rC340OAikQWgYXanKavWSdYqgocPWxf3PHibh+E/eJAEiGgNBMgXF0LN66CnfiowF1WLFbXdveOo21E9JlJZIK8n9DIg29x/aDjctbdMkDQKVXBekCf+5bcftvudGWipiriysXKf5btCe7QMhBMPkNw008wSGJmvXffLH3znqr4hPWLnmj/vfdMRPXvtHximRIp/IB5EOG0+F/G+CWUpbVej/Iq7bpLtbvuCWv251Bz7Sm/jfUFC1opCoFTqv21ZlNvntdttl/87LbtLa5aMhK9Naa0EaXJd50nad8V/85+wfnpgqY+lv/2iZZvrQz/P1b+SMxoTKbsfT0/Ur4gmbkaN0Wz4HkKZNEXv4YP32rSBCiSPhslXr/b33Mvq3r8wORCh4DBbjP9jv9EOG7XPEA79A8dbvP3Ha9+d9/o1TfjAhXUcSkpOmPfvbssegtVZK9aqgUgpA788t1TH4FVtosOM4ruv26mix+J9uUb7vF4tFtrXoTKFQ+DA7xhiLRCK9vxIR59yyrC1nML7nMVprxlgsFuv93+CJvXeC53LOg//t/a/gfu8D3gNBagiQrK5LU3zjxtUFAgdUb7JRSL+xR1+UeG2NZ1rMczmz7WIPhAnXmfqjp16++rC0xuLf3jhWsNjMCxJtrwOp7WWFEcH3LTMyrKlp7qo1y1s3wJPM32Jb/WYNE5lMOUIls2WvUEAs3V8b3sFoxoJJyILEwTVjSp+/+Yon9rt+7oUwbp74hzcvnPjZa4+8IOIzzRm2djkL2SFsaYwGStOrpoyx4I+9D+u9XygUPM8rFouFQsFxnHK5nM/nlVL5fN51Xdd1c7mcUkpKGWj2eyQ8+JWIpJRbGsFbirrneZzzYDeKxWLwYABCiODOeyAipdRWpf2/vOuA4J0Gu9T7apFIZMuHaa0ty9rysGz54F7x7v3JOVdKCSGCfeacR6NR0zQty4rH45zzWCzGuIpGK+JxMxKzKKpblnZBaeJMQxOg1H8OfvC5BJve8i33/rrVJULIh4f0Hhy98JWnHnuKZTYKnpbM5KonZ9bG3XaCnPOrc4z16C5izIWfrTv0s+jpBDwoBib7eDIPEXwPduLMX19z7wsvf+qgA277ylfg+dCBf5v6UcPhgQsjSx2mc+RMo7FxD+kfrgGtQaQ1wJT0AUXilZZ3Dn7kGnT+GQoYdMk9+5976pDJxPe4wNPOTKlUKpfLxWIxn88Hd7q7u0ulktba8zyllO/7nuf5vh80PnBd13EcKaXv+67rlstlIUSvbmmtOeeGYQSXRMaY7/vYrJq+7wfahs2CHehQoEBb2qy9CqqUisfjvRdYxlg0GlXvK3PQWkejUcbY+/9rS4LNBWuC3r9IKUul0pYqGDxmywWBlLJcLgdPDzYhpRRC9C5ugjeOzWoa/BRCBGuR4PGu6wohggMipSZ0gTUnUt1s1Yj2Z82czu19oSeiJkPUMJXW2jAMIUSwAuCcm6Zp27Zt29HNRCKR4OeHXLuEfBB7toQDeu4Cvug1ilhEEWgJrcAEokmZWTPnd+cn16LVw7DTTht0wue8Ts3NDunUG6K7L1Vco2ToiEjc9NgjF/7u+mE1tYv/cDP3enxu+5rb5EOL/lJx0uRT2cwJSQ3VsZkHBaFiCfA9Zn5B0IKXNPmkM6Xiz17/xy9nXQfMRSdO3O+XV+1/6rj0QK4ZiGkChwaR0po0hReiD88HXXMCOQkkp1QqBU7pUqnkum6xWAz+2Eug2YG5XC6XpZSMMcMwApnZ0gQPFDeYWWfbNuecMWZZlmEYwZ3AGDUMA4BlWcHrBPITPEAp1fsz+KNhGFJKwzACyQ9e6v3v7j3v9L9cbHtXA9vE+5/yX/6itXZdNzgajuMEfw/WMYVCgTHmOA5jrFQqMcY8zwvWOoF+AwjWRlJKz/MUhF/MKovpFmv5XVWMZ4d8LpsrZbtYKe4wvXk9E2w3OPLBpoNfDcMIDrhpmvF43LIs27YjkYhlWYGuW5YViUQMwwj+K+A9lv2WUf8PcvjvCezREq61dlrW2Y8/5yRhqigJtVkrmbQN7us5Pz4RXZAlxI6YutdpP3JU2cq3wa6C7rsmRBpKaMZir61dNfWSiwGs+sMtg6sqwCCV4lJB8P7qPUweScMh8JIL4seewmJRfKQry65LcKBJB5nopEBrCx3D//4D5H8HF/D3/tHB371w4lHVRoL0psEO0FpxChX8w9CrCr7vByZyoVDIZrM9PT25XC6Xy3V3dxeLxUA/AjO61/nc6zFWSgU6KoQgokBrexU3mUxGo9FAA0zTjEQikUgkHo+bpmmaZvBqgeO6V+C3/JWIfN/f8n/xbn0N1gq9FvNWc8p2ToLjFtzv1b8tnefY7JnvNceDI7OldR7AmICULKbXzu7+44VvcFX+wj0zKgfE2go509elcjnwiwSLLcdxAseA67rBR6+1Dn4GTpEttTnYnJRyy880WCpVVlam0+lkMplOp1OpVDweD1ZawbqKc75HXal62aMlHBqOm5f3PRLlHmD+x9jVOmdHEzILu+qNa48qrULUh2rGpC//XUbrWPd6or5rCEwaPkecr23tGnnR+WWJ+674zidnzkQu65iW5brg/dclzGdSUKIgopFcu3PgTKupDuAMUEHH1T2ATRKuNIg0NGkpScBXd6569dwHLof7EgzAOPbWI7559rj9QAbXRFqDNO0ZIr5laBnv1rb3m0eu63Z3d3d0dHR2dnZ1dXV3d+fz+cDFrZQKbD7HcRzHCbQ5MMtc1w0UJdhW4OKuqKhIJBLpdLqioiIajQYX8eAxger0ao/+r+ygw7YbwhRkRJVWqP879wVTGp+6dd+BIxJF+JZi2KzEvcbxliLduw4L/lgqlbLZbD6fz2QypVKpvb29q6vL87zgMw1cHb2rt+DvWmvbtk3TDBZwwR3TNIMu2jU1NXV1dalUaktF36oFv3uwR0u41gBkz8svVSxaIysM8nt1mZjyNRGZcZhs6b1XtzwxR9iw0xh3wU8jQ/fTuW7tuyDNNAWDvTZf+7d9Hwjc417SQ5Y3XXDexnL5suOO/835F6KQdWzLKrvS6POpYUFJSDDMhLDZSc609kVEGBy8tP6Zf1ee8ll76n6+MISCZIrvSfWHvcdbQTLNXa0MxTZ4mVsWPHn1U9+DoVBcPGLU126Yeu6hTXuDAGi2u0v4luLda3oWCoVgEmAmk8nlcoG72/f9IFOs1w6TUgZGcG8uWGBmeZ6XTqfj8XgikYjFYolEIhKJxGKxIERtmqbYDLbICQ9Syd5jB4f0M0zBiyi9nv/6zMcjbvyUmyYMGR/LKc/yDP0hLlhbRvR7M+G11sFHH0i14zgAXNcNvDI9PT35fD6Xy2U305s2aBgGEfXa9LFYLBaLBc6YIABfVVVVXV1dU1OTTqe39Lhs10PUP+zRGekKmimKjhqBBWt9Ji1lYPPJp7jBoMq+tN3ciLOvSaSuX3b3AwXgrV99Z8jZl9RPP4ryPhyzbDu2H1EogxMAJj/C1UQrxrhDLGKd9onDf/evh15bskRrD7YWZVImcb9vzzMCfM2ZhM0kGMpSEPcAn6ukIcxIdsnsBfd+T70EJKL1+04kaWim2Z6k3+9Cc9IQjIh0PUteOfmTpw+feuWsu+9/65alLf884o5rD5308x/uc+L+9cM90kKBCMGSjoGgoQgSMHb0m9gq/90W6dXFcrlcKBQKhUKpVCoUCvl8PriMBj+LxaLjOKVSyTRNAL0e5kBiDcOIxWLpdDoIcJqmGYvFgjym4PKaSCS2NJF7Le8tXyTIQcNmH28o2DsDDCQZI+nziM2INDxZ0poRl/iQUw57P8cgMNH79yDuzjkP8gcBRKNRAERUU1PTWwIXnGlBZUFwcmaz2WKx2PuX9evXB7qOzcERzrlt272+nMrKysrKymQyWVlZGY1G35MSiF1H4PdoK1xBM6Vdz2H/eFwgoxD5jxmtAYBBKRJMl1FRX17y4uu/vdr2UfJROWPI4NN+HTVjyK0FE1AcXCuYUNtcFqkBLn2XuGmy19taJ3/pkijY4tv/3GiZ8Exl+vD7vNRSQXOQz6QPJCFlPqnsiCXWZxbO+mPxnmfMOrQ7aN5vZu1Vv48OG8eDJPxd5ITenmgNIgWfyRfWv3PBU79fseZxVJlozx4x5ZJfTz1reOUAoRjTIA0tIAGhAbnTrZN7v/K9Wcqe5wWZ247j5PP5rq6uzs7OwPtdKBR6Q9e9+tr7CpZlBXlhwVU1Ho9XVVXF4/GKiop0Oh2LxQKjuXdbemsl1yG7HEwxjwlDFwjpnx1yr8nMk368X/MRUeQ9RVtEJLf3bmw237csZw9MecdxAp98e3t7JpNxHMf3/aB00DAMx3EikUhQO2cYRkVFRVNTU1NTU21tbWC1B2kWu4TLfY+WcAnNtfYIxZdeTb31DtKxrbnClYLNtO+m68zi6tnXn2OuASx4DkZe/r1U0wEoOGWShgKnHsgoPoLX29f5JMUzjoonhn3pC6va2q8+4/SrTj67xyqnM4DRt+eQkohzdAHwqNrQG3R6IJV16wv3vP7wrYN8lIBCAQf/8OdoGO+YpjrqEFszjX7sMLPTojVALsFQAFSRqbnrlxx055XwX0LRRtWAY5qO//Pxl9awhGTgCgQoBhfK3sl8GFLKjo6O9evXt7e3t7S0ZLPZ3uSywOoNmpMEyV9bhqW11tXV1fX19ZWVlbW1tVVVVUFtUkCQpN1bthRkhmNzdVZgNoUVRLsLTEKYusCM9K+O+wd6xFFXTh17UlzlPYX+k/AtCfQ4ONOwRcl7YIv3Jq57nrd69er169cvW7YsqNALKhGCFP1YLGaapmEYtbW148aNGz16dOAD2JnZoyUcgIbWgMx044FHDFOCvc9iIg2fgIhn+AaXUNaa1/+87v89GBmOgkLlxJFjz/4BRMrziTk9nMltjoeThsdKloiUXdjRT/36F3e+/MpejY3zf/HbkpWJFA0YffqNIMCX4KbLTdO0oeW6F+9vffbPOgNLokth6KknDdr3ND9W57mrjVyUnXo0xZIIbfDNnX2CFZoiMAmfoeCV7l8z9/yn/oDOO0BA6sSzmg74+WHn1kcqueakFUgTbZdMwF5335YJ1f/ZW6V6enoCY7q7u7tQKAQe6SA9OPCHCyEikUhvknZwJxaLVVZWVlRUpFKpioqKoAorMLUDb3mg070x6e3x1kJ2cohpX1mmzrFI5R8/+2TP26WZl07Y/7xaL+/IPr5g9SVBel2Qvh4UvgfpGrlcbu3atWvXru3q6jIMw7btIJG+pqYm8CoNGDBgxIgR9fX17+kgtKPfELCnS7iEx5UhGZjnPv6UuX69tBOaORrc2KJqTAZpa1z4vjJNQdbAnlUPr7z/x94KcBN+HI1HnTtwypEwU8gVALVJxDWDVpu17784DLUrOPc4sRKLxp+c+9YRP/qBbYoVN97cUCFQ+vBF4UGJU+/mFLQAAJKAAVJAEKfiMIWOpCi/vmX+Uy3P/8VbizhDRxkDD54w9IjPm9XDS54bKXZAMu2UcmPGR2ZMM4jtge3034PepN9aAhwASQVOEpqQ8Ut/WvjUN+b/C+tugdEAMfaze592yd5HTahuUvAN2i7R8MCqCFzfQXA6SOvNZDLZbDaTyQShweCataUPnIiSyWSQ7xOPx4NssiCPLJFIBJ7DLTuUYfv33A7ZtdBM+8qOqJxOJO/72uzVT7dN+sLYIy8e7OSLcgdZ4dtKUGLXmzMf1Kc5jtPR0dHV1dXR0dHW1tbW1tZbhscYa2hoaNpMMpncSXzse7aEb0Fp8Qrj2Sd1TcEojlVmB5P8XXFxHpjrBNLwNOJVgLv08Zs3Pv1QogxfQw7EuFO/H23ei6kICt2SK46SZ8cNPyd9wVEB4b9re73mugZY0IiNAQDnoy+7bPGGjRcdftgNF1+GQhn8w1j2CjoKXgI8SAYSUqXLdpsFYuUqxhfCq4SuVxHOzILX1d21+MVl990W9SEUCgxmM8af+TMatI/Il+CXoRQYg7K6E7mKdu6d9UlmW2Hl839HK11k+PlL9/1o6aPY8EfEBiFnnzP5ssunnTgyNUCAEZGGlGAMxCmIq2/tdd5XmhX8DMLVgRmdyWQ6Ojra29vb29t7enpc1w3c4IFlEOguEQWB6iAVPBaLVVdXB7Z1ZWVlYLu/J4+s9y/9e+RCdj2YEpo5PkOFkbr7mjeW39A29pKGY7410i14u/SEw2C9G/Si4ZxLKZcvX758+fIgGT6Io7uuG41Ghw8fPnXq1Nra2ng8ji1axva/rocSvhnXzf/zn/Hu9mLlwGg5i3crluSbPKiaiCsHnlFOVNjMQ7HzpVu/E3mnTTN4BFiY/I2fGHWTUTJ7zO50h1eKDCibboV8G34axLa6Pu19cQDMjvz87/d/666/Alh/w80NjVFk8CHi6xowARcggCtAGmUjJwAg0VX0p/NEwdQd1NMy/96/ZubNMTm4QHcJiRGYds7P/cpJXCVp7dOoaYbsXWoQ/BIceJ/4hBjcuJMsOXdWtAQxDbh+0fDueOf5L/7rKsQXoSeJeMXkASf97fivDLEqGGNSK06bP0/Clr6N3qrZwEFXLpc3bNjQ0tLS0tKyYcOG3m5ZSqmgTKu3Fahpmo7jBJeexsbGurq6AQMG1NfXB025e9cEQacUbLawdxI3YMguCynmpUTi4T+8/fqv1o04t+rUqyaUSuXdyV0X1J0HdW5EtHbt2meffbajoyMIkHueF41Ghw0bdswxxySTyd6n9PdOhhIe4EGrBYusp18u1du2Y5J4t+37n4MkHVRYrAMuK1uVNsowUVyzcMH9V6kViFkolUEjMejAC+rHHYJIGsVWyJznDzCE94Hb3vITsK0la9aM+upXAdxxyZc/ddjBKJU+3DsIfJ6WBBF85mf8VLMSwiwXUFix5pXHO9562G0FcTAJ10HdYQcOmnqM2TCWfAvFt8FimejolLMCgddXoWSrSMbVFvKJutgxhzFhfehjucexKT6umMMgoEnrTCH3z3Wvf/aFm9ByNziQOnxi7eQf7nvqJ4ZN4mAMUARoMGjf93sdd11dXUFvMsdxgm5lQZ+TIGIdeLY9zwsqXAN7OpVKBVHqIFwdPCZ4cPjVDtluaKZICR2z7eduX/vqL5bWfyJ2zs+nl9zyruBE/4gIIWzbLpfL2Wz2jTfeWLBgQTKZDBzyQ4cOnTZt2ogRI/rfFg8lfBNSQ5fy+fv/lZYlsLhi7lYrHBlk1qhMllthWPAB8j0e0bE60+/sXPjcqufvKq7srPCQMWHUonrfE+vGHhCrGwkAngPfA5T0NYHAde+5vqXDnmkgHjn7ml/c9err4wfWzvn5L0zSSitoRlD6PUNPiDb1XiUwTWAMhgkoGIBnZdsWFZbP6ln4r3WrVVwioZD1YAxD3bgT6yd9wqwYqJUgpwDf08TAXVJdCvWABEAgxSRgONy1ulzv+CPtxqbtdux3BzSURLDwIwmtGTGNrF98aOGr5yz5NdY8hNQ+aHlz71GXf2bkARN0Wrblu/L5XLanp6enWCwWigXOOWdcA1opKaXgPJVOJ5PJRCLRG7EO7gRdq4Jq1y0Hb4Tf5ZD+QTFf+IYv/JhtvPaP7LNXvVUxk194/WE5J7/bu+sC95Vt21rrJUuWvPPOO+vWrRNClEqlKVOmzJgxY8CAAf3p4golfDMSPtfOm2/EXngO8cHKLnzALBNivgtSHk9JMmy/pIVPXk6ZFdJMGdSZeWfu8if/qFZktQlTouAhNq6ycfpZsYZxdrIShg3Hg5fTPEJQGopI+rCDTDQOn6BhJuatXDLh8q8DuPuyy8447ED05HXE8f2o8COaa6ZcaAUGeD4MC0xAWBAKbtnJdXrZtg3LF3S9dj/WIWojJ2AVwWqApvrBB15Q2TQJpoFSu68rhJeTQnokhC+YAPO4Es7mFQUxz89G7aTroKOrMGli9IADqHcY8B4z9eRDogGCgoYbHCHPKZc8p+SWlJcvFBMbSz99++Ebi/fC6AKPoWc+csDAz1/XPjhppJdm11vRSNqOMNO0bKOqqrqqqqqurjaeShM0NLYMVIfh6pCdA8bg+eBx01r4bP7hb7wcGU+X/emoglvY7YtXArM7WEMH6Sbt7e3PPvvs+vXrLctyXffEE0+cPHlyUKvWD4QSvgkJySVXbkHe8wDjiusP7oIenKNaAhrEoAnEoBWYgptElQE/g8zahQ//LfPC67YJEijYsArQaVTMOH74zE9qu5ohB1jgNmQM5RYgs2nmJfNRSCDOx1zy9Xe6O44cO/7RK7+v3YFUXgNeAfstRBrAE+DCdaUWZHhFpkrtLau65z6x/tWX4x6g4JmIKRQYMoA1pP7AEz7Ha0eCV4KSKLWCuYCA9kGEwK4nvXmuae9bJkCCa0jDh+d5Hj/1kyJRwYIxXrrPu83sSvRGl3vvAyiVSqtXr167du3q1au7u3t833M9l4HKhYInrAE64kT0goHqrwv/iIrVqBmP7ijqZsG9OHvaDwzwNkhdKAgwT/ou06YrXajd2CcZsiujmbKkKPiwo3b7itfM+7+0kA+Q3/j7YUVG3CvoD9mhbXchGKleLpf/8Ic/2Lady+XGjh173nnnBY2BtzehhG9CQpJiYMi/+UbyhRdRUb3NKqWhhMO8hENJZciILZ3smnLLypbXHumZvZBMGAzkwQd4GlELRv3o6JBxvH5gXf1IiqRBAkwoMpjWMIwVy98e9o1vALj7m18+Y/9p8DiQUz7PdKzLta2W7SuyLUvQs04W4WdBLjwDFof0oSSSFbCnHlU/apJd2cQSlUVKCFUU5SyjIFUt9mGqPqQGD9LkNZDvyY/bhw6YGtVCk2Z7toRns9m2traNGze2tbUVCoWgGXjQLZyIgqmIvaMV0+l0bV19bUV1U1UtjwhWlexA6ZC37ndf+h5S05Fai84WVBx/y8xLTm3Yxy2UM8p1iKIefMjgIO9h18OQnR0CuaLI3epERDDlt64SN5x7HxLln9z7hdZMl6jMcmbtgbIStE+YN2/ek08+GY1G991335NOOqkfthtK+GaU8hm4xxQ5/gMPWz3dyjS3+UWEZj4AH+Cau6RqEbOBki60dS19s3PN27mVz+aWw4wAHNqH1mAa0oeIwo5DRCAjUCJtUJWIpz771NJZncUxVfY/9q4u5ld7WaAIBZDYVIKmNWDAd2AmYDchMeCgSOOExICR0YpqsKiCSb5P5Q1SJLlyQXlNSR9JITv0hxg7xjhX8FnQ3tXzPTsiTj1BmzbrwyltOwdb/QoEdnY+n+/p6QmmYWY209nZ2Tu6w/O8YFxH0KYxlUqlUqnkZuLxOBecXFlginwtiUyXLK0Slr0iWvjeW/9+cNkt6JyP9BC0r0LDiReMO/G7ow5NFVm3dF1I4UMTNEExsLAVachOgw+eiqunbn/n1T93xKO6qHi0lOzpaXXa1BXzDjEiQqs9UVaC/m6LFi167rnnMpnMueeeO2nSpO0dFw8lfBMaAKQGabDy2+/EHnsUlTVKKKag6ENO7JbMT0uRIe5ryblruQnHKBlaWwwWEgqk4BVR6Fi34m1v+axM6+uqCFaEm4EvQQIgQCEq4QM8itmi6sLFnZDixxMqjs21FxWYghkHRUAWjBji9ZNY/Yiq5onR6iboBCABF8pXjgKXjEmpDZdFImVfCSY5yPcEKRUMKPuvELRUDMLQKHOfQUjW1Z7b5wBj5iRbcbXbjeUKCq+DVk2ZTKa1tbWtrW3Dhg3ZbDborozNfdB83w9GUNu2LYSoq6urqqqqq6tLp9PYPJ/D9/0g1yxo6MgYV8y3fK1hukIyxQAO6ErDZLHYDcuf/97rNyL7OKKAGo7uZWMOufaPAw5qSg1yCnl4niRIDlKaANKkiBi0BjSo/8bQhoRsgaGozHXES/3i7H/Fu61yXZtZrik6fs14fsF1BxeL7o7ewR2GUiqVSj388MMtLS0DBw684IILtnej9VDCt4JSqvzgo0b3SiNbVaoSkWIX7Cg+zEgGUtBsk/eZNBRAGqQ39csGQALCgimgJbSEUtCAzqhST7arNdvZVijnqCShO0WuqGqGf//pNx5auMqDWvS9KwYPqheJSigBxkCAZhAmiMGTcIogD8QAvunyvulTDS71vY7zbY8NbH6KA26V/fK5n6RI3ILCrjM+/IPO8KBL6Jo1a5YvX75q1apMJuO6rpSyXC57nhfUg/bmezPGBg0a1NTUNGjQoKqqqi1navXWcf2P3Xj30afN7d7ihh01o8sj3uS/XoC2fyM1ACKN8iJgryfOvn2cNbikcjxTFNoqCZ4zneqC0x0xbV8aSioylKatp12GhGwfCHAY4i5XVc7ChzKPfXslhrUncjVtmcI37jnUqJfqg+tn9wSC4ac33HBDfX39V77yle2dor+TDVHaOWCMscl78ftXFeuL0ZJQdpR9UDOt9xL0dNvcuYNh03X7P9dvCb8Inza1ZyMC/AI1GdaI1BAvPVQCgHbAPbgK0eRljQv+dsXlgLhvxdrLJ0xByYHLJDPBHe5LiOymSCkB4ND4TydX6v2Htvh1W9n8NCLDLUtd1ItWWZPGSdp1BBzAZgO6u7u7paVl48aN7e3tQavwQqGQy+UABIknQe8UwzAGDx5cV1dXW1ubTCaDsQemaWqtfd+XUgZP2eZ9ePevwSniceT8slsuJ8qs45Q/rfFyP2t/8Z4HPosIkPSPuGUiqmceNuTkG2eczl1PlFTS4TkrkigzyeEyIBw/E9LvaJAJV8N0it4+M0Y+3vSq6LEdF0P2i6QbjWxJ7uGnpFLKtm3DMHr7GW/XzYVW+NbxpSy99FJi7utIV7gWN70+j/9ubh1DBL8I8oEItAfi8GzYNhwOVkLauPwvd/zin4/FBF752U/HNw3U+TIJVWZkS+pHU5gklbiDorKtM47VqbTYCcLh7+lCGhD8pVwud3V1dW+mp6enq6srm83m83nGmG3bwWAirXUw0iOdTqfT6WQymUql4vF4MFgzMNO37EK6PcJawTBSQ0GBac6TXOQTuGX1rJ8ufAzLbkFTPbo8+FUYfvztww8/ZuA+JUcWfMeTvklgCtCQoRUe0q8QoUwq7ohS1LJa5+dvv3Ce9NTJ1wwdcdhgv1DazXJltomgM2tra+vDDz9cV1d38cUXhxK+Y/ClJr/k/vW+iHZhbo/G/f/5XF0iBh/gkjNACJ3jsMrgNopgYkN7fvxll3YCZ06bftcVX0OhBFVQQjBpBCHVvt6xre+tR9LwOHLt5QMOsveZtMOrP7es7HIcp1AoFAqFtra21tbWIFc8iGEH9jfnvFQqBX1RDMNIJBINDQ3V1dW1tbVBF9LequuAfnsXDOAaBQENCEjSyvQNBhHnMRVni/zWQx79NQoLUJqN5EzkXoQx4/LpF503YJ8aq0L1lApMlgVEmOkW0q8QgythA4rIt037N599Dq77jTtOyEiPyeKeLOEAUqnUn//852KxOHbs2DPOOCOU8B2DI6UJnl/5duKhR1GRkhAEheBKi/8R9dwmNIFLvskm9zU082IFo6QglOIRRhWIGnfPevas634NX/374kuPPvgwle1iMABDiiL1S8mRJvAy2pNWTbalYDZEzjyV2Tus32pgE0sp16xZs2LFiqVLl2azWdd1AfQO5goeGXx5Bg0a1Nzc3NTUlEgkggHYQVOzIHrted4O7BbucaSKKBlQAlxCESnSWijlySpHZuxYzIq5SXbT0qd/fudZqAMi9WDdWO9g8GdePP0Hw0o2eW7eKUn6T+M+2hRNIYLawy+mIdsJTfCJ2T6HhlVjsg3s7Zc7x5yaznevYX6dYjLocbEHnoHJZPLhhx9ev359Pp+/9NJLBw4cGEr4jkFqzbXWTOcefjy5dAkqYtAmdAxoAVX+1+Gh207vFJNNk0LZ5u4xGqrcneAVTmLmVVe8tGLliOrqRdf/ThTL4EKKDPcSH2ICSp/sIbSv3ZhnZZnnuN6UiZGpUzUAJgHO+vpb+v5zUkq5fv36devWBd+NUqlUKBS6urq01kGnQ611qVSqqqoaOHDgwIEDq6urgxi2ZVmBWvf2It3Z0PS+z1ADRJrAgn7LGiluqyh/XbYd88qdeOuXqB4AnYUbgzXupAmnXbPvSRWtXk6Q47qMfFeItOPFbLvdIYiSD7J9SIKk3WgARciOgwCXwfaNMs81VA/+942z5j7RAk/UjzLO+faRBXRIOMxPG2yjg1qGPcKvrpQSQiQSiSeffHLRokW5XO6MM86YMWNGP2w6lPCto7QmaCjy8l3qbw/bMg+L+zzC4Wu59YFjfQ6DLhlWpEehSS1c0jXzyityrj79gKl3fvEr8HPwoD5g9Nl22BXNypYX8wzXgWeUElH71BOkGeHQGsT6epnpeV53d3dHR0dHR0cQzO7s7AxMbSFEb+OU6urqysrK6urqoBo7nU5blhXM3AzmfPR62nd1NJjPWFyxaMxqLRev3/D0zW/8C10PIdWI3DpY+2LYQTcP/sSJTftYPcUuztrt4tS//aDr3N/0tOc9rn2mTF+D9e3CM2RPRgJ2ssJ77Iblz129IT1CCNadz1WmRvRccstpOWpjXoqznIfkHiLhQgjDMB5++OHVq1fncrkTTjjhkEMO6Z8eq7vJNa7vUdpjmmnGlS4vecd5/NFUJOFEbMtzwPotjV9BWy7zTb8L8cE/ue9vV/79bwAe/e6VR06YiFIOH2aSeN+g4YuSLQnSdgkdme6Z+6amT2eMf8hM/U2vssUYn94GpVrrYrGYz+dzuVyQMd7S0lIul4vFIjYnk2utgyEfkUikpqZmwIABdXV1pmkGYexedteTmTSIlAJxjZLF0iqRiJuPdyw6ffbtyL+GnjeQ2AvOAvDJX5321QsHT799zeyf/OPsIw/86U1Tz+UdpYxN0FLsnscmpL8JMtJdy6O22p8d/0hjRTkbJ1ZOg1Xk2tefe+O+gyaYrmszlHzEGMq7vYRHo9FMJnPnnXeaptnT03PUUUcdeuihgbHRD1sPJXzrKIC0kmBCQTK/6+lna+Yu1FWVynDhbfpgNDaX925HtACVBbfzHipjM7777ZdXbqiA+/YtN9UJgickl1ySJia3p4lFYJ4o267tCq2IbJ0t5yLGZ85CIk7bUtfUW0sdtFJZuXLlkiVLli9fXi6XpZSBba2UCsb0aq2FEEOGDBkyZEhzc7Npmq7r9vZX+Z912LsNGjAlFFHJ9CMuhEZrjDV3m8zgToUhGH6z5qWfPvh1GGtAgzBgLdamgSaMbsDixy48+e4fVxzQXSi5wjckgpgN02HT1pCPAxE8FomufXnjnV9bnmhscd1hxHKa2pGJjT9r4AlfnNCTlxyeYkRqdz7VOOfxeHzWrFlPPvlkTU2N67pnnnnmmDFjGGPbqYDl/YQSvnU0QFqDSAOklOOU1J/+LiIbDGeYb+egGQ/GnfiA2M4qruEJGIpgiDdbWiZ+61sAzt9vxi1f+XqxvDHaU5mpci0/b/uR7RkXJ2iJ/3SpI7/Q7u41zTjkAKFB79bw3jMq8GP32txtbW0rV65cs2ZNLpcrlUr5fL6zszOIWGutAyd5U1PTkCFD6urqLMsyTdM0zUCwgyqv7fbudgHU5vIDCTK1dBgjQGhwRRHDLiXY/GLrV958fNVj38bEQxCLRTpSpaSL+X//7qce+HZ6/7epp7YkityLk8hHyC5oBXjMNzQ8Bs0Y2ykTBUJ2SoihpI10fqXzm888NiJqtsTThu8YXJc2uEf8ZPDUQ/bO+FnSWoLM3e5726vNsVisq6vrn//8p+u6pVJp+PDhp556alVVVT/vTyjh/xsNTb4utq+x/vYgRePM2GTFKASDuvtjD0AAEaKJPz362Pm33gzgus9+7stHHV0u9thaoRyB7W1n22qzw4E0fAHmFQslcebprLpGbE3CPc/buHFjZ2dne3t7V1dX8LNUKhmGQURBrLqmpqa+vr6qqiqdTqdSqUQiEXQklVKGA7A/PIrB9KnSh5uOFpQ39Ilvorge9iD4DqwC3n7iT59+5GR7eKvWsZSdKRdeya2bWjWoStsy5/RYSLjwwjy3kG1AMxXxRLbKqr358ifXPmEmB641Nc9km1yj5YoHTlCWlLoICKa57tP6nZ0BIjJNk4ief/75+fPnm6bJOT/iiCOmTJkSXNz6e3/Cq+SHQWloUu5rcyP//jeaBm/643+an/UPrCTaI6zpyJ/+4KlFCytjyZd/+rPhVVGUshI1XBQ/YMB5n6MlcV5W8NryYyfZhxwiGAdQLpez2Ww2m123bt3atWs3bNgQzO+yLCvwe8disXQ6bdt2XV1dfX19Y2MjgN4mKsH9fvM+7TYE027KBgwFT6sh6erkX4+CtxRUjVIBViVMoP3tJy5bOtOLz1xwx9zHvokGoAPHHHb9zfuclMuUo77OmWFxecg2wJTwRVmAGUX++yvfan+ji1wkhpuf/No+jdOSbrEMMABMGYrtPhIeFKyaprl06dIHH3ywoqKiq6tr4sSJRx55ZE1NDYAdcu0KJfx/owCmAAYt/eITz9iLFiAW5cwAtMth+v0m4wzSg+kXKDnyqxetz+SbgIX/d0s8RnlCvKz7aTc0pAFeFtIuOW2Z0vHHLcvlFy1aFHRTUUoVi0XLsgBIKYM+KqNHjx45cmQikQjqu3ozxsNzr08I5phxyRPEn1dtp71ww0UDpwysbxxaVzU22hSXgEa0YJy95K/PvvpNNB2XzFC2VuCdf3x6xm+vH358m3IkCyU85MNDDHmlKokxMtZarFa4UXhJRDoLvMt340z5BEaK1O6yGldKmaYphCiXyzfffHNQyBqNRo899tgJEybsWMMjlPAPhQ8pQB4Y5XL6r7cbhg2fgTR4f5V1AVB6Yzxan+1AsuJfs9448Te/BMOnpk2/4+JvorQOlAKwqe2MFqDtekn24JvSiPFC9wbOv93T2uRKLctgzC07gwcPbm5uHjRokGma0Wg0mNnleR4A3/dDI7vP4QpCoySYS7ySLFu4RSF4mQm3VCbfZSbzNKtmQ+86D1rY0cpy2k+vMXrS6+HVrjvxt93lQswLfekh2wQxRYrnlNOso2ulb2szT348qgwfkgXDm5j0hG/6u3wlBOc8Eol0d3f/61//ymazsVisWCwedthh06dPj0ajgYCGEr4r4Wxs82/9UyxtuKLG9LqUiH64UaQfGwJzWTHuRXtcNA7+2d13fvveewH87rxPX3z0SejpUMxlMq0AWBvgVfZtF7l3I0j4xF2nHHfb3nwpo/IHzayuHFIdjVbUVWiFwHPe6yEP2d5sSpbYdCIy0lqT1kSGbyjywaROxkbedTYScaNseikDRQO6BbJy7SnXl7Ll8BIQ8pEgkITmBB20KNLvHsi33et1thtBSnngNs9kMrNmzVq8eHEsFisUCvvvv//06dNra2t3EmsknFS2zRh1ae/009Vd/zBr1pSs5ogqqP4Zn00aMCQIJtDdfdmxxz01f/6Ti1dccdsdExqHzRw/jGWLynDIF1RMKBvbLTSuySdPxUzL7ln87LK/3FqtMPYzp3FrcNHsLmQV2B7RzGGnIjjcm0MpWgcj4TUIyhXgiqU8gl2JQgE8AelHCrqULMOursnQQosnXKV31YttyA5EQwfJGL0tJt+d2boj9qlP0FrHYrF8Pj9r1qw5c+Ykk0nDMEaNGjVt2rTBgwcTUf+nrX0QoRW+zWjt+yQKs15JP/gwKpuRVOif2kdS8GwZcRVTRkHDgNJm03e+3tKZGVNT9frPfmk7ZWjPj8WEUwDs7fYNIlAZLkcysWHJq+1//V17CtOuvGfF9EPi+bVKpxTzt892Q7YZpuAKMIWE5D31fK/rmlFVicIAJBdgFd7+zkq7TfpBrX5/VFaEhOzUMMa01pFIhIieeuqpN954o6KiwnGc2tra4447btiwYTt6B7dCKOHbjtKA8hjKT78YfeV5XlkNHswp2d5HkkGU4JkAl1xxR6DOWrB87Yyrvp/1/EOGDHn4qqsiRadsMdvVIA1oEEH3vTdLcSIuSMQ61r2+/E/XCIWJX/jhgrPPMCQjKdlu3cxh10IDhoLLAIYkzExE3rL4hWudt78eH3/22BlVbX7J0EJBQSFsoB6yZxO4zZVSDz/88Lp160zTdBynoqLipJNOGjJkiBBiJ/Gcvwd+9dVX7+h92MWQIEZgmosB9ZlMPtLaBs2dGLQ0OCkQba8bSDLGNMAYNLQFKuRr6xvSduThefNW9fT05AvHzNhfuG1gCZeDtEGSYPpQfFNZed/cGJTnUlwoR5az7XOfJ42qGQfUdUWyg2qZH+HaJYLHNJOin6awhHwABGgNIkgCXCXBDqsY/q3a/aYlmqycVzDI9MnlkvSH77AXErKbEDSCBMA5t227WCy+/PLLjzzySKlUklIOGDDg6KOPPu644+rq6jjnO4/n/D2EsfBthgMgpklzw0ofcXhXV09lWxvSliFNGNuzUDwYS8oAgBHB910jYnZ2XXTMMUs2tF735OP/99STezUM/OLhn+hUPVUlpgwGqSBVME+sD/eDpCRFMDxGQjNAgytTrl8dydV2xgbZknFIrmgbOq+GbDeCjAih4AstpJ/F5jAHg1CQDGK3Kf0JCdkWOOdBzLu7u3vWrFlz585NpVKe540ePXrs2LGTJk1ijO2clveWhBL+UQhMS82JotH0p0/N3XZ3Yl2HXx0Vsj8TsIXwDJCPjtZrTz/rhRVL3lqx+qI7bhtcX3f0XmPg5Rlzy8K2pbGpL2efQSAmScFXjHPpQRsgJa2YW/3aovXHDRQ5TYrb0i9zh/py6RDycQldIiEhAUKIoOvU3/72t9bWVsuyIpFIKpU68cQTJ0yYsOVApp2cUMK3HQoMbQIARjCj0VOOz9/2QDSXRTzWj5dJyaSvhO0ZWYvKz3/1exOv+tqS7uz5N/7fK//vmsHVCWRLTPjwBRj61DdAm94jkVLKsOD5ACfYtr12Y+PqdYWKpGRcSQ5SoWiEhITsVJimadv2+vXrH3744VwuF41GGWPpdPrEE08MullgFxHvgJ3dS7DTQjq4aQ2tK6vFmZ8oeC5cCabBCETgcjvGxYmkUNLwmA+mYiiIaKV8+PJvD0lVbCiUj/jx99uyDihlSOFYGsE0sT7bNEBQjIGR65SlBAcUGUpXIsHjz81JMqNEviRGMlwghoSE7BQwxkzTTKVSy5Ytu+uuu+69916llBBi5MiRn/nMZy655JLm5ub+mfDdt4QZ6R8LjaCZASnle6tb1J9vtOOjmZ3zbV90NKNiLdR2kzFNm9LONQfXyEkMqH5o1ktn33xDzuGHjxn2wKWXxWIO1icQ96EkOCQHabCPOWVcwzW4mVeojXW+/drS+35rAXtf9HMerXY1zLbWjdPHZodNkapsKEeFjvSQkJAdChFFIhHHcdasWfPCCy+Uy2XDMEzTHDFixL777tvc3LwL2dzvJ7STPhaEQMbhMm4PHlC+4MvyT9czq97RA0TtXLhD0E9d/gkJlnXajtv/sBtyzjm33fTk229//i9/vvMzl7Y3rK/JV8Bg0OCSlMC7GyhtO1obxMAJkHBKWkESiAyQNjRQadc/ucgdNKJocJdZpvLD9mwhISE7hCDVXCk1a9asZ599tqqqSkqZTCabm5uPOOKIioqK3mnIuy6hhH8sNECMSMEm0sywG2tL514ob741Vt2paBjsDGS/TH2H9gwrmdWuWv3pw47odDNfuetvd706O2Hc/IfPXgjepT2CQdqX8PAxNZUAXykDSUA6uTYh4CswYaLs+gKGFkhHUnPe7Dli31gnfBH2aQsJCelXhBBEZFlWLpe77777NmzYYJpmMMv4gAMOmD59enAfu1TM+4MIJfxjEfiyiYE0CCgyRAYPKZ1/Vs+f70hXeZoYMY5Nhvp2PFc0lOkwcEHKleUNXz74E8s3tv72mWdvevH5xmTye2ecRoWM9DljnLRS9HGLvYRSYIBCKdcBQJsAN8BcQRpEpZRMLV9WM2xwsa4RftipLSQkpJ9gjAkhDMNYunTpvHnzWlpabNt2XbexsXH69OnDhw9PJpPYLZS7l1DCPy4EKGgiDVBEMo/7kaHD6JxP99z6x3RFrZ+wSBKXTAm5fdOzqZyLqEQXLyc8zvLXn3PehkLh3tmv/fjhh4ZWVnzqyGMos55c07GE5bvqY60nGMglxaB8r9DJJdwoAAHpaIA0TGXARnL24typAyGDzt0qyKkLy5pCQkK2B4wxy7I8z1u+fPkrr7xSLpc557FYbNiwYXvvvffo0aOF2D3Fbvd8V/0Mw6aOLporUwvJtDWimc7/Qucdd1S5cGrJ81I2StjOS79ESSAG27cAaNXzt89fcnjXD59ZtvzTt99eEa045tDpWL1WizqQyz6mS4Ckw1KWt6HQvRgalUNGg+ySyETythMnLn3YlZHcxuiCxbmRw7gnmHIVd6VOMJTDCSghISF9iBDCNE3XdV988cVXX321srLSdd1kMjlw4MAjjjiipqZmp5pK0ueEEt6XBNltIPK4YQwbHDv3nMKf74zlgCigtt/ckd7Nb3bYE6RrCNlx75e+MuOnV73TkTnhluv/yfSxB+1ndy6EHAj6GEl2pOFHYLhQZT8DppBqGg/DhOfAjjBdFNrW5DHDSM9ZIEcPzQhl+9zwmeR+qN8hISF9AhGZpmlZ1rp165544olisUhE0WhUCHHAAQdMmzbNtm3GGNFuXnUVSnhfIgHOwBU4kSbDGNbMPnNm6S/3RUqEKg3dfwImQL4hK+PmE5d//+Cf/3h5Z8c5d/7x/kj04Iljkcl9XCkVwrLL7sYWWYTSqG/eB2Wfk1bSNljeJ0jLsoQTz8j2l2bXTp3WwZjYfsV1ISEhexKBeBPR3LlzV6xY0dXVZRiG67qjRo3ad999hw4dGo/Ht0w1341NcIR14X2OAggqmA6mFNNMyVUrvTvujlscdlRRMEpeb+/5pD7B9A1fO6Iiva6t5xO//Mnb7R0VEfPxr31735GDkclBMSUUyY+wriAALELLnnuoc85jFMPUC3+PrphKvc2c4fBbtYhKHRWUgya0Z9pPOnpjbY3luBomwdsO7zUkJGT3h4iCIrHu7u6FCxfOnj07kUi4rptIJMaMGTN69OiRI0f2KrfWeudvb94nhBK+ndHwtZStHfKPt0aFhGHmk5H4egNVZWzv8RKkNzVDtemdjd2H/uzH7SVXQb/5navGDx3SylvrNqS9tDRcuc1Bek2I8Lm3XOT0oLLJHn3a7+DlIU0wD+DB6gVgII0uryuN9lNPNHosx17P/Yowoy0kJOTDwBhTSmFzqppSqru7+8EHH+zp6amoqMjlcg0NDcOHDz/44IPj8fiO3tkdRijh2xWlwRwoS0uV6S799aF4oRvw1tVFGru2u4IHMM26IvlK0Txv2eIJP7sa4NVR89VvXT2sJoVsF6y42vZCccZMxfSc31/MHVTtd8iQGZ9Wpdz7H6ZJc2ki05WZNHHJvnvV9eiScCgMh4eEhHwIgki2ZVlCiMcff3zp0qW+71uWpbWuqKg44ogjhg0bZlkWdndX+X8njFBuRxQ00zDANEEaqScqjGPKMUuVGlsUYpz1T98ypis7ksWaFXuPbH71m9899NqfdBTl0Tf88tlLLx/QVKU6CkyLbbaMLSu3bh6KcID6cQfAVWzrcQECJBIsOmdu4/ih3UZKaKcv3lJISMjuTFDebVnWihUr5s2bt3btWiGE1joaje6zzz4TJkxoaGjYFfuZbw9CK3w7oqBJQ3lyyeLFDzz6UE/BfVt23p7eK+X1wBKgrQ4X7/04+mhdqeGYZOW9YtKLRoc+99arp9x0Q2ehPKKu+sVLv1Vbk0SxBASx+w/Xf4Y4TPbmX7/kt4APwsRP34RCGbTVs4igXccyre5ctqpqw7EnoJTbc1fLISEh/4tAufP5/Nq1a2fNmlUoFIQQSqmhQ4eOGDFi/Pjx6XRaKbWHxLk/DKGEbzc0oJEpF/51/z/mznk9Vq9Ve+SQw48cuV9z9R/ujZfyqKiE0mAamqAVoMEYIKA1iKDkplYoffH5OIysouhMZKui9Y/MmXX6bX/yin5VwnjtiisH1NQgn4cwJIirLeu+6F2bZlopxpiGYRUzrYt+932k0HjgcfUTT0FxK150ACAGlYNXBRSQy7SefWKXnSLfN5TyBPWTEyIkJGRXwLIsxlg+n3/xxRffeeedeDzu+346na6trZ05c2bvMJJAsEIJ7yWU8L6nd1x8d3f3LTffXCwWM7nsqOGjjz3uaEnaLzg6UZF68qGaN9ao4QYrpzR3fSOulGk5nSCC0PAYbMAhCAWm+yYDjADNAIWq2n+9POv0P/zWkzSkIjHrm1dVD4yipQeoQMzdHBknaIXejnKkUba8aM4oJ5Fgq+f8s/35R0s5TP3yVVZ0KHQ79Na+UaThRr140chquHZXcW3m8xfmtagoZbpNy1KEj9uvPSQkZNfGNE3DMBhjr7/++ssvv0xEUsrAFp8xY8bUqVNt2+Y8HHj4gYQS3vcEhQ0LFy68//77pZTFYvHss8+uqawquCWlQcS4VOVoomrhqw2PvICmelgWfA+WCRFDsRUUg84oJpgbB5nghT4tKCepXV7Z9ODsl0+48XfQ2GdAw+OXfb0mxjNmKVWIghSIoAFSWywdVJmlbG9V3t4nUn571i1XGUBy+OhRx18mi4p/UM81RihKP0IgLsoeyqWOqVPbxo32HST9ose4DlPbQkL2SIJot23bq1evnj9/fktLi+/7jDGt9ZgxYyZNmtTY2BiNRoMH78nZav+TUML7Hq31smXLrrvuuurqas756aefblmW5/ogHWixJnDN3FgssWTVwPvu42OHrn7hzrbXXxp+7NkVIw5EOaooL1E2SEKij1MONYqGjLpFVDT/9aXnL/rrX3KOs1d9zaNfvnxg3IKS0FC+D8Ngvgfq3bTyyDb8PNJVy5+5JTv71ZyBGedcyZODfdklfHPrWkwEx9UWfMYMBTieai22XHBixqqN+AWfKMxODwnZowh6ncZisWw2u3LlygULFrS3t0ej0VwuN3z48OHDh48fP76mpib0k394QgnvSwL7u7u7+9prrw1O04svvthxHP99A7tIE1PCSaCioz39xBMv/r8rB9djjYvKAdjriMvMimZ4FYo6mGQAgfnQgOaAAqlNLvHAK77t++ggbvrFYsKNmfW3vfDsV+78S48vmmLGi1dcOagmhpKHaAxuGZJBeoAC44CCyoPtAzXrpVt+FvXg1kWmffqXyJUV5wwfNI6MpCF52QRnZeHankapkK+v33D08ciXNfPCfqshIXsOtm1rrUul0nPPPbd48eJ0Ol0qlSorKysqKqZPnz527FgiClLVQrP7wxNKeF+ilNJa33///W+//XZnZ+fll19eKpWC7gRbQwPkm3aF7rFuvW3ZDdcaKeRjiGWhGzH5zGtBEchORZq6ayiiwVulSHEnBqXBcuAFIPmRst2UAmMK4BLxAfe+8tRpf/oTIAan7dnf+lFtVfz/XnvpjMqR1c0ecsmSmYgU2oGqfMyNm+UFt34j0wOmsN8lP4ZboZgN3sp8+4O12Ic0ASozlCLlii7tlWTPsdNbBjbbJcU+Tqv2kJCQnRjGWOAbNwzDMAzLsp5//vk5c+YEgW3OuWEYU6dOPfDAA03TDM3uj0wo4X2J1nrVqlW33HKLUuqMM85Ip9Ou6/7PJ0mqYFG/4cl/lmffu/yJpxmBGzC6YU8YO+ygs0S8XvGC4xVMp5K762EQdFQJG1oAxY9myNKmaSwgz0dNwwMvzjr5zzcCmDpo0ImTp3z3gftvO+ez506drMs+qEDwCsKOWQ1d8x9e8Mw9kTKqZk4ZOu1seMrXWkim/osSE0Erpg1IF55XSluRNllicuMXzs6XpC1lePKFhOyWcM6DrLRgdHdraysApRTnfPTo0ZMnTx4wYEA0Gg3F+2MSSnhfopT6+9//Pn/+/Pr6+lNPPTWbzf7PpxDIEaW4b3t2svHl1+zl81YvuHfVgjdtD5rD1xg4blzjXieZNUNBPSpfIc0epUuWG1HMhC4CH/0LwLR2Y4b2c1a84ffPPnPFnX/NgcBI++KIoY2PfeVr5BbgutKu5pGYs/GNV/7y60oBWY+Jp/0OPvepQ/im0lF8UDobgXmARVnDU4JMhWiPkomM7CmbY45cvv9eslD8yDsfEhKyE9Lbybyjo2PVqlXz5s0rlUqcc9/3m5ubhw8fPm7cuJqamuCRWw4jCflohN3Z+hIpZVtbGxHtvffepVLpwzxFQ0c8o8gFld23Dh9XX8OG8MiQqacveehv+ZVvxSx0zVu44o2FgyaMGj7+k7yKEZlKEshnfg6GiY+zAmMwcxpuAnrpF2ce/vTixX9/bU5E6RKTT6xYsby9Y3itDS+pWQI9y2Y98Ot0BLk89j38x1BlrTnTFrhmvvuBLdY1ZATcUcm8AWUikkBC8w6TQ/740dsnJ88dPWqU97+9FCEhIbsAjDHbtqWU7e3tTz/9dGdnZzqd7unpGTBgQENDw5QpU4YOHRoI9h4yQ6x/CCW8L3EcJ5fLSSmbm5s/hAt987MEM1TB4zRqld3dvN+a2qbqO+4eeeJpYKctfuru7jcX1FgoLlz86qL/hyimHv8Vo2o44jF4eThBWRaBGCABgiaQDqaebnr1oFHMVtEMRn5VTXpIfsTV/7zr76+9CcZcrYWSWtBTby8eXncAoqYQrbNuvTpSRqkV+3zhS1Y9sl4yKdeTVwEAogDYUBoM0HqTk15rQIMbnAu4nbDt1Qn+wMrnvrJh2TfGHXHVRZfcfeTxg9s62ZjwCxwSsmsTjP40DMNxnIcffnjlypVB69OgJOyMM84YP3580Mk8ZHsQOtL7kpUrV/7pT39Kp9NnnnlmoVDYlqcSAMk001rxSFKVov94uqJlA0YN8DrXtS19Zs3LLzMO4cPTMKqRHn7Y4ImfEJEUQMp3WGEtxCCt89rwybd9pITOECn4zLO58LcecmaAC266LpKpBxYt+vucV/82d44EiITW/nET93nw/AuKXk/rT69cWY94OwaedPzAfU70Mz5DDsQZaaUd0pwgHMu1yj7MCJSPkodEBazIS9n2B5e+9o3DzporS0c9eselFWMmTNpn+LChgwY1WYaQ0i+Xw5bpISG7HowxKWWg3Frr2bNnr1mzprW1NagZi8fjkyZNCsrDTNPc0Tu7mxNKeF8yf/78W2+9deTIkccee2yx+BEDvT7TlmI6wSuenlP16psYXOsmKkV+Tev8FzYsebzQihhBc3gKVaObqoZMrxy0N2KDNHXBi8DT2s8wXvRNwaUBZUGTJn+rsWoGVeRRE55wi7Bi4NjQk/v3onceWLDwpSWLul132ZfP2/DAbfEauD1oOPjQQVM/5xc2CC8HbzBkF0ytuQnhULEMOwVRgWyxTWeqKis+9c4br7nuNN+MVUU+d855FVbUz5YbahtyyJMmx3HCLschIbsiRBQkmQNYvXr1smXLFi5cGIvFlFKGYYwYMWLEiBGjR4+OxWK9j9+h+7v7E0p4X7Jw4cLbb7998ODBxx57bLlc/mgvwrTfY0VtKRKmK1Ytjj/6SqpdlSYMiPhxoCvXsmjxKzd7naDAWa4gfQwYU9+w9yetaBXZlbCiXqEsKAHf80XWQAkyAvqAwjatNVOeYB4xgohCQcQA2ZXtuO7e2xtblo8dbK/0o9Wj9tl75KEDK9MoFYpRbut2pgh2PRxgffuyVMULuue3bcutstcQS93681//5ea7xzQNHTV9WLwc36DzJKXQqtPyq4p86yPNQkJCdlZ653b3tjF/5513Xn755Wg0GuSjNTQ0NDU1TZ8+PZ1Oh0vzfiaU8L5k5cqVN910U01NzVlnnZXLfcDwj/+Fx3l1QbfGpemzYiQ6wHG9O28bVO5BxPCsgwxrDVgGjrfu7ddXPftPrkE2ChzpAhwOXoEBE44bNGoSOAfFwGwQwfMhfWgNhf/UkQe90RQABuJgJrQHW8LtWfzsXzeuWDYijkVu/IK38usF83wWtfHr08/+wv77Y20bqppL2rtr2aJX1i/5+tcudgvsa7+9/tBPHDlzysRRzYMLmYJM2+R7KleSlml5IECTtDzkLb71kWYhISE7K0Fht2mac+bMeeWVV5RStm1ns9l4PD5kyJDDDz+8vr4+UO7Q5u5/QgnvSwqFwvXXX18sFi+88MJCofDRTmiuqGDopKd8xiQxzXRcmHrWy3WvvGZWMD9aK9wYuEKcUPKc7lWta15rWfgKKwAcXEIraAmqhh1BvGZyvG5EqnKYmUqDMXCmiREAMGgfCmAaWgJOd+vK7pXvdLe8RBsBAxKAzS9abSzqlo4GuG9KYibd/+XLZ4yfNP2pu2pEalgqPWH02IMOOMCOWoLIZIZ0PccrK8a4lERMgSsmhQ/F4DPGFSicaxISstMTmN1BYXckElm8ePG8efPa29uVUkEDtcbGxunTpzc1NaXT6S1rw8Iisf4nzEjvS0zTDPr9trW1pdPp9/dV/TBIpiMSDmMEaPKY5Bmpk9NmFCrr9dOPWoWc1+C5iMQ6BGKuVTeiqW5w0z5Hlzo62te+09M+P7d+g5Ywe+B0wmmbu2HhXOWCm4jEwaKwYkM0OLcsDXI9xyt1s57OYidgAiaiJWQtmEUMnDRlfU3z3DfuiZChSAvFy5yY9P+6cvGkr1/2o2pr6IDBDQ31rusWi0UqexIoIshNI6a0JqaDt6KgGACID2xRFxISshMRDCAxDKOtrW3FihWLFi1yHAeA67pNTU0jR44cOXLk4MGDtda9PvOwSGwHEkp4X8I5TyaTnZ2dixcvnjFjxkeTcASt0wAATIFBMYY2JTMjh1UN/nT07sdTKzuMGs+JGZYnfd+UUgg0GPXRpgHDm7zDof3sunXta1/r3vAayuAuJEFpOFmwHjjuKrIQBKSZBnkoRaCjsMpIcvi1aB53uD3+oPmUfnbefOJCSw0uIbnQMBVjqVRG6SnDJzjM6+np2by3oSMnJGSXJ2imViwWly9f/sorr+RyuVgsViwW6+rq6urq9tprr7FjxwbtUUOp3nkIJbwvIaLGxsZly5Zt2LDBNM2PnNG2BYZWKqJcQ3pSOJ00IP+F08rPz4q/9HIsYcKuF+QI0rBb0DMcRgmcfG4khw1PNI8mdRZcH/DhyWz7mq6uZV52WbG41s+DlcEJ6VRa20mzelBlw5hyXfNj5Z56na4bMXHcvX+urqm7cO/Jlcm7C91FaO2ThNLSZEcefnikVMqRYjK0qkNCdnmUUqZpWpbFOW9paXnooYeKxaJpmlrrRCJhmuYxxxwzceLE948eCVV8JyGU8L5Eaz1jxow5c+a0tbW1tbXF4/GPbIhvxpdCe4DpW1rG42hzMon1M/cf3tRY+scTEX8dkmloU5fqdXQN8wQk51KgxEh1w7A059LnZNjJpvHJweOhGLQHpkEMgq/N9gxksacLmeu8Yv7ttmbuHXr4xNEzJz0won5QdTIWr62tt8886yKmlCIA+pSjTj5gygF56RLblfS716Whg943mvpy/HpIyK5Jbw/z9evXv/baa52dncVikXNummY6nZ48efLo0aODccnYLNhhqHsnJExn60uCg/mPf/xj/vz5hmGce+65H7k6fOsvD0bQADzTNAyWeml2zfOzVZXWVoUhXddOwCOT3IJRipWMfCQWK+bI0mAKvgWrCrlu+Nk/FPkcXnozlymvW3vHD64pu+6altXDhg8dWD+g7DiOU+aMByPXEonk4sXvPPTQQ+Vyefz48SeccEIun9tVvOYKDIChFIOvwSTjQnkSiYydTTqGJAEoBgWoj9NnPiRk14IxxjmPRCKtra2rV69evHhxZ2enZVmO49TU1IwcOXLEiBHDhg0TQoRqvUsQSnhfEhzMZcuW3XzzzUKIc8891zAMKbfPSE3i5ZhR05NJ3/tYpKdF1tZCgxODJ+EDCR9FC7EO5BvXR4xX/O5fr5p3Yqr2myd+6qJ//a0hVbfX2AkT9hptC+YqCYNLKZXj4t01ncG33bIsKSVj7L8OTt3ZIAHXh1BgkoQiYem8y8nyhO1R0fK4JkApiI80rTUkZNcjsLlLpdL69etffvnlXC5n27bjOBUVFbW1tSNHjpwwYYJpmmFu2q5FKOF9j9b6jjvuWLVqlWVZ5513XiaT6fNNEOAyzZXBNfcrWMNby9K3/wMNCaQlUo3Imp3Vib/M+/dX09OuKix7ridfQzRs0OADD5g5ZshwN06mB+bpgi5pJYViAEijN3v847DztF1TCgbK8WRS+l6M8p0+i+uatmgu7QzU3npHqcCv7sNi+JjBjpCQnYstv4ZBerkQYv369ffddx8RCSE8z7Nt2zCM/ffff/r06WEP812XUML7Hq11S0vLjTfeyBg78sgjGxsbP/zIkw8PUyAoRzAoDtMy0FP/4KzykuXXZdc8URsb0JHXRXX5z75b5xntZaeusjLGhOt4BeUI3w+CwT4DkyxYan9M/Q4KUZRSHzv232doKKNi4LCf3H3O0cfdfs1982/5zA2Pzh02kH9jUeHJo5oGJqJclgjKh/1uCe8NnW9xry8I5s8ERv97XjlosbOjTR7aPBLnv18Q9OYH/+dZ774TslPAOQ9asqxbt27OnDnd3d3FYtEwjFKpVF1dPWnSpLFjx1ZUVAQ9zEODe9cllPDtgu/7999//4IFC4jo/PPP74vU9PeiwBSDoXwNAKwkzFqus+X8X//x4KQxExsb6+rrG/1y0dOuSdxXvqc12/xEAAxss2yrTQLykb7FnHMisiyrsbHxtddea2ho2En87RVJs/a6N976wr6DY6V/rrXP++mr1100ZGrTiP2nP/ztm0Z8fr8mv5hVEAye8JkU8ME4mAtmoaxgcOEKl0rMJPgaioFDMbCPEhMRSimYjlGK+r6kSLD28sE0YwQlIRyGCtdxBOl+jMozKB8GgwTAyBdclv2ILR1FEZ+9Zx3WK89KIcKUZqxISkjOSJU0GVwxzVwFK1TxHU6wmLYsa+PGjStWrFiyZEl3d3csFisUCvX19UEP88GDB0ciEWwO/CGU8F2ZMCO979Fac86PP/74tWvX5nK5Rx555MQTT8xms327FQbFFHov+lHfzUjiIvaFT58npS+lLBV7gm+oAwkQ2yzRm1VC/cfs/qjCwRjL5XITJ068++67jz/++Gg02tjY+Morr9TV1Xme91HfWR8gGN5pKf7wwJE1ws0WrZVtOWTl2ROGlzMrz/tNxWdnjEC2BcxwmRFRXslURNDwmZYxTziG5MzvLFdXRArc8zVAwQH6qHn4HldMA8zyREwSGHzSxKRL5JVRm5IbIsrsNiuiqox+7V4X5PF5giiDCq/kpSOkdS5jROL+llJMCmyT0kMTHMksxTSDlkpUIFWOCS/nFYQZ8zfNvg3ZIdi2TUSFQmHVqlUvv/xyuVyORCKlUqmxsbGysnL06NETJkzgnG8Z5wqVezcglPDtRSQSOeKII26++eZCobBkyZLBgwcHTY62ExpgWkvPLcr+c2UzxqLR6Jo1ax5++OEHH3xQSrl69Wql1PYIHGwTUumqVOLcatVRVCPS8upnWtJH17qeI33jR4dNQHadC67BDOUL5bpImxJCKY/LrCWirqyMlkZc+uKd3xp8wHC75FqA0OQrpti2BxtIo2BYFX4G5eplPJF0Cw5FojGrISaSboF5K+cbYwaV1kXQLZFgcPrNoa7Agpz8SCw57JZX8NLapbefa7V31PiqYGKLVvY60G8AEkaKZUpaOFA+M+Jw2lX9Wfe+9NypI41czmHx/+WED+l7TNMMot0LFix49tlnHceJRqNBqDu4BE2bNm1H72PIdiSU8L6nd207fvz4I444Ys6cOXffffc3vvENIcT2DhX3cypZkKne1NR00EEHnXDCCYceeujgwYPnzp2bSqW2Vx7+h0YBKHUavKq17OP17Pe+Pd6TvuRMuhzMKLGoUJ6t8mTGKoyMVrbjSwYvLs1kQhUZR4+YNqHBKXrQPshHry2+rbtBqCy7Il3XfMsizC5D90AyrGxDYxq1A777mcHfGt+9XJkVRaNs5aH7ebiyBqC13q+i/pUh1TFVygvLFcp410enAB48MiLw9MbUEIMaK3hZKcvCj15ZvPArc5ceO7mWSwpDcv1FkJImhDBNc/78+QsWLMhkMp7nMcZs206n0/vuu++oUaNSqVTQpGUHWttBYt0O9Nj3BvV2kjTbPieU8O3LoYceumbNmkgkcuONN1566aU7T7bXNsE5t22bMeY4jud5kUiEcx7cZ4x973vfu+SSS+rq6n75y1+OHj16O9bRfTg0iEHFLINbacsvb8gRfD6xhpNbMCL2/83Of2kfZUhPwDUj0fldxm9fzBi864tHTaLWlbUVxvi/rhyfrsUo9vl73rli79rBTZXc7dIwtTJp23PXGZAzrEa/2JjGOtG68bYzUOj2pTWny73xxQU/ufilJVeO/MMhjZ1GSekkQ1mQtA3BGfOlKvuQWmkQ09BEBlOm4JyRlBKktSalqeRrgynBuOMrS3BTkCd1yZMABGMmB2ektfakdiQ2R7WJkTaFYXAiSVoYMd0DFo3LXEGbhlSMYHEmmAS4r8j1PQlBYFUJ+1O/eP7Pnz1yhO3CVznH/f30xssXn1Oj3QIVDB3XpE2CIYTg2pfa9bSnCVAaTJAyBXc83+DcFIwgXQXH01vzvWuAYgaKPllMG4KIyPWV4wObvf8Rg1xPaSLbYJzpfFlKcIIWDJYgwZhUypHak6QJTEsFzjb/L2cklfIkORIErYgs5lvcIEbK9/OSSEExMK1BsDkzOEDkSe1L7QaJJCBbKINzjeCltKc2NQ7ark6UYFZ3oMqrV69etWrV0qVLlVJCiFKpNGTIkBEjRgwdOrSpqWnLfiw71ltORJ7nPfPMMwcccIBt2/2/A0qpBx988NBDD00mk9jRR2N7EEr4doSI4vH4Kaeccu211yaTyX//+9/HH398uVze4RbqNsE5LxaL11577RtvvHHVVVeNGTPmd7/7HYCDDjpo3LhxjuN8/vOfV0p97nOfk1KOGTPGdd0dlc6mwAytLFlmieQPXuh+otSz6JiGP69kYE5jUmQo1qiK1/y/e7/5wKfdQtk09cvZAadNunX5xk8pOCOOuOcL35lwdaNa/fmZB/7f498+d/BXJg8pZttQ7iqzGIEEih8hY0sDhtKKkZAmDK5yPflCAShOjNG/zhx3Iov9/a62Hx3eLJlhUXcMtF4MeW7l6tnrCtMGJT4xRMRdU+lizmTV2l3rVj+/qmv+xtzMwQ3M55JJm5ePGsiW52qX59qOHVnx4pp1/1pGM6vo0GG1Gl6n681vp7c3FKoT5oQGY5+EyhRcx7RjKs9ilS+tyP17rT+q2jhmpK4z4/CKZabKwohJbUbtV1q7FnQN8r1V4yr4YSNqO7vyCVPevUJhoVqxsf0+Xa284imNYm02N7vDO7apIiIjBW7WQiz2xVsr1/x7ReSYEfbkIZEhvKvbSyW8XAaVT6/bePK4oa+3tD22qlvZ1Yel1JQhVk85Tz5nCoqRAjeVU2Z2ynRuWRH95pjsM63p51fkXN8/qDk9Y4C3zqEqpywj1n2ryjNHpJPKe2hRz/Pt4nsHN8SKayzTWudaL62Uj6xtOahhwOEDrNp0j9GtWiIDarw1MJMdjvHcGndBuzO8OjW5whmXcNt5tFl2vVEe/fz6pWvbysPHDL04lV9m6eoe6onTAB75d3vhjQ2yWPYPqBMj68UgRV2mn475z61IvtjVnSiXRtYmxtfHqlFSWittKbZdQiFEZNu2lLJQKMyePXvBggUAOOdKqYEDB9bU1IwfP37kyJHY/hKlte7o6JgzZ06xWPR9PxaLCSF6jexCoaCUOuigg2pra3v35IUXXmhoaLAsa4fIJ2Ps5JNPvvnmm88555wtq977HMdxWltbfd+3bbuuri5Yb22nbW1JmJHeH6xYseKGG27gnI8ePfrII4/M5/M7eo+2gcrKypqamvb29vb29rFjx5588sm/+c1vfvjDH95yyy3z5s2zbZtzXi6XU6mU4ziu6+44h5VmkAqW5DwvIlMnPHzYVbX3nbt/+ooH8Fas5a69E3FK/m7Foq8dpXuWp9xSwawcNeyBp+cfu1ekJC3W8MkXHvnzsfvYHSUrPfSIZx556LjJ3pp2kTZVWcJQTBtKqY90dVbgtTFM+vu61S+uaPnNJwqFfGB6ciiZqh911sMHnz34viOqMn58jXIOPuHviNfjoAa80Ap0vvnP8+1CLubnW1j99Bl349zBB4+uevaROTCnIrp2/ynNzx9rfnm2+3+PvnH5kftf8705qBHpEwesOrP2lXZ99MSncGA9Jqawogcb2U1/OPD4VGvWtVMNtfUX34G3B2CmjRUrsCh/0JWfeG5uV/a7gzbkKJUU9V+ehWUuRluwJRbVYFLG/eHIO+f7n/neAoxvRs8qFIHC2ra/X/jT59qv++pLb88+xNgYkZVdLy7Pnn/xUgzyMLEBz2TQnn/gnydO4t3FCL3YQhd8Zf5XfzLh14f/DZ/fF+tbsJaGf7Z59umDWvOSwQdIM60V45oj1TDylJuPOf+If//0eRxIUPWY3zX1vAFPnpJYVhpZH80N2P/J+x885ZNfexLlMrJdrf86Oq/t2V0466zHUZ3E/s2Y/yZWZG+94wuH1Lc6ZS8p9AvlhtNOuAtDqlDrYqnA6J51v/ikKjmv5/lJh96BadUYUodnVqG5tuXGCWWpIiIy4BsvYH47DhuJciteqMexxdavT3UUb7rkZSwp49A0inm8lsBRpZavTvUznV1mQ8zP9WFOX9ADVQghpXz66afnzZtnWZZhGL7vJxKJ6urqQw89tLm5OZgN2j82d7A6Z4zdeOONzz333F/+8hchRPCVD9R9ypQpTz/9dHNzc7An69ate+KJJ84777wddVnQWmut16xZM2fOnFNOOWU7HR/f97/zne9ccMEFw4YNe+mll1auXPnpT3868IVsb0IrvD9obm4++eST77777hUrVjz//PMHH3xwnyeobyei0WhNTc2CBQuy2WzQl3HYsGGxWOzee+/91re+VVVVlc/nfd8XQhQKBezggBNJGBrKlKVq7v39qSOvmfv25/61sf0nBzyfaRj4j/mHJdynz5uZ7nkhIwdCRN7cCBxX1xjxi9puyZZQObbZ6M6J2vaOFgxpbmJZmFFiBpyS5oopriD71sCSYPV+B2YOePaJJTjuwArLGvqTd3D0hA3fnGLynq5v7j/i26/uc80Txa+OaU/WTv/ug/jaGPWFIfms7DjpjKFn/Purl+79owOwvFwxRLSh0HDN0+8seHRKg8k8z+sqlIdWJB6ae9De9fEUlZ3I+NrvP/GFP77QeuWEJDd+//xqLK35+82jT2pgbZixvKd04Ncfx7ghGmCKMsXygqvG5iO1w23PFKUb3/Kv+MnKNwvDTx68eP+/HTDylH/f84eTDxoARzHRtaaKazRlk+U4aLVjTDz/ysfP/PKQ/ztuqPDR+jV10M2LT7r6lcz1E72SM8TJYHD+19fPfWvjZ4aqtjLt9f1F3Td+fda8QxsGxciXgimpQEJxX2QNXYVBI/89Z9k7T52Ysiglit96unj9dfNmnbjvaNnqsUockv7kz+b94GvNF+xTD2125Ly6Cv+sy9/CeSOLn0u62s7TCV94tuMzX3n4tTtmDhB+u2+f9slHhn9r76ePGlbB2luoQpaoWC6rcumkY1868o8n/GXfem7ml3xt4v4XvvyVF70bD46/2uKiO/byPUePqM8qNaY1kxZmNy/kX22z0MMWPLRPXWyoUB0bi75BRncRJkum3XaHRT9yTl9vPxbDMILasEKh8NJLL23cuLG7u5sxFolELMsaMmTIlClTBg4cmEgkeluX99v3LtiQ53nLli2bMmVKoN+BTDLGampqfvazn0UikWCIOIB77rnnjDPO2IGXBSIiosGDBz/66KOdnZ1VVVXo04VO8N5/9atfnXLKKSNGjCCiAw88cMGCBS+88MLBBx/cD4kIu2eEf2eDiPbff/9jjz22VCq9/vrrb7zxRjQa3dE79aGQUv7+97+vqKiQUrquWyqVJk+eXCgU5s+ff+mll+5k7gStIADGtaZyed+K4j+Obvz9IdGOQu4AtW7lpwbdeWTFCNmW0XEhlSMsogwK0kpVpyPqxc4YrIWNUcRU+eU2gfqu5rR906Jiy7r1TPDN1WQf68uiQWCEd/VG0Q6zGhIMRc9XxhMbPDyz+K1vHxxhjqOiA43czy5oxotd8wsx5RNml68cV9uax3K4KdmNCfrXb2a8bHXabVPEsLHr+k9PGqByXRmeLVqOqtSuMbmqypKyRMm0Kl1+7FQsKTowlcGuvvV1HJk6sCm9rOAUiyuG1WQwoxoF6ZNWTDLfi8YSY1irkqrI2cymJErRIjm5/9/efcfJVdb7A/8+5bTpW7M9m2TTNwmpREAJTQnSVaoKIiDqVQQV+KlX4aJe2xULeBXvhYsoKk1AlBpIgBRI78mSbDbZkq3TZ057yu+PkwxLKCKSsuF5/5HXZnd25pyZ2fmcp30fLlIFC0jYKUpI97vppE1DPhjgVhcoc6P1f35lOci+mz4ydiDvpIvtoX7xv2fVQmf27z2C4GhW06C/4u6vTR3lFHtyNJvLXTPWgopYf97FBAdPDwAv6n6ZbRQ1gHzfV09qjGmFQnawb2jo304cBdVwwRPtMQMAJHAPvO4rZ9cW8j6ke6KGfe92Du0DL1w8eU++qttmabf4i6kW6N6iV5OmoT+3x4Vx5X87vZa5uV25eiPFI/5gBPL37wGY0/zAggiBvM3NY+pkzbH6A89t1zlETAl9uYc37nAgSjM0qndSB3yvEscl5Iu/XqdRnLJt10AYeY7l5wSgIi5D/8KywGCLkUgkks1m16xZ8+CDD9555507duzIZrOWZU2fPv288877/Oc//6lPfWrSpEml/IbDMb7rum53d/eUKVOGT1ULmKZZ+nCzbRsA6urqDvHhvZGUctq0aY8//vjBeK5SqdTvf//70aNHl74zY8aMJUuWHJqJhKoVfuicfvrptm2vXbv2ySef1HV94sSJ7+kmKAeF67pnnHFGPp83DGPLli0AMGHCBMdxDuWF/zuGKHgcdF+aDBs6yyHf9LhjhyMpiBjp5F6jLA45T9bqUHRlcVYtAhnetmPbLjd+4/dXX3rp1J1aY73T1VbUIOZs7i9+a3vvnotnO/kUAMh9e6y/CxIACYCYZCCkRBwLyQnxEOhCSoT25nyoqAnrdOPeTpg1bsZNT0HeBV8CUBhVCSje7cJMNAjzE9995dVr505vFNWDvoC1+IrPmnmNCRlBkAfLO6Ma0iIEZKBAast4X9QKPdxjfeel3T0bPcAuOC7EdAm44ObAjl03QWO2H/FYUq+O5+VCw3qCFSUiHmH1OLo2Z39tU/jhpSshX4SCB2NG13gpLiMaFIBJj+AcjfvMpgJRLiGe1qRIQOHudSkYG6sh2HO9XaExIYqm6+UQxsvW7FlwdjUVCMTeGWNPsfObEQr5GJirATMQ9qUAABkUvA27fHfMqHAjwFBLuSZc8HDU8rUy7sN4PbWqwzvnOCod8MrmfzASs1NpFM5o0SYYeHGHBmNofcSkQ7st5g/SWjKqD3R/0bb0v82Nr0sJQP0+n2mylIU6bR1xSFRjsrt/D2jZ2JdXAUeQ8aAcwKuA7s279bMnVbx6xddn/OS+dT/5Tfvnbjzm32oro9VD6Zw41dIu/+Lo23+85fY/ezd8esaF47Uak2V9Qxc2xo4U76a+ja7ruq6n0+ndu3evXr06KMaSz+erq6tramrq6+tnz56dSCSCSAgi8x1mg5SSc57P56PRaDB2HuwCTumbf/K/w9QZHBxcs2bNLbfcUjqkzZs3T5s2DQBCoVA4HA6+/9RTT82aNWv4nQdHLoTIZrPhcFjTNCllJpMJhULvZPK8lDKfz1NKLcuSUhYKhaBz4h8eM0Jo/PjxTzzxxL8ycPxWh9fb21teXj58sL+qqmrx4sVf+cpX4vH4u364d0hF+KEjpTz77LMHBgaklI8++uhZZ53V2tqazWaP8EmSQZ8epfSee+457rjjKioqXNcN/vaOhCpsw0lAGDyJEQGbg8YQB4ojDkicc7Ae4kUX05DI5qkRdWIkIfzfm7/cU35Jq3eN0L9+apOWs3Mi9535YycZU15sz3dfekwxm5T7itm9+798nYNEVCICNuRpjEgIe3lfY5pvcKzDK3tqFk4OyyJ3CWTTf735Q3tdoQnmYb3c68x/cuo8c2BPoXb1/1sw+4aVVZc8D+MNWJWFsVW3nFonc3vDJCqkDnmfRiw343laKOG6srqp4o6N8J1VF9+z8JqbYrNrR//705tu+7/VRAAHDQpORUUZZv6gXishKylOhimgfDxvFbX0/7QN3fCF1XBW/L4rPjJ1rL5rwD33kr+l8ayI6OeAgSQMSJa7kIOs1Ko18MGjIE1Hs9tQBZhJAzKDNNTA+x0Rk6EyCGOXg8EJwwSAxChiQBnGIeGmsQFEgqAUcQ4+wyYFIVCozMt5eh44MYXr4XARNCz8GOagR0D2SRA+CoPf31wRy5OY7rpUuL3h5kq2DYxQyGVZzRzUGxJsL+IVEJJrENWlAz4DEo0h18aM8lCICV/LeSiS9CiEqh74crVecNOEgjCLuoWcaHW2ey+2fnuM+b0zL/72s6/+5panfzOUuOuuU05tyPe5/q0Lxn7/7Mk3P73rR99d+6MU3PvnU06KDDgsZGPNAvsdjoUHf1bBMrANGza89NJLjuOEQiHHccLhcCgUOv7444899thwOFzqYP9nR7ullNls9re//e306dM3bNjwxS9+8Ve/+tWcOXPWrl375S9/+Y2X4EKIu+++mzH22c9+Nqi6+FZ3+/LLL0+YMKGqqirI7/b29tI1wWmnnVa62eLFi6+99tpS8gXhncvlfv7zn59wwgkvvvji9ddff88990ydOnXp0qXXXnttOBx+m9PhnD/yyCOhUOjZZ5+96qqrCoVCe3t7b2/vggULgquHt1ddXZ3P50vXQMNP5x/+7vAbv3Hf9O7u7ng8Pnzk27KsVCrV1dWlIvxogzG+7LLL7rvvvp07dy5atMi27VmzZtm2fcROKqyoqLj99tsvuuiiYrH4l7/85fvf/35QSmLVqlWu686bN++wV3F5A1T6d9824cGnB4Dc9y+WiGtlQ40/37Xy62d8YeyWhzorYG+yjMaxt2XIaIykU5ePp46EXNZD78HgN+JYUlHMYAM0NMpO9lKeFrGEzyM1+tXPdEKBPnbe5K5i18SqGPTx2sraY/mWvDQIMB8awkj2O1EKOEwZoOzN3zh5VjkJf5E3V+tu3vZlZQgNAEQBgRSAkTA9SnS+as8Q/LHzD2s/eUlZao1MuIVdq1P9AMRDZkQXYIq/vJr6txmV1OkOO7oZSqwqCoB4X6xgcHrDH/rhssnyixV7kkPmQHHnUAgw9jEWyAYRBt7h6PMczDIoUh5U7BUCQPpMfn9C7htPFZMyGpI5l0ej4HRls9BTmNba7DEbgQQOXAgCAHJfv/mw66JgtZv0MGgAFrhgGRty4lxhS1siWnRQDLbvNebXSmYQ6gMQLiWSUgKSgLBfnDS2Cu7u7ecsClrELxCku3YO0mWXjilzPa+xMgxcSxK9itG9RkyHQtRBpu5OKcd/ydvH15q2Wy1QDgmIe735mkQhiy0jt8vIe0nnezOtW+6/4MNPd1xx41/XP3pRed9QGrg5aP/4A9HrTjzpKw9s/dQ1D+954Kw8yHIvXcTW24+FE0KC6uWO46xZs6atrc11Xcdxgqqo0Wj0pJNOmjx5ciwWC66S/5Xurkwm89RTT331q19FCCWTyVtuueXWW299/PHH77zzzs985jNvTBfG2PPPP885v+yyy95qKlbwSbVs2TIp5d133x2NRtPp9KOPPvroo4+WbhCEnOu6Q0NDw5vIUkrG2KOPPvrNb34TIWTb9nXXXXf77bevX7/+W9/61llnnfX2Sbxo0aJTTjklFoudeuqpl19++ZVXXvnRj3504cKF9fX1/zDCg6uH2trazs7OhoaGA34kpbRt+7777nv7yyMhxEUXXRSJRIbfLLhOwhgH9xP8KGjz5PP5Q9CXriL8EClNPDEM49JLL33kkUdWr169dOlSKeWcOXOKxeIRmOKWZT399NM333zz+PHjCSETJ04sKyuLxWI7duw499xz9+zZczBqvx9sElBMFN1MLTz99KMTXriRyue2rnvwD6eTXGeRVEX8ok9lD4So9HXIsfeg7rdkSAfwq7nd5XtetDLh9ZkilcJjbvjb8ge+PKR/p3Ei6evwrDMbozDBnPPt/9v7iw9XDHGGszmjqpgdKkc2Bfl/r0Zg997PzYsjtygkJ8IBzXNtd0CfQKALAACBAInB9LCvMQ6mrCkvG0KskW4ddMe+cP8WqKrD0ouxgdM/PfXJO9rWnjNhrq7noGmvKfmqDqiqMzxDAwwIjw7xolNhh4oNUPONZzdAQ7kJSZfEKjUNILG5L3vpFOJiX/N8BAhAIpCOwy5cMP0bv15927LeH50cHcwZFbHYxQ+0Q03FRycgL4/e+CRifOBHmwRkCtslGsYUYhW3rej+1skfDJFC3CI/XZuF3vCfzvsAFDpRPAo4CuK1uyz46KJpkeurw6c8/urui8YOFnm1aX97pQSfXjbW3etVnVbr/Meu1C1Leu86o6El3eWSsBepyuXTp0wY9b3N677w9/A9546GXMbWsLTqHLuIieNDgkRqap2+LMVRK/O1mdMu79ugD7m5kFsVtpDjZlG0Qct/fE7LU3ftznl6RPQUUTkC541zHoMMDkJ6aGhoz549HR0dnZ2dQStcCDFmzJiWlpbm5ubGxsbhG3W/60//IPs3btx43nnnBd/JZrNNTU2U0hNOOOGhhx4KFkkfQNO0n/3sZ1LKt1/APTQ0tGXLlmuuueaMM84AgEKhkE6ny8vLgz650jF7ntfX13fAHmgrV64844wzgiekUCi0tLTouj5lypT169dPnTr1bU6HMRaLxYLRhIGBgd7e3nnz5hmG8dOf/nTixInBh2c2m127dm2wccu8efOGL44ProTKysp6e3sPiPDgNoZhnHrqqaWJ/W8lqGJ7wDeFEMMfq3Sfh+YjXUX4IRW8rpqmnX/++YSQlStXLl682PO844477ghMccdx5s+ff8kll7S1tQUlVCdMmNDZ2fn9739/aGhoYGDgyBsCOLC2BgWJQHJAHDAGIQFJkB6v9Kz04MMX7zH1a/PZ7Knjw/mhPMdCIkk5FqCDh+FNq468C0gTdpGGMq4L7thJ//NSKqdDkcOSF6G+5WM/Lv/fj8/dO7TDYnFHy/3+2hmf/PL62q+sP+/4Ki71x7Yug59s2ttzkbD5R8aH/t/YybWn/RnqKsCWEPeuvnTu9+fFrMKQwxAMcRk0Y0H40plXVwfzY6d8/P4v33xsZsC651t//tjPL33ox78nwAec2B2nx8b9bdtJn3vx8k9PKpK2+2/6O1x0KiR3m3xsFsMVC/BdP+z8dBmaEim79cElMLES+tIMPkj9XVYUwTn1P7v6T/mfXpwt5n51coPPemGQI4Gk5Kab+tynE7d/e9Nfexo+N2H0N1a1w0Orr/v2aSG3z5YJLiQMSpAgEJIIQEohAYYQ25fE+144DNInoRiT4PSDXl5x7h+vue64wZR48D9WwyXxU4yuPTIexR4M2WkWnDGSCEzmE5f96JqJN3z7kXASvnNs2aPb0ut+uGbud0+oK0/YuUJrmf6Vb4372TfX/6UjefWYsjv7CvDb23uevXE6db9224KffH1ZfNvQua0Thnj6xQd2wkmGe2nD4+3yYx+784TvfuSkGm17f/b+K3/R8quTqiq8P26q+NL5f/rwfx1/bKV8pd986soNH7irrlZCLwbN04TmvK6+PEKapum6nkwme3t7169fPzg4qOu6EMKyrIaGhpqamqlTpzY2Nr7nf0oIoWDGeNAQbG9vP++88xBClZWVwazsN/U2Pyrp6+vr6emZN29ekPQY42OPPTaY1+Y4jhAimM5WGmgbfmpz5swJIhYAenp6xo0bhxAKh8Otra1vfy6EkNmzZwfnsmbNmtNOOy0YYpg5c2bwWI7jfPGLX7zjjjui0eiOHTvuueeeyy+//IAOjGB/9Dd9qgkhwXy0t3khgs/nNzasS2dUEpTwUovKjk6lnpbzzjuPELJ06dJNmzbt3bv3oosuymQyR1SKBxe/P/jBDyilV199dbFY3LNnD6X0C1/4wuDg4JGX3xxkCMuCR3UqsMaKiYS1R5gOsqpkoVpkd/hlMZ7RRMHBYDpyCCWjDiQRQjlIg4kAEGalLVcFIAD9Pdl6iwAruLHLZ9a/Mjpf5OGQ9Co9dPaF585prDJ4R/9AF4KwIL7v+adGzR2PnnPtoyv+8uJuoJHq2eFl/V8Rqa6MTmed+3jLuRO/86UP2yhURjof2i7u/PJm8+bI9WdMbB0rPvHZep1x4ukFg5kezvu9u3903s2/vv8Xd2+DBrloySdbKsItuyMeRAnPwEB68L9P/+qfNv3fs5sgEl665Fo3l3t+6WAPpqSY+a/Txn9g3Lir7l7+kEj+x2fmXfOhiT+texhjgYEVM176mqkXlEf/54FuGN33X6ePmTJOP++aOoaLHJnaUP7WU5ovPvGYBXct+cb/roGZkRce+8IkOZTJioTor62ovOBzel6DBsfOGkSCGdPMqz4z1Fg2gXEpgGJgErCHUcRznXAIMuTh88cUPzblk/+9FuzUL++c9amZo4YGBkJoyONNN33cmTC2Ki80CmlPRiRG+YJ/6WRY+LcvfeVX991y12hoKTz3zMfnlue7sx4WqL9o33Byyycfj8+5t/fOv2+Fcvz3h24t2kNFlr5+snHp4ksu+dXfH3l2PZTpV11Y+61TJ/dlumeMIT/73TlfeWrnSy8IqID7N33+hCo7OzR4zoSy7AOnffPJnU/3etCYeHldS/Oo+oHMkCYjTM8BkxgjjLGmacFw8qZNm5YsWVLqPA+Hw6ZpTpw48YMf/GA8Hj94f0RBNRgAEEIMDAy8+uqr06dPD1rn8BYzs97hwbS3t7e2tpaVlQW/ouv6mWeeGdzt1q1bp06dOrzhO7x7GQA0TYP96b5t27bgF9/Jh15wV8HvLl++fP78+Qcc8JYtW84888xgdKCpqemZZ54566yzqqurh99JUFPrTc9d7vf2EV46jOHKy8uDQjel73ie53leeXn5Pzyvf50q7XI4cc6XLl1677331tfXE0I+97nPZbPZI22O2MghkTQxFBkCKnCirqbythehTYDUQKLzzqj63UfivWnPwQlT5N5dkZZ3eVgAlnBQSGJd6k6EY9Mm1GOexwsmI6U/P4YxALdEMabphmH5UPQAu1nPjdZ+bXHHYw/t6rrrRJQupLAZLkaaa19Fv7QByaFPjcrYnMfLRK4PEBNiFJEulY7ExIqVUb/ASEQUBwsoBobO7YwmuQCQCKFwuBw0yXmSuQhhC4Hr2gKIQJQYxDQsJBhinufkwIg7njBZ3qYRKXCV5WiatEUskxcx35bxCj+/lwAMmUbId2PIt3QTkA7E8XI5V5oFahSomeCsHOO05w8aWsyTCHwNCWxEGfP5sM8+honOJE1Ex1z81F23tH54fEWIEQ/jfpBWvsARIAxCEs0KYz8v3aIEw8emj6UhPAI+BwjHyizR7yDDzaMM0kwhqQDAvs8RtqKGxSgLY0BFf8DzQ4RjU+Y04ZqRBFDfp6GCzW3hcck1LExshjVhIs45lk7e9qRNYlLSiAmeFiMEWV52QGLkOiSYVa8RnVBN01zXXbt2bbAeDACCFmoikZg1a1Zra2ssFivNvj5IET78Ux0htGjRohUrVnzzm98MHnTPnj0NDQ3vbohdSvnDH/5w7969P/nJT4I8hv355zjOPffcc8011wQnVSgUrrjiil/84helSm3Bowez87Zu3frLX/7yjjvuCL7f1dXV2Nj4Ns9Jaeq74zhXX331TTfdNGXKFADo7u4uLy8PhUK/+c1vJkyYsGDBAoQQY+yqq6668cYbJ02aNPzXf/azn51++umlbw6Xz+dvueUW2H+R8aaKxeK3v/3tA4I5qBuzcOHCxYsXl64YVq9efdttt911111vbKC/51Qr/HDCGH/oQx+KRqN/+MMfotHobbfddumll8bj8WA9pfJPEYB04fsUKGfxWPmJv98GrxRh4jjT3uDgmr/8se0XFdM+M9XyXQ8LKd4wEHvwIMxdMHCRygLNaAUkXAKEMFIGqEBfu5TQmRBYFknIFhrKE42FJKFIFEzEItkcQIRK04KMISUp716eGQPPLb3osnoCvhTlVnIoi2swEgakPaS5JEyZ6yV7MloZknmd+QYeEpxi0Bg2QQiNu1o2l0KSY4q5NIH5GDNsgJBUOsIBWSxKKW1EMNawU8BABUZEMEuwjE2YDZZIG8CzlmEU27N6mcFlxPMl4Ly0Mo7hYwpSEyROwSPgjCp6RQqdiFEka4vCxsCpdAHMfAawPmy9PdKFDWDaWAcjLIUGDh/kg1jgKItw6iEwhcBEOLSQl1JzcRgAU7CxEBJTDyyDuSLd2wcVGuYALOr7nOoSewBIIxK8gnAcH2cEYAaGDmmgMot0gaOEe8Q3CEubyAtJDECxwIKIrI3TGHuYcCjHOujCJdJJMkRZDwaRB6IBQQQI1g3D6E8lN7W92tXV1dXVFUxoAoCgdHlzc3NdXd3wcW44yOu5pZQPPfTQpEmTWltbt2zZUlNTE+R60A3e1NT0pr+1atUqxliwudkBhxekYD6fX7169cKFC0tT0IO7xRg//vjjZ599dum3DMOIxWIHTJd58sknQ6HQCSec8PLLLwe96JxzIUR7e3swmoAQeuGFFyoqKqZMmTJ8HtymTZu2bt36iU98IpvNvvTSS5WVlcGPHn744c9//vNSysHBwenTpwcxH6w0y2azwyfDSymHhoaampretKkdDoe/973v/cMG7QFD+8GxVVRUVFVVFYvF0p4u7e3txx133CHIb1ARfngF76RjjjkmFos9+OCDGONf//rXF1xwwYQJE0ZK+bYjCabgucggiPW7ePOTO2BSC/J6Pa0KzCZo1L+5fPCqY8Zqrn3AlqHBPPWD2BklNA9LAzjDtsFCCBAD4em+i4XGhh8KoYIg4AA2AeHqWGc605Hj2ledOP6+l16uOfPuSZfPwdLY0mXDb5bAF8f86qPNA/2+Y/YzzglKEk5ASoSAScJpiAkTybxEZsasBIEiwhUgg01GEWhpA5lumPogtFQeGSB1AEGBA4AmZIGEPDBNWZQgHdAJeD7WNO5kaEQXgkhpY8oxMZlHWDjOQWdaUQcsQWJOoEBAaJwJsBgYCKycUSDcDHmWAJYzigbHUmCGSUGnRDA8rBwKBuCAiBTQnfOE7aE48qoF5p5RIFwDEAgERtQD6mNDYkkFA+BUAAMQmLg45IGBgAFwhwDGQAWT+6dBICF9nPAIE8iLeBJB1BfEwoz6ns5YxvQkpjYkBNIFFghcKqRAHmBezvIO1jjWOdakxDGPI0R8ZBhGFOtONpXv6elcu35df39XLFbpeW4sFqurq6utrW1tbW1oaOCcv7Fi9sHO776+vgsuuGDdunX9/f2GYTDGEELFYvH555//+Mc//qYx5jjOrbfeihD64x//+MYZbb7vp9PpdevWvfTSSzfccEN/f39wD5zzXC63aNGidDr9iU98onR7QsjMmTMHBgZKlwuc8z/96U/nn3++bdtBmdhgqO6Pf/xjUPpUSum67k9/+tMpU6Z873vfK52LEOJ3v/tdRUWFEOKJJ54IrjCEEOvWrfvYxz4WdG4fsA96EKXDLwIKhUKwE+ub5nQwIvAunmqEUCQSueWWW5544omrr75aCMEYW7JkybXXXvsu7u3dHIDqSD/sgrdasIKzUCjk8/mJEyeeddZZqlP9n8IBh7mT18ImFAegcv6tr4CehfBYkHoi/3xa/yBEBpPXTdhlh8M8hwAAEADCIEImBkJ1TARnns9dn3NAAEgCev0CISnR/jJi+7f8gv1fIwj+kN7kc5kKYVNN59KnvgAgUhJBNU6woI7uILlv/ZtHAQmwGAAgDwsEUuNhh+QZZrWyUEzMX97dtWLVrsGCPXH6qMsm1cc9nnY600YoYlt5zQyLLBe6RzEVvg4OEpJj4oGpgZCCRkQ+R02EfSx8AGDIirrIMYoeRpobB8wQLlAhXax5OKQxrKMcBpdBjAE2IScksmkIAzOY8Aj4FIin6YgLCXndskTWB4IBqCRIYCSFxiGna4bwMHgMS8ziGDsS50GYiEW55lIhKeeu7gHoIEqzfiTDps78mCVGPZddM0Mvj8YcKGAAzQ8XdakLmwjwsMEAh4UtgfsY+1gjwqDCx+AILCVoVPgYSFYjmsBU+gKoALLvlcJ5yzOwQAUTfCQMwRkGH5kcGQnXszEFLHSRwwA+RlQAR8Ax9kQ1QUWT2QgwUF1YQAGwZFs2rFr0/BpdD1HN5N5Q2IqYofDEiROPP/74RCKx/03zWkPwvX3Dv42gZ3vRokUbN26cOXPmiSeeuHz58mXLljU1NZ1//vlBA/pNj2fLli1CiGBy+AFLp3p7e4MVNKW8LJVqCR5u+vTpQYXR0q/s2rVr8eLFpWllQoiXX355+fLlo0ePPv/889evX79o0aLy8vKLL764VBclGOpOp9MLFy4c3v3e39//0EMPmaZ5ySWXuK573333AcA555xTU1MTPNwdd9wxZcqUk08+OTiYq6+++vrrr588eXLpTjZt2vTkk09+9atffW9rUpUW/q1YsWLJkiUzZ85ctGjRl770pdra2kMznU1F+BHEcZzHHnts2bJlVVVVruteeeWVQogjb+H1kUsCQuAjaRjR2OibnoZwI9AUWIPgtkJPfu6C8NNnh7rdeJjlXRxCSAjfTlRV1t6wCQwfYvaVkxLHtYyaP66mkhRActO3e1ydIAGCCaBIUsMzGGVAUi5EEGgYGAYfCY4wytKIwRmRAgv+xl764YFfmoENSAb5Pfw2w8qvggSJACFAAhBGrk6pRikgJH1h+4wjBDJoa5QuLUpfoP17X+57YoI18cPvWyLY/+gChv1KcC0S3AkCCSCD4jbDr2aQhNKBIyklwsFPX3s8ALzvv697iGFfB08IesOEwX3PU8IkeV8wXrpx8IBo/9Mo9x8hIJBy32/tP7X9k9vf7KMNBYvSUfB8wb4P+H1PyL4jeH1zGSSA0DQDYazpWrFQXL1y1Z7Ozkw2R6kmhC+lKC+vmD179tSpU6PRqKZpR85MzwNaoof4wKSUN99884033ji8nnRpVPttxrw3bNgwbdq0f3i0pTuRUpY2F5FS+r5/6aWX3nHHHcOH4e+7774ZM2a8/dT3f4WUMqhCbRjGoQnvgIrwI0jwJli1atX9998fi8U8zzvzzDObm5tzudyR86FwxOOaQMjQOljlSdc/AOUtwDPAyiHeu+mbHwj5OZdrQeObCEdSLYfDsy5fDA11IBAIFxAHXoTqGFToQP32yye6vsCCAUDQ+0sEaFo45Lh5LLGUDBMOCAkZ45kCiQgwieQSqb6To0GwlikY1e7q6tq1a1d3d3d/f3+wKgxj3NjYOGnSpKamptra2uHToNRfa8nixYuFECeffPI7vH3QqH3sscfOPvvsd95cllLmcrkLL7zwgQceiEQibW1tzzzzzDXXXFOaQJ7P53/3u98F33mXZ/KPDmD4QvBD+QZQEX7EEUJ0dnY+9thjQ0ND2Wz2+OOPP/7444MUV/3qb09iLIHrTHAMYeoPylGfe2rHipR9dTn9+vlTSCFrMxzn6SwtR5JrwkaUprnxl20Dq7rzT/Y5kMWQk5AqgBEB2wNa7PzFgny+iCUDABA0yoVnWU/tyUyuILURGjVNzj1gwvNZjsawFIQ5pnBcrKmP8BEqKNOBELIsy3XdVCq1c+fOzZs3e54XVD+NRCL19fWjRo2aPHnywVjPfZSRUt57773nnXdeKBR6J21TIcSyZctaWlqCLbf/qcdKJpPPP/98IpHIZDLnnnvu8N7+e+65Z8GCBaNHjz76Xi8V4UecoEKQlPLuu+/evn17OBxOJpPXXXcdxngkVkM7lCQQgaXOhAQoagbW0rWgaVLvt7xImmdA42Ca0kYCfGwJTDQ/gwzDwlIaYSwZ000mcM5jT29P3r9h4JWc33flhHTBwcAFaBxxS0//dajxyzethIow2CmoN06aErtwUtmcllrDLVSZvmt7BRQnYA/r1MX7h8lLXbtB7zFGIIZXj5Gv67hGaP/epvs2Fxey1JUsDkpD4v0uKMNCKRVCpNPpJUuW7N692zAMSqnrurFYLBqNtra2zp07t1TKWx6Jm/0cWYJ5ZL/97W+DquzvpG/c931N00olz/6pxxreDi7NttuwYUOwFl9KeSi7uA8NFeFHqGCu5urVqx944IGampru7u6FCxcec8wxwbYoqjn+VobNMeMgdYEAgGOJBMIEfAFYAsLAJRABwRwnHkQmBr5vqg5CukZ1jWAQycJrS5YBAQ2V3fTnVQ88swOqpgEugkvAlhDyQfpgVEDZzr6vL8zkCxwLAKkz4aNQhZ4StALLIvMhJXQiCYeihAiFwTytiLKi3J/TunB8bPmghSBJBcvhagoMSU7BA4k8rL/rjaiVAwR/PkH6EkIwxsFioY0bN27cuDGfzwcjmsVi0bKsxsbGuXPnNjc3h0Kht9rgS3l7wcZIh+VyR0qZSqXKysqOvvZ3QEX4Ear0unR3d//1r3/t6uqSUtbX1wf1jHzfVy/cIcdDvouiNRsL3kBfdmtRbu3KPLLXgz0ODOUAVU7/cPiv54yx81kqBMdCYDOB2Pc2F1fvHFwwrmxGtXFMfSKuUcKzVFDH91zme6+rwS4laFhwwJ6NYgme9JEmQOeIchAasLc7NOWfEcypJoQYhpFKpXbs2NHT09Pd3R1kjOM4lZWVLS0t48ePr62tDcqQqda2cmRSEX6EKlUyCv596qmnlixZEo1Ge3t7L7zwwjFjxgTliA/3Yb6PcIw5aKZghLIQB2EAoQZDGLCWztvP7c5NjIjWMj0J0TAr+AR8CDdG3Nh/dcPuAoQocA65IWgoHzUuvLCpbHx19ZmJ3kg4sr9IODCMDMYM5LlIYzJqE6wLVwMfAccCMxUh7wWMsa7rhJDBwcGenp7Nmzf39vbGYjHXdSmldXV1o0aNGjdu3Pjx44N2eWk+M6hJasoRSUX4yBAUMHrooYeKxaLruhUVFRdddFFQbvBwH9r7BMLgU7A9rEtheUQvczKMgo90D5mIUhME5swTBQQ6EZxj4CRUofHqmx8HbxQgAmACw4CKYDMIAfTrN31h7JdmRfLuvuswAZIi5FNLM2EcG8xIwj2/yEiRhATSiPDedNG58vaCrcAopUHhDtu216xZs3btWkKIruvB9LRwODx69Oj58+cHi4xVVCsjiIrwkSFocLuuu2jRoiVLloTD4Vwut2DBgrlz5x5QYV85aDADKjFYzGPYR9IKBtolplLgCM8wCOU0HBbMxwhA6ExwFCmP2jaPFf3ikE+GhPHSq/1PbxlY+2oPbKh6+r/HTyjnLgMAkIBCIusnxo+74Ocw9TiIoUsm0gWTRp84vjLEM4bwMPBs3vf374MuAGMQYt9q79Lq6gOWWb9x1XXJgVu6HX2C6WnBOHdXV9crr7wyNDSUz+eDumCmacbj8Tlz5kyZMiUUCum6fshKnyrKe0hF+EgSvFjt7e1PPPFEb28vIaS8vHzBggWVlZWO4wT78CgH07D6bMO+CfvqgUh8YGbum3mOEcIICJKUEqQbHJmDmRQ2QiGvUNpwhQAZAnrs1UuhsQJQGOw0aBKYBwkDqizQ6LLPTqsqZgSSDqYJ3jeo1VSwPNIsLvLAdIkEgO3gMBaIACBgCBwOkWFHRAAkgA9AADSAo7BZH8x5DrYF831/x44dnZ2de/fuzeVylFLOuWVZzc3NkyZNamxsrKysVNPTlJFORfhIUlpvZtv2kiVLVqxYQQjJZrNz586dO3dusJvh4T5G5W0gKjyBQQLBgJHwGH5tOhtFoLPc7dvJ5j17n8tAMatBKg8pHzQTgEBBbPh5c7UjB3UjxESBhnVph1Hukc7Q1ApaUR6N6UTzJLgukymbAPCQ6YFDRSmlBQBggWSwOI3go2geRTA9LSiLlkwm+/v729radu3aFQ6Hg4JZjY2NtbW1DQ0NEydOHL7Fp2ptKyOdivCRSkqZTCbvv//+jo6OYJrbpz/96cbGxnw+r17TIxgFYEhIwAIB7K/dDQhEAScssKOUWiRva/G4n8po5d088cKm9me2dTy1xt38w9koG8ZoEElNgohD5rl8xaXXb4d6HYodMAqdOm3M6a1Vx9XFQ0jTDRRxO4siVlqKRjjDRPeBY4EICA8fws3aDoKgPpqu60HHuG3b69evX7NmDcbYNE3XdQ3DSCQSsVhs3rx5kyZNOvoWBCsKqAgf0YK141u3bn344YeD1kY8Hj///POj0aht22q++hFIAMEgkRASgwAdg1uq36KDTTgCAA/rHCFdMsKERkAamk4lRqNzua22FkEoxWVNiGVoOH7vy7u/cXsbNNQBiQAn4DoQCoGXBQSg7W378ZkoPVTqqEdSGrqODU1yAM/2uBCvlTF/XU31YSXQ32bIfHg190MqKHqqaRohZOPGjRs2bMjn87ZtBzPXQqFQKBSaMWPG9OnTo9Foaf8M1eBWjkoqwke8oD7wypUrFy1apGma67rjxo075ZRTgq8ZY2pJ6xEFg5D7xs4PnG7GgQaj6RQ8HyjeP/AusAAhMEKYEwDCsIcBAFON4o686E27O9Li5T7vb939sCsPWQCzBkLdyZuPHSjs2yNHgoxj8+E9zp0bOj8+2jymJjFhdGUYI9P3BTDhF7iUWU4RxpijnMFjngTAQoQZddH+qwAMgIBLzKTAWFqIU0HzhybFS4PclmXt3bt3586dPT09g4ODwccX5zwUCo0bN27ChAm1tbVVVVWU0uF7YKj8Vo5WKsKPEkKIPXv2rFixYvXq1aFQKJPJLFiwYMaMGRhjz/PUq3xUQgAawQRLC7mYUoYMn9KBgrd8TzGbdS6dUV103eCWElBV2LnsscHHH6BQb4PIg+1DY7SxQftIbWx0fe3shD815hW5SZFtuLpPZVEvmDxCIc/AQlxKAIRRkSDDxzoIhj2BBQjrrSe9/8tnh1BQEdOyrGKxmEwmOzs7N2/ebNu2YRicc0JIQ0NDZWVlc3Pz+PHjw+GwWsCtvN+oCD9KBDPdEELbt29/+umne3p6LMsaGBj4xCc+MXbsWMaY2rT0qCQAATZAMI41Jgmj4TgbjGBPUsLsTBGXIRAQhH3YuuKB9c9vzgMYkDdAMtAwuAQsHRwMk1OZK6Z3OqYF2SLWBSZxnmekxiJ+nHp54btM5oWXsI2MTmydaJyZXMiDk9/BIDdCiDHW29u7bNmy3t5ey7IQQrZtV1ZWxmKxhoaGOXPm1NTUHPAJpvJbeV9REX5UCV5NxtimTZsee+yxYMqPbdsLFy6cNGmS4zjBkOHhPkzlvYRBECERYkggU+RsHC/QqJSCYrc07RxJsHVZhU1NLxZt0Svig665eGf3g68O7lq5F7qzX/rirH8/tmzINzEUMAjCQlXhSPTXi6CLQ13jhdOts8Yn5jeHHRyu9gdjbjHl6ikIEWS/Vx3pCCFKaVBxJZvNrlq1aufOnZ7nBa1tANB1vba29thjjx07dmywJbNKa0VREX5UCV7NYPAvk8msW7fu2WefDQbFy8rKZs6c2draats2Y0y97kcNjoUUGANGgDjiCLQQK0okizRChVva9gXhPPXK8jqzBDUF8w1mYQ1TwyFkIONFsEfAZkjHQgcpHE3Uh2KVN78E/aPAGgSPAhIABOJFqG0Ekrn7w82n1bKC97oa76aGpQBPCJASAL/2AySRxBJJJPd9sW+iHEIEY0KIplHBxY6dO3ft2pVMJgf6+zTdCHqVqqqqJk2a1NzcXFVVFY/HDzh3leLK+5yK8KOZlDKdTi9btmzDhg22bQNAKBRasGBBQ0NDMECuqsEclYJ55gjE65vICEAgQBKkhFL0SQRAMBIShEQAEoEsUBL3bRmqundd7wu97nMDBUi6MORAngPVgXFwKv73a/oHR9eDV9xf6Ebq1Fjela+Ia5MTIU2PMJkBjwlPMB0ZBZK2CrEitWnIMfOmb2BiGFSYILsG0wP9Pe0dXW27dlhWSPd5zkPV1eV1dZX1dXVjx45raGhQ68EU5a2oCD+aBevKpJT5fP7pp59ua2vzfd/3fUrpueeeG2zBpMbIleEkklFXd6gjqZdAEQ1jTwOHWEyLDGazf91TWLFl29PP7Vz33XOrfT1r5pBEAIBBkpg19vMvg0HBzsOY+DkTwydObD6mNlSBiroeJ7BXiHKTYkIy0hHJAlu5buPGbe2mJkMGsXPFSMSIxRNl8eiUqdOmz5hBKZVSIIRBNbUV5a2pCH+/EEIUCoXHHnts27ZtGGMppeu6p59+emtray6X45xzztUwuYIAihSooEgghG0ARAQBLCUHrKEyP2SYImWEXLszj3HECUkkAYCAsKPV0z72IjRboJuQbwdcDRoHQoGGYNumlfee14CdFa8sXrMjZTPbcpLlvFA1bkque/OArJr3wQWz5s4Nh0MmpRgDgHofKso7oiL8fSSYtd7b27t27doVK1boul4sFuPx+OTJk+fNm+e6ru/7qiCMAgLpkiABjADHbF9tVsBIyoxZjPjUZMBZBaeOwK/tr6Nh6HREPpVb4yTW9+Qe7M7Czl4omlA2Gvo6bj99oGPbjnjIy4sqRuTohB4bO/nype4vTqn9wOTmiU31ISSw9F1kUAACEh119dsV5WBQEf7+Unq5h4aGVqxY0dbWlkwmCSGc8/nz57e0tKjKbgoC4REhAGlSUkYF2jcULUEa3LSpZDSHhW6InNi/jQpGyCV6BfZROMGcgij09Cbtbd2Dr/Ynh5L5JW74SrStWNbSWJNorK5tbG5uaGp8ccA/7XPLIE7AK0LMbmlOTK0159VVtdRExpTROc0VEunDG+NcAgHJAO2riYMAXmutCwk4OHIAJPft5/Ym9eNeqzsHQgL51y4Tgkl5eP8XiANSg/bKIaYi/P1LSul53qJFi9ra2gYGBiilxWJxypQpJ554omEYrusKIVSWvz/tm6L2hu8HEYj2F4XFeN+2YK7rSiE69uzZsG5dT093NFYGougWvURFRSSaiMVjra2tU6dMoZompcTYlyD/vLL94ge2gh+CAoEBG3QN0gSqGTg2TMDef5xLEUbDMrzoFyiEKGaIICkxlhwQAkQkANqXx3JfMAsJCO0rDntgSgsGmARl5t5lhO9LbiEBgmn3CEDKfc+K6jtQDi0V4e9fpRVonuetW7duyZIlqVRK0zTP80Kh0BlnnDF69GjbtlVxN2W4YAE3pRRjTCnduHHjunXrcrkcYywoxmKaJsZ41KjqY46ZNXnyJNM0NU0r/S4ASAlICCElk8IXfo6Rzjx7cWvH8q2Dj21Jeb3kmosqfvmx2VIa2rBE/N4zG771SOr4JnHWNHPBhPqJY5sIBg2kBgCACEiQMmiLcyQQSA4EA9DSOxcBAEgpJEJY+oD0d/sEyNK1jQTMgQMQDoBBaiAAVDtcOaRUhCsAAFJKx3E6OjpWrly5bds2wzAcx6moqBg7duzs2bMJIZ7nqUb5+5MQIii6AgCGYfi+39HR0d7enk6nU6lUUHrF933LshoaGsaNG9fU1FRRURGNxgDevDi5BCYBM8AUpA+A97XsOUhwEE7m/ZhwIyHLJ7pZWvom5Rm3v/Dkch9yPRAZBR6FmtzYaqs2jBsT1ufnVR3fOpYgzBEhMiiL4HNJieQSYwimte87F96XK8TiEYszIPq7mDUnAaQEjJgUHDAGgUEgiUBgoBIkQmr+vHIoqQhXAIaNkQshdu/evXnz5q1bt2azWUppLpebMWPGxIkTGxsbPc9jjKkgfz8INuEmhBiGkc/nBwcH+/v7Ozo6urq6TNMsNbjr6+trampqa2ubm5uDZYqwr7gQ3h/h4oAZ5kIyBBgAIeFxbGAABFKCFAiAI4SFkAwBEMCAtdId/nV9+7Ldha19Xtdgdk0qC10MWAQAQ8p59MctZxwzgSJgQKlkEjBHsHpPn67rE6pjGiIEISwBAZLArrz7hYxZ8buPjTP0yLvqSZdSSkA45Xg7evqqKxJN0agHYn1nV5kVmVBdJqVaBaccOirClTeXz+eXLl0aDJNjjIMF5aeffnpzc7Ou68F/D/cxKu8ZjHHQnhZCmKZJCHFd13Xdjo6O9evXDw4OhsPhoFhvLBaLRqPRaLSlpSXY0PNQJta+EsJSduXs5dt3LWsvPtvW98o3Tg0Rk+4fiPYAkPD0//cMbO2CisSMCVUnTTBPaKmdUFdhhbTx/7kUtjIoG1z93Y9OHpUwpSeRgRAXkgmgrp/KsUiCeMiImh6XhgRJX3eCkrsSOpKFnz256vL54+b/dP3SG4/928tt58wfe+xPNzz3lTkLGhMcCGCOgSIhigSHRJajOFWxrhwEKsKVN1cqt97d3b1o0aLOzk4pJcbYdd14PP7hD3+4rq7O8zzf9xlj//DelCNWUMdU07Rgg07XdTds2LBx40bOeXCVFoS6pmnl5eUzZsyYNm2aYRhBAz3osz7EEY4QkgBs/2Q1KQUAwgjwvkl2wEAmC3bNx38PiRrgUYA0SB9oBHgCrHYw68ASQMbCqrW3/fuka08e4+OQBj7n2oObXr349jUAEsL+i9cvPL4x5iNdEx7Crw2cCwDH8//98fU/Om+qh6wV7b0nj3t+ae8ZVi45a/wrf9983EmT63XgGEkAzDkHhAAjAVhTw+TKQaAiXHlLpa0bhRCDg4NtbW2vvPJKf3+/aZqu60YikYaGhqlTpzY1NTmO4/t+UBxGdbMfmYI9b2D/2DbGGGMcTDTbu3dvR0dHf39/LpfLZDJSymBJQjgcbmxsbGlpaWhoKCsrO8QN7rcjBQADwBJhAIQkKq0hAwAOgLjXlnay6WJbTmzc3bd6d+65XQXYmwPNgNgoi6yzZb0mk/7eyPGn1Pzts3PDmv7H1W2fvnEnTPABqkAS6Gvf8fuzxoZMQBIhOuyh2bO7U2NCaHRVGQXxn0+u/a+lfX3f/YjH8Y6BoUmVlRQjBOLPL+/dne0cFQ9v6XG/dfbMiCRIU/VqlPeeinDlHSk1ytva2tra2jo6Ovr6+kzTLBaLZWVl06ZNa2xsrKqqCgbLpZTqfXWkoZRyznVdNwwjm80mk8nBwcGurq6enp5gVDuo7VNdXT1q1Kjq6uqGhoampqZIJBLs232khDcAAOwLcJAYJAKBJIX9i8gAYN+7FQkJGAsfEPiAfUmS2dQPl+65/c/9UFYOrg1DOai0PtTCPzOn/FMnts68dfHGV6tJ2WYebg6lXi06E06Zk3/68x+S2CSvf2jBPYk1BFIgNO6W5y6eXf6fH52OEEHSAyQ9oM+/Onj9X9asu+F0XbqPbxu45altL/7bySZVrXDlvUf/8U0UZT9K6ZQpU6ZMmcI5X7NmzcaNG1OpVDqdXrNmzdKlS03TnDdv3rhx40zTBADXdVWQH17BArCgqV0oFHzf3759+/r167PZrGEYlNJCoRAOh8vLy8PhcFVV1cSJE8eNGxfcvtRJfgS+iBikLjgAAYyDhWSvHaIEiaRAmABDoAmsSwkESYKgLl4eKeyAziSUOfMa8OWfHHPB3JYyXQMpmKQbBznU70TZUSTtFsPzNPzQok0zOAYiBAwrPIxBItAAAAHryvpdS7rOvWKWBE6EZFgn0tGle/eLu7500mjCkI/NY5viq1ZnMp5r0tChf6KUo56KcOUdOaARRimdN2/e7NmzXdcN8hshlM/nly9fvnz5cs55a2vrCSecENR9C+q2qg72QyNYABYs2hZCtLe3b9q0qaenByHk+76u647jWJZFKY1Go8cdd9yMGTPKysqCPvbhRfJLr/gR1f7eDwGm+7/aX2tm//8RYAIAYAAALt0CABC01pAX//CRuZUG1TUpNRL8IsJYyrEJ1L63IUaWJM3TQv6SYv6j86Z0YzAQet0VDAfEsCsBNEHb0lkos5rjBha6IPCDx1687iNzDMN6ZVfhshOqCQEM3DQi4LCiJ0EluHIQqAhX3j2MsWVZJ5xwwty5c5PJ5O7duzds2NDd3Y0x3rx58/r160eNGlVWVjZ58uSmpibGGN/vcB/4USUI7GB+GaW0u7s7GNjO5/PZbDaYZx5MRYzH48HS7fr6+ng8HolE3m8b21zwwRkYMJOCC6zh17reCULXnjT62h8MJMdVEb9QdJsh2fmbKz6EJZIghl/CMMY++JOXWssjd119zF/X9kIimrCwIMU9A56PY4ZGXYk6Cg4mmCMgwQo0ih21cYtycKgIV969UvvMMIza2tra2tpjjz22p6dn586dnZ2dHR0dAwMDyWSyra1N07Rx48Y1NDRUVVVVVFSUqrcegZ20Rzg0jK7rCKFkMplOpwcHB3t7e7u7uxljhmEEc8vj8XhNTU1lZWVlZWXwAhmGcUS2qg8RjAgRPkEagACQpWJqCOCK45u7v+D+6IUmnhuCUdHffrp5enmUIZ9IObzmmsvkyl777ONr/7K+e1SEwzi6as8g9sSKrqFvfHQGQQIDTIqYgFFQjVZKACExqC4o5aA4Ege6lBGtNJctn8+vX7++o6Mjk8n09/cLIQghjDHLsqZPnz5mzJhQKGSaJuc8KP12uA/8iBZ0jAcl0gqFAmOsdKkUTCAPBjISiUQ4HI7FYmVlZWPGjGlpaYlEIrB/kzo4QnvFDx0pJQfEkTAkDirOyP0F37lgGDGGdBAeB6wTIbhJMJfwulrtElia4cVrNtQ21s+rNnwZfmRTe3U8NH90rS4xJkwAfOQXK686MXLBtFaJob/o1V78yN4/fLQmEjl8560ctVSEKwdXkOi9vb3Lli1ra2tjjNm2HUyVCmJp0qRJs2bNisViQbV2KSXn/H2Y6MGir+BfhPZtHxI8SwDgOM727du3bNmSyWSCkYjgiaWUBhPTysrKpkyZMnXq1FgsRgh5n0f1YSIFSBfwrxfv3N7n/vrjTT4xt/b0zfjmiuKvFlhWxeE+POUopCJcOehK68tt206n011dXTt37uzo6LBtOygLwxiLx+OxWKy8vLyxsbGurs6yLM55sD7tqJ8KF+R0CSHEcZyBgYHOzs6hoSHbtvP5fC6XwxgHy7UtyzIMo66urqmpqbGxMR6Ph0Kh4BkL8l7l92EjOYAYsr0L/3fxV06c3DyqbPr/vPTSxbNnj6011C5mykGgIlw5REpri4MvisViV1fX3r17e3t7e3p6hoaGghoyQQG46urqqqqqYDZcRUVFOBwuzYaT+x3uE3qXgmHsUloHpUyz2WwqlcpkMgMDAwMDA+l0Oug2l1L6vm+aZiKRCKYRBM9MdXV1MBAOw+rbD3+Iw3FmihTAGVAqhSfRy+1dvm1Pbq6viRhcYJ2oGW3Ke09FuHKYBY3sjo6OHTt29PX1FYvFfD4/MDBgmiallDHmeV44HG5qaqqvr6+urtY0zbIsTdOCeDvye91LddCCZA1qjzuO09fX19fX19XVlclkNE0zDCP4KSEkFouFQqFQKBSNRoMTr6urg/2V8t5v08hHECEAg+NjQ5MMQEjJGQ5hkIQXgYQP99EpRyEV4crhccAbL4i3IIw9z9u5c+f27dt37NgR1IcJhs8BgFJairHm5uaGhobq6uqamhr5eqXp7ods0nswgF3qDC/NHcMYFwqFgYGBYK1XKpUK9vjSNE0I4fs+xjgcDkspdV2PxWItLS1BQdPgfmB/q710FqqFfQSTNkhDCIEplZ4AnSOgwpVY44A01ZGuHAQqwpUjl+/7xWKxWCymUqmgFGhfX59t257nBZPbg5thjEOhkK7rlmVZlhWPxxOJRCQSiUQi8Xg8KCwaBH9pM67gbR906b99Iz6I4WBG9wHVTkrrrQEgn8/btp3NZoeGhpLJpG3bwcEHVUuDOXqGYXDOKaXBoQYXH6NGjaqoqLAsKxQKvc9XfCmK8s9SEa4cud745vQ8L5VKDQ0NBSPHQfWSVCpVLBZt2w46q4Nmbil0g1yPRCKGYYRCoWA5dSCYEh+son7TA0AIBd0AwR0Gy9kZY47juK5bKBSCLvFisej7ftBDgDEO7s33fcMwDMOIRqPxeDz4N5FIxOPxsrKyeDwerBA7oIKpinBFUd45FeHKiOd53sDAwODgYH9/fzKZDBq+nucFtV1t27Zt23GcYKkV2W94x/tb3XOwqRcABK1tTdMcxwkm3AVt+qD1b5qmruvBBDTLsnRdj8fjweyzysrKYKeQQ/h8KIryfqEiXDkalNatlXrISxPg8/n80NDQ4OBgJpMpFApBoudyuaBh/Q9XrAVhDwBBEz8ajQYJXWpSJxKJ0i6cQdIHh7FvZ+v9Pe2KoijvORXhyvtUMJU96Bh/q9sEHeNB2700v0xRFOUIoSJcURRFUUYk1apQFEVRlBFJRbiiKIqijEgqwhVFURRlRFIRriiKoigjkopwRVEURRmRVIQriqIoyoikIlxRFEVRRiQV4YqiKIoyIqkIVxRFUZQRSUW4oiiKooxIKsIVRVEUZURSEa4oiqIoI5KKcEVRFEUZkVSEK4qiKMqIpCJcURRFUUYkFeGKoiiKMiKpCFcURVGUEUlFuKIoiqKMSCrCFUVRFGVEUhGuKIqiKCOSinBFURRFGZFUhCuKoijKiKQiXFEURVFGJBXhiqIoijIiqQhXFEVRlBFJRbiiKIqijEgqwhVFURRlRFIRriiKoigjkopwRVEURRmRVIQriqIoyoikIlxRFEVRRiQV4YqiKIoyIqkIVxRFUZQRSUW4oiiKooxIKsIVRVEUZURSEa4oiqIoI5KKcEVRFEUZkVSEK4qiKMqIpCJcURRFUUYkFeGKoiiKMiKpCFcURVGUEUlFuKIoiqKMSCrCFUVRFGVEUhGuKIqiKCOSinBFURRFGZFUhCuKoijKiKQiXFEURVFGJBXhiqIoijIiqQhXFEVRlBFJRbiiKIqijEgqwhVFURRlRPr/oSD5yPBo9TwAAAAASUVORK5CYII=;" vertex="1" parent="1">
          <mxGeometry x="10" y="13" width="877.79" height="480" as="geometry" />
        </mxCell>
        <mxCell id="4WSRFMHS42A8IH6o-YUB-4" value="&lt;b style=&quot;&quot;&gt;&lt;font style=&quot;font-size: 21px;&quot; color=&quot;#046fab&quot;&gt;$$x_1$$&lt;/font&gt;&lt;/b&gt;" style="text;html=1;strokeColor=none;fillColor=none;align=center;verticalAlign=middle;whiteSpace=wrap;rounded=0;strokeWidth=4;" vertex="1" parent="1">
          <mxGeometry x="220" y="490" width="60" height="30" as="geometry" />
        </mxCell>
        <mxCell id="4WSRFMHS42A8IH6o-YUB-8" value="" style="endArrow=classic;html=1;rounded=0;strokeWidth=2.5;dashed=1;strokeColor=#046FAB;" edge="1" parent="1">
          <mxGeometry width="50" height="50" relative="1" as="geometry">
            <mxPoint x="330" y="370" as="sourcePoint" />
            <mxPoint x="270" y="480" as="targetPoint" />
          </mxGeometry>
        </mxCell>
        <mxCell id="4WSRFMHS42A8IH6o-YUB-9" value="" style="curved=1;endArrow=classic;html=1;rounded=0;strokeWidth=2.5;fillColor=#d80073;strokeColor=#A50040;" edge="1" parent="1">
          <mxGeometry width="50" height="50" relative="1" as="geometry">
            <mxPoint x="280" y="489" as="sourcePoint" />
            <mxPoint x="570" y="419" as="targetPoint" />
            <Array as="points">
              <mxPoint x="310" y="439" />
              <mxPoint x="340" y="399" />
              <mxPoint x="360" y="378" />
              <mxPoint x="390" y="379" />
              <mxPoint x="500" y="399" />
            </Array>
          </mxGeometry>
        </mxCell>
        <mxCell id="4WSRFMHS42A8IH6o-YUB-10" value="" style="ellipse;whiteSpace=wrap;html=1;aspect=fixed;fillColor=#FF3333;" vertex="1" parent="1">
          <mxGeometry x="354" y="378" width="10" height="10" as="geometry" />
        </mxCell>
        <mxCell id="4WSRFMHS42A8IH6o-YUB-13" value="&lt;b&gt;&lt;font color=&quot;#ff3333&quot; style=&quot;font-size: 16px;&quot;&gt;Early Stop&lt;/font&gt;&lt;/b&gt;" style="text;html=1;strokeColor=none;fillColor=none;align=center;verticalAlign=middle;whiteSpace=wrap;rounded=0;strokeWidth=4;" vertex="1" parent="1">
          <mxGeometry x="340" y="396" width="100" height="30" as="geometry" />
        </mxCell>
      </root>
    </mxGraphModel>
  </diagram>
</mxfile>
